%TF.GenerationSoftware,KiCad,Pcbnew,(5.1.10)-1*%
%TF.CreationDate,2021-09-12T14:26:05+02:00*%
%TF.ProjectId,LED_Cube_5X5X5_PCB2,4c45445f-4375-4626-955f-35583558355f,rev?*%
%TF.SameCoordinates,Original*%
%TF.FileFunction,Copper,L2,Bot*%
%TF.FilePolarity,Positive*%
%FSLAX46Y46*%
G04 Gerber Fmt 4.6, Leading zero omitted, Abs format (unit mm)*
G04 Created by KiCad (PCBNEW (5.1.10)-1) date 2021-09-12 14:26:05*
%MOMM*%
%LPD*%
G01*
G04 APERTURE LIST*
%TA.AperFunction,ComponentPad*%
%ADD10C,2.000000*%
%TD*%
%TA.AperFunction,SMDPad,CuDef*%
%ADD11R,3.150000X1.000000*%
%TD*%
%TA.AperFunction,ViaPad*%
%ADD12C,0.800000*%
%TD*%
%TA.AperFunction,Conductor*%
%ADD13C,0.508000*%
%TD*%
%TA.AperFunction,Conductor*%
%ADD14C,1.016000*%
%TD*%
G04 APERTURE END LIST*
D10*
%TO.P,J1,1*%
%TO.N,Net-(J1-Pad1)*%
X99250000Y-43000000D03*
%TD*%
%TO.P,J2,1*%
%TO.N,Net-(J2-Pad1)*%
X124250000Y-43000000D03*
%TD*%
%TO.P,J3,1*%
%TO.N,Net-(J3-Pad1)*%
X149250000Y-43000000D03*
%TD*%
%TO.P,J4,1*%
%TO.N,Net-(J31-Pad4)*%
X174250000Y-43000000D03*
%TD*%
%TO.P,J5,1*%
%TO.N,Net-(J31-Pad2)*%
X199250000Y-43000000D03*
%TD*%
%TO.P,J6,1*%
%TO.N,Net-(J31-Pad5)*%
X99250000Y-68000000D03*
%TD*%
%TO.P,J7,1*%
%TO.N,Net-(J31-Pad7)*%
X124250000Y-68000000D03*
%TD*%
%TO.P,J8,1*%
%TO.N,Net-(J31-Pad9)*%
X149250000Y-68000000D03*
%TD*%
%TO.P,J9,1*%
%TO.N,Net-(J31-Pad3)*%
X174250000Y-68000000D03*
%TD*%
%TO.P,J10,1*%
%TO.N,Net-(J10-Pad1)*%
X199250000Y-68000000D03*
%TD*%
%TO.P,J11,1*%
%TO.N,Net-(J11-Pad1)*%
X99250000Y-93000000D03*
%TD*%
%TO.P,J12,1*%
%TO.N,Net-(J12-Pad1)*%
X124250000Y-93000000D03*
%TD*%
%TO.P,J13,1*%
%TO.N,Net-(J13-Pad1)*%
X149250000Y-93000000D03*
%TD*%
%TO.P,J14,1*%
%TO.N,Net-(J14-Pad1)*%
X174250000Y-93000000D03*
%TD*%
%TO.P,J15,1*%
%TO.N,Net-(J15-Pad1)*%
X199250000Y-93000000D03*
%TD*%
%TO.P,J16,1*%
%TO.N,Net-(J16-Pad1)*%
X99250000Y-118000000D03*
%TD*%
%TO.P,J17,1*%
%TO.N,Net-(J17-Pad1)*%
X124250000Y-118000000D03*
%TD*%
%TO.P,J18,1*%
%TO.N,Net-(J18-Pad1)*%
X149250000Y-118000000D03*
%TD*%
%TO.P,J19,1*%
%TO.N,Net-(J19-Pad1)*%
X174250000Y-118000000D03*
%TD*%
%TO.P,J20,1*%
%TO.N,Net-(J20-Pad1)*%
X199250000Y-118000000D03*
%TD*%
%TO.P,J21,1*%
%TO.N,Net-(J21-Pad1)*%
X99250000Y-143000000D03*
%TD*%
%TO.P,J22,1*%
%TO.N,Net-(J22-Pad1)*%
X124250000Y-143000000D03*
%TD*%
%TO.P,J23,1*%
%TO.N,Net-(J23-Pad1)*%
X149250000Y-143000000D03*
%TD*%
%TO.P,J24,1*%
%TO.N,Net-(J24-Pad1)*%
X174250000Y-142750000D03*
%TD*%
%TO.P,J25,1*%
%TO.N,Net-(J25-Pad1)*%
X199250000Y-143000000D03*
%TD*%
%TO.P,J26,1*%
%TO.N,Net-(J26-Pad1)*%
X96750000Y-45500000D03*
%TD*%
%TO.P,J27,1*%
%TO.N,Net-(J27-Pad1)*%
X96750000Y-65500000D03*
%TD*%
%TO.P,J28,1*%
%TO.N,Net-(J28-Pad1)*%
X96750000Y-90500000D03*
%TD*%
%TO.P,J29,1*%
%TO.N,Net-(J29-Pad1)*%
X96750000Y-115500000D03*
%TD*%
%TO.P,J30,1*%
%TO.N,Net-(J30-Pad1)*%
X96750000Y-140500000D03*
%TD*%
D11*
%TO.P,J31,1*%
%TO.N,Net-(J10-Pad1)*%
X108025000Y-73080000D03*
%TO.P,J31,2*%
%TO.N,Net-(J31-Pad2)*%
X113075000Y-73080000D03*
%TO.P,J31,3*%
%TO.N,Net-(J31-Pad3)*%
X108025000Y-70540000D03*
%TO.P,J31,4*%
%TO.N,Net-(J31-Pad4)*%
X113075000Y-70540000D03*
%TO.P,J31,5*%
%TO.N,Net-(J31-Pad5)*%
X108025000Y-68000000D03*
%TO.P,J31,6*%
%TO.N,Net-(J3-Pad1)*%
X113075000Y-68000000D03*
%TO.P,J31,7*%
%TO.N,Net-(J31-Pad7)*%
X108025000Y-65460000D03*
%TO.P,J31,8*%
%TO.N,Net-(J2-Pad1)*%
X113075000Y-65460000D03*
%TO.P,J31,9*%
%TO.N,Net-(J31-Pad9)*%
X108025000Y-62920000D03*
%TO.P,J31,10*%
%TO.N,Net-(J1-Pad1)*%
X113075000Y-62920000D03*
%TD*%
%TO.P,J32,10*%
%TO.N,Net-(J11-Pad1)*%
X113025000Y-87920000D03*
%TO.P,J32,9*%
%TO.N,Net-(J16-Pad1)*%
X107975000Y-87920000D03*
%TO.P,J32,8*%
%TO.N,Net-(J12-Pad1)*%
X113025000Y-90460000D03*
%TO.P,J32,7*%
%TO.N,Net-(J20-Pad1)*%
X107975000Y-90460000D03*
%TO.P,J32,6*%
%TO.N,Net-(J13-Pad1)*%
X113025000Y-93000000D03*
%TO.P,J32,5*%
%TO.N,Net-(J19-Pad1)*%
X107975000Y-93000000D03*
%TO.P,J32,4*%
%TO.N,Net-(J14-Pad1)*%
X113025000Y-95540000D03*
%TO.P,J32,3*%
%TO.N,Net-(J18-Pad1)*%
X107975000Y-95540000D03*
%TO.P,J32,2*%
%TO.N,Net-(J15-Pad1)*%
X113025000Y-98080000D03*
%TO.P,J32,1*%
%TO.N,Net-(J17-Pad1)*%
X107975000Y-98080000D03*
%TD*%
%TO.P,J33,1*%
%TO.N,Net-(J30-Pad1)*%
X107975000Y-123080000D03*
%TO.P,J33,2*%
%TO.N,Net-(J25-Pad1)*%
X113025000Y-123080000D03*
%TO.P,J33,3*%
%TO.N,Net-(J29-Pad1)*%
X107975000Y-120540000D03*
%TO.P,J33,4*%
%TO.N,Net-(J24-Pad1)*%
X113025000Y-120540000D03*
%TO.P,J33,5*%
%TO.N,Net-(J28-Pad1)*%
X107975000Y-118000000D03*
%TO.P,J33,6*%
%TO.N,Net-(J23-Pad1)*%
X113025000Y-118000000D03*
%TO.P,J33,7*%
%TO.N,Net-(J27-Pad1)*%
X107975000Y-115460000D03*
%TO.P,J33,8*%
%TO.N,Net-(J22-Pad1)*%
X113025000Y-115460000D03*
%TO.P,J33,9*%
%TO.N,Net-(J26-Pad1)*%
X107975000Y-112920000D03*
%TO.P,J33,10*%
%TO.N,Net-(J21-Pad1)*%
X113025000Y-112920000D03*
%TD*%
D12*
%TO.N,Net-(J31-Pad5)*%
X105250000Y-68000000D03*
%TO.N,Net-(J31-Pad3)*%
X105250000Y-70500000D03*
%TO.N,Net-(J31-Pad7)*%
X105250000Y-65500000D03*
%TO.N,Net-(J11-Pad1)*%
X115750000Y-88000000D03*
%TO.N,Net-(J16-Pad1)*%
X105000000Y-88000000D03*
%TO.N,Net-(J18-Pad1)*%
X105250000Y-95500000D03*
%TO.N,Net-(J19-Pad1)*%
X105250000Y-93000000D03*
%TO.N,Net-(J20-Pad1)*%
X105250000Y-90500000D03*
%TO.N,Net-(J21-Pad1)*%
X115750000Y-113000000D03*
%TO.N,Net-(J22-Pad1)*%
X115750000Y-115500000D03*
%TO.N,Net-(J23-Pad1)*%
X115750000Y-118000000D03*
%TO.N,Net-(J31-Pad9)*%
X105250000Y-63000000D03*
%TD*%
D13*
%TO.N,Net-(J1-Pad1)*%
X99250000Y-43000000D02*
X101550000Y-40700000D01*
X101550000Y-40700000D02*
X108600000Y-40700000D01*
X113075000Y-45175000D02*
X113075000Y-57925000D01*
X108600000Y-40700000D02*
X113075000Y-45175000D01*
X113075000Y-57925000D02*
X113075000Y-62920000D01*
%TO.N,Net-(J2-Pad1)*%
X113075000Y-65460000D02*
X116040000Y-65460000D01*
X124250000Y-57250000D02*
X124250000Y-43000000D01*
X116040000Y-65460000D02*
X124250000Y-57250000D01*
%TO.N,Net-(J3-Pad1)*%
X113075000Y-68000000D02*
X117250000Y-68000000D01*
X142250000Y-43000000D02*
X149250000Y-43000000D01*
X117250000Y-68000000D02*
X142250000Y-43000000D01*
%TO.N,Net-(J31-Pad5)*%
X108025000Y-68000000D02*
X105250000Y-68000000D01*
%TO.N,Net-(J31-Pad3)*%
X105290000Y-70540000D02*
X105250000Y-70500000D01*
X108025000Y-70540000D02*
X105290000Y-70540000D01*
%TO.N,Net-(J31-Pad7)*%
X105290000Y-65460000D02*
X105250000Y-65500000D01*
X108025000Y-65460000D02*
X105290000Y-65460000D01*
%TO.N,Net-(J10-Pad1)*%
X108025000Y-73080000D02*
X108025000Y-74775000D01*
X108025000Y-74775000D02*
X109250000Y-76000000D01*
X191250000Y-76000000D02*
X199250000Y-68000000D01*
X109250000Y-76000000D02*
X191250000Y-76000000D01*
%TO.N,Net-(J11-Pad1)*%
X115670000Y-87920000D02*
X115750000Y-88000000D01*
X113025000Y-87920000D02*
X115670000Y-87920000D01*
%TO.N,Net-(J12-Pad1)*%
X121710000Y-90460000D02*
X124250000Y-93000000D01*
X113025000Y-90460000D02*
X121710000Y-90460000D01*
%TO.N,Net-(J13-Pad1)*%
X113025000Y-93000000D02*
X120000000Y-93000000D01*
X120000000Y-93000000D02*
X122500000Y-95500000D01*
X146750000Y-95500000D02*
X149250000Y-93000000D01*
X122500000Y-95500000D02*
X146750000Y-95500000D01*
%TO.N,Net-(J14-Pad1)*%
X113025000Y-95540000D02*
X119290000Y-95540000D01*
X119290000Y-95540000D02*
X121250000Y-97500000D01*
X169750000Y-97500000D02*
X174250000Y-93000000D01*
X121250000Y-97500000D02*
X169750000Y-97500000D01*
%TO.N,Net-(J15-Pad1)*%
X113025000Y-98080000D02*
X118580000Y-98080000D01*
X118580000Y-98080000D02*
X120000000Y-99500000D01*
X192750000Y-99500000D02*
X199250000Y-93000000D01*
X120000000Y-99500000D02*
X192750000Y-99500000D01*
%TO.N,Net-(J16-Pad1)*%
X105080000Y-87920000D02*
X105000000Y-88000000D01*
X107975000Y-87920000D02*
X105080000Y-87920000D01*
%TO.N,Net-(J17-Pad1)*%
X107975000Y-101725000D02*
X124250000Y-118000000D01*
X107975000Y-98080000D02*
X107975000Y-101725000D01*
%TO.N,Net-(J18-Pad1)*%
X105290000Y-95540000D02*
X105250000Y-95500000D01*
X107975000Y-95540000D02*
X105290000Y-95540000D01*
%TO.N,Net-(J19-Pad1)*%
X107975000Y-93000000D02*
X105250000Y-93000000D01*
%TO.N,Net-(J20-Pad1)*%
X105290000Y-90460000D02*
X105250000Y-90500000D01*
X107975000Y-90460000D02*
X105290000Y-90460000D01*
%TO.N,Net-(J21-Pad1)*%
X115670000Y-112920000D02*
X115750000Y-113000000D01*
X113025000Y-112920000D02*
X115670000Y-112920000D01*
%TO.N,Net-(J22-Pad1)*%
X115710000Y-115460000D02*
X115750000Y-115500000D01*
X113025000Y-115460000D02*
X115710000Y-115460000D01*
%TO.N,Net-(J23-Pad1)*%
X113025000Y-118000000D02*
X115750000Y-118000000D01*
%TO.N,Net-(J24-Pad1)*%
X152040000Y-120540000D02*
X113025000Y-120540000D01*
X174250000Y-142750000D02*
X152040000Y-120540000D01*
%TO.N,Net-(J25-Pad1)*%
X113025000Y-123080000D02*
X147580000Y-123080000D01*
X147580000Y-123080000D02*
X170500000Y-146000000D01*
X196250000Y-146000000D02*
X199250000Y-143000000D01*
X170500000Y-146000000D02*
X196250000Y-146000000D01*
D14*
%TO.N,Net-(J26-Pad1)*%
X103250000Y-52000000D02*
X96750000Y-45500000D01*
X103250000Y-110000000D02*
X103250000Y-52000000D01*
X106170000Y-112920000D02*
X103250000Y-110000000D01*
X107975000Y-112920000D02*
X106170000Y-112920000D01*
%TO.N,Net-(J27-Pad1)*%
X96750000Y-76250000D02*
X96750000Y-65500000D01*
X101500000Y-81000000D02*
X96750000Y-76250000D01*
X105710000Y-115460000D02*
X101500000Y-111250000D01*
X101500000Y-111250000D02*
X101500000Y-81000000D01*
X107975000Y-115460000D02*
X105710000Y-115460000D01*
%TO.N,Net-(J28-Pad1)*%
X107975000Y-118000000D02*
X104000000Y-118000000D01*
X96750000Y-110750000D02*
X96750000Y-90500000D01*
X104000000Y-118000000D02*
X96750000Y-110750000D01*
%TO.N,Net-(J29-Pad1)*%
X96750000Y-115500000D02*
X95500000Y-116750000D01*
X95500000Y-116750000D02*
X95500000Y-119750000D01*
X95500000Y-119750000D02*
X97000000Y-121250000D01*
X97000000Y-121250000D02*
X102750000Y-121250000D01*
X103460000Y-120540000D02*
X107975000Y-120540000D01*
X102750000Y-121250000D02*
X103460000Y-120540000D01*
%TO.N,Net-(J30-Pad1)*%
X96750000Y-140500000D02*
X96750000Y-131000000D01*
X104670000Y-123080000D02*
X107975000Y-123080000D01*
X96750000Y-131000000D02*
X104670000Y-123080000D01*
D13*
%TO.N,Net-(J31-Pad4)*%
X113075000Y-70540000D02*
X117960000Y-70540000D01*
X117960000Y-70540000D02*
X140250000Y-48250000D01*
X169000000Y-48250000D02*
X174250000Y-43000000D01*
X140250000Y-48250000D02*
X169000000Y-48250000D01*
%TO.N,Net-(J31-Pad2)*%
X130670000Y-73080000D02*
X113075000Y-73080000D01*
X152000000Y-51750000D02*
X130670000Y-73080000D01*
X181750000Y-51750000D02*
X152000000Y-51750000D01*
X192500000Y-41000000D02*
X181750000Y-51750000D01*
X197250000Y-41000000D02*
X192500000Y-41000000D01*
X199250000Y-43000000D02*
X197250000Y-41000000D01*
%TO.N,Net-(J31-Pad9)*%
X105330000Y-62920000D02*
X105250000Y-63000000D01*
X108025000Y-62920000D02*
X105330000Y-62920000D01*
%TD*%
M02*
