%TF.GenerationSoftware,KiCad,Pcbnew,(5.1.10)-1*%
%TF.CreationDate,2021-09-12T14:26:05+02:00*%
%TF.ProjectId,LED_Cube_5X5X5_PCB2,4c45445f-4375-4626-955f-35583558355f,rev?*%
%TF.SameCoordinates,Original*%
%TF.FileFunction,Legend,Top*%
%TF.FilePolarity,Positive*%
%FSLAX46Y46*%
G04 Gerber Fmt 4.6, Leading zero omitted, Abs format (unit mm)*
G04 Created by KiCad (PCBNEW (5.1.10)-1) date 2021-09-12 14:26:05*
%MOMM*%
%LPD*%
G01*
G04 APERTURE LIST*
%ADD10C,0.010000*%
G04 APERTURE END LIST*
D10*
%TO.C,G\u002A\u002A\u002A*%
G36*
X197547016Y-130431876D02*
G01*
X197526155Y-130493067D01*
X197510610Y-130518800D01*
X197419427Y-130597780D01*
X197308275Y-130616419D01*
X197217716Y-130572376D01*
X197196439Y-130536929D01*
X197182997Y-130444513D01*
X197230579Y-130427845D01*
X197288049Y-130463227D01*
X197364505Y-130494792D01*
X197393875Y-130470466D01*
X197468913Y-130421488D01*
X197500428Y-130417200D01*
X197547016Y-130431876D01*
G37*
X197547016Y-130431876D02*
X197526155Y-130493067D01*
X197510610Y-130518800D01*
X197419427Y-130597780D01*
X197308275Y-130616419D01*
X197217716Y-130572376D01*
X197196439Y-130536929D01*
X197182997Y-130444513D01*
X197230579Y-130427845D01*
X197288049Y-130463227D01*
X197364505Y-130494792D01*
X197393875Y-130470466D01*
X197468913Y-130421488D01*
X197500428Y-130417200D01*
X197547016Y-130431876D01*
G36*
X195534172Y-130443805D02*
G01*
X195518344Y-130514275D01*
X195480240Y-130559440D01*
X195364150Y-130617023D01*
X195247244Y-130588146D01*
X195185600Y-130518800D01*
X195157024Y-130439701D01*
X195195958Y-130417229D01*
X195199052Y-130417200D01*
X195292586Y-130450396D01*
X195327840Y-130478160D01*
X195378176Y-130513502D01*
X195388800Y-130478160D01*
X195429774Y-130424149D01*
X195465000Y-130417200D01*
X195534172Y-130443805D01*
G37*
X195534172Y-130443805D02*
X195518344Y-130514275D01*
X195480240Y-130559440D01*
X195364150Y-130617023D01*
X195247244Y-130588146D01*
X195185600Y-130518800D01*
X195157024Y-130439701D01*
X195195958Y-130417229D01*
X195199052Y-130417200D01*
X195292586Y-130450396D01*
X195327840Y-130478160D01*
X195378176Y-130513502D01*
X195388800Y-130478160D01*
X195429774Y-130424149D01*
X195465000Y-130417200D01*
X195534172Y-130443805D01*
G36*
X189184172Y-130443805D02*
G01*
X189168344Y-130514275D01*
X189130240Y-130559440D01*
X189014150Y-130617023D01*
X188897244Y-130588146D01*
X188835600Y-130518800D01*
X188807024Y-130439701D01*
X188845958Y-130417229D01*
X188849052Y-130417200D01*
X188942586Y-130450396D01*
X188977840Y-130478160D01*
X189028176Y-130513502D01*
X189038800Y-130478160D01*
X189079774Y-130424149D01*
X189115000Y-130417200D01*
X189184172Y-130443805D01*
G37*
X189184172Y-130443805D02*
X189168344Y-130514275D01*
X189130240Y-130559440D01*
X189014150Y-130617023D01*
X188897244Y-130588146D01*
X188835600Y-130518800D01*
X188807024Y-130439701D01*
X188845958Y-130417229D01*
X188849052Y-130417200D01*
X188942586Y-130450396D01*
X188977840Y-130478160D01*
X189028176Y-130513502D01*
X189038800Y-130478160D01*
X189079774Y-130424149D01*
X189115000Y-130417200D01*
X189184172Y-130443805D01*
G36*
X200068613Y-130682453D02*
G01*
X200099270Y-130731780D01*
X200111449Y-130842534D01*
X200113200Y-130972371D01*
X200098522Y-131194377D01*
X200053106Y-131328823D01*
X200033371Y-131353371D01*
X199919180Y-131411921D01*
X199762548Y-131431681D01*
X199608494Y-131412707D01*
X199502041Y-131355053D01*
X199500052Y-131352725D01*
X199460114Y-131259973D01*
X199426724Y-131104501D01*
X199411526Y-130971725D01*
X199402326Y-130804230D01*
X199410216Y-130714113D01*
X199441974Y-130677679D01*
X199497494Y-130671200D01*
X199565608Y-130685094D01*
X199597111Y-130744625D01*
X199605173Y-130876558D01*
X199605200Y-130890090D01*
X199626799Y-131080866D01*
X199685008Y-131213722D01*
X199769943Y-131271899D01*
X199826453Y-131265248D01*
X199877891Y-131217925D01*
X199903724Y-131111929D01*
X199910000Y-130952194D01*
X199914359Y-130790169D01*
X199933230Y-130705553D01*
X199975296Y-130674324D01*
X200011600Y-130671200D01*
X200068613Y-130682453D01*
G37*
X200068613Y-130682453D02*
X200099270Y-130731780D01*
X200111449Y-130842534D01*
X200113200Y-130972371D01*
X200098522Y-131194377D01*
X200053106Y-131328823D01*
X200033371Y-131353371D01*
X199919180Y-131411921D01*
X199762548Y-131431681D01*
X199608494Y-131412707D01*
X199502041Y-131355053D01*
X199500052Y-131352725D01*
X199460114Y-131259973D01*
X199426724Y-131104501D01*
X199411526Y-130971725D01*
X199402326Y-130804230D01*
X199410216Y-130714113D01*
X199441974Y-130677679D01*
X199497494Y-130671200D01*
X199565608Y-130685094D01*
X199597111Y-130744625D01*
X199605173Y-130876558D01*
X199605200Y-130890090D01*
X199626799Y-131080866D01*
X199685008Y-131213722D01*
X199769943Y-131271899D01*
X199826453Y-131265248D01*
X199877891Y-131217925D01*
X199903724Y-131111929D01*
X199910000Y-130952194D01*
X199914359Y-130790169D01*
X199933230Y-130705553D01*
X199975296Y-130674324D01*
X200011600Y-130671200D01*
X200068613Y-130682453D01*
G36*
X198918583Y-130677052D02*
G01*
X199013605Y-130697797D01*
X199045798Y-130738218D01*
X199046400Y-130747400D01*
X199012846Y-130800384D01*
X198901618Y-130822217D01*
X198843200Y-130823600D01*
X198701908Y-130836182D01*
X198643687Y-130877893D01*
X198640000Y-130899800D01*
X198678555Y-130956158D01*
X198801606Y-130975862D01*
X198817800Y-130976000D01*
X198949303Y-130992523D01*
X198995278Y-131045260D01*
X198995600Y-131052200D01*
X198957044Y-131108558D01*
X198833993Y-131128262D01*
X198817800Y-131128400D01*
X198686296Y-131144923D01*
X198640321Y-131197660D01*
X198640000Y-131204600D01*
X198673553Y-131257584D01*
X198784781Y-131279417D01*
X198843200Y-131280800D01*
X198984491Y-131293382D01*
X199042712Y-131335093D01*
X199046400Y-131357000D01*
X199022991Y-131401245D01*
X198940011Y-131425001D01*
X198778324Y-131433049D01*
X198741600Y-131433200D01*
X198436800Y-131433200D01*
X198436800Y-130671200D01*
X198741600Y-130671200D01*
X198918583Y-130677052D01*
G37*
X198918583Y-130677052D02*
X199013605Y-130697797D01*
X199045798Y-130738218D01*
X199046400Y-130747400D01*
X199012846Y-130800384D01*
X198901618Y-130822217D01*
X198843200Y-130823600D01*
X198701908Y-130836182D01*
X198643687Y-130877893D01*
X198640000Y-130899800D01*
X198678555Y-130956158D01*
X198801606Y-130975862D01*
X198817800Y-130976000D01*
X198949303Y-130992523D01*
X198995278Y-131045260D01*
X198995600Y-131052200D01*
X198957044Y-131108558D01*
X198833993Y-131128262D01*
X198817800Y-131128400D01*
X198686296Y-131144923D01*
X198640321Y-131197660D01*
X198640000Y-131204600D01*
X198673553Y-131257584D01*
X198784781Y-131279417D01*
X198843200Y-131280800D01*
X198984491Y-131293382D01*
X199042712Y-131335093D01*
X199046400Y-131357000D01*
X199022991Y-131401245D01*
X198940011Y-131425001D01*
X198778324Y-131433049D01*
X198741600Y-131433200D01*
X198436800Y-131433200D01*
X198436800Y-130671200D01*
X198741600Y-130671200D01*
X198918583Y-130677052D01*
G36*
X198241014Y-130676287D02*
G01*
X198343956Y-130694464D01*
X198383582Y-130730106D01*
X198386000Y-130747400D01*
X198341839Y-130808685D01*
X198259000Y-130823600D01*
X198188614Y-130830053D01*
X198150614Y-130865319D01*
X198135056Y-130953254D01*
X198132002Y-131117716D01*
X198132000Y-131128400D01*
X198128292Y-131298636D01*
X198112008Y-131390624D01*
X198075400Y-131427596D01*
X198030400Y-131433200D01*
X197973654Y-131422078D01*
X197942991Y-131373224D01*
X197930667Y-131263401D01*
X197928800Y-131128400D01*
X197925092Y-130958163D01*
X197908808Y-130866175D01*
X197872200Y-130829203D01*
X197827200Y-130823600D01*
X197744457Y-130791836D01*
X197725600Y-130747400D01*
X197747644Y-130704658D01*
X197826413Y-130680902D01*
X197980860Y-130671757D01*
X198055800Y-130671200D01*
X198241014Y-130676287D01*
G37*
X198241014Y-130676287D02*
X198343956Y-130694464D01*
X198383582Y-130730106D01*
X198386000Y-130747400D01*
X198341839Y-130808685D01*
X198259000Y-130823600D01*
X198188614Y-130830053D01*
X198150614Y-130865319D01*
X198135056Y-130953254D01*
X198132002Y-131117716D01*
X198132000Y-131128400D01*
X198128292Y-131298636D01*
X198112008Y-131390624D01*
X198075400Y-131427596D01*
X198030400Y-131433200D01*
X197973654Y-131422078D01*
X197942991Y-131373224D01*
X197930667Y-131263401D01*
X197928800Y-131128400D01*
X197925092Y-130958163D01*
X197908808Y-130866175D01*
X197872200Y-130829203D01*
X197827200Y-130823600D01*
X197744457Y-130791836D01*
X197725600Y-130747400D01*
X197747644Y-130704658D01*
X197826413Y-130680902D01*
X197980860Y-130671757D01*
X198055800Y-130671200D01*
X198241014Y-130676287D01*
G36*
X197469981Y-130682433D02*
G01*
X197577440Y-130730245D01*
X197615855Y-130792090D01*
X197615489Y-130852798D01*
X197565160Y-130869398D01*
X197451194Y-130853288D01*
X197317613Y-130841946D01*
X197273655Y-130869344D01*
X197318911Y-130927142D01*
X197452969Y-131007002D01*
X197458900Y-131009916D01*
X197611919Y-131112230D01*
X197663784Y-131219998D01*
X197614336Y-131332831D01*
X197597508Y-131350834D01*
X197486465Y-131406564D01*
X197326222Y-131430975D01*
X197165238Y-131420765D01*
X197070497Y-131386749D01*
X197024835Y-131307289D01*
X197031643Y-131258336D01*
X197076942Y-131203052D01*
X197160616Y-131226695D01*
X197162706Y-131227809D01*
X197279448Y-131271607D01*
X197341260Y-131280800D01*
X197413858Y-131259190D01*
X197407633Y-131208177D01*
X197332137Y-131148480D01*
X197267327Y-131120414D01*
X197112888Y-131035163D01*
X197051708Y-130923712D01*
X197087480Y-130793520D01*
X197097779Y-130777965D01*
X197194642Y-130705325D01*
X197330545Y-130673803D01*
X197469981Y-130682433D01*
G37*
X197469981Y-130682433D02*
X197577440Y-130730245D01*
X197615855Y-130792090D01*
X197615489Y-130852798D01*
X197565160Y-130869398D01*
X197451194Y-130853288D01*
X197317613Y-130841946D01*
X197273655Y-130869344D01*
X197318911Y-130927142D01*
X197452969Y-131007002D01*
X197458900Y-131009916D01*
X197611919Y-131112230D01*
X197663784Y-131219998D01*
X197614336Y-131332831D01*
X197597508Y-131350834D01*
X197486465Y-131406564D01*
X197326222Y-131430975D01*
X197165238Y-131420765D01*
X197070497Y-131386749D01*
X197024835Y-131307289D01*
X197031643Y-131258336D01*
X197076942Y-131203052D01*
X197160616Y-131226695D01*
X197162706Y-131227809D01*
X197279448Y-131271607D01*
X197341260Y-131280800D01*
X197413858Y-131259190D01*
X197407633Y-131208177D01*
X197332137Y-131148480D01*
X197267327Y-131120414D01*
X197112888Y-131035163D01*
X197051708Y-130923712D01*
X197087480Y-130793520D01*
X197097779Y-130777965D01*
X197194642Y-130705325D01*
X197330545Y-130673803D01*
X197469981Y-130682433D01*
G36*
X196863146Y-130680198D02*
G01*
X196893626Y-130721231D01*
X196908252Y-130815352D01*
X196912640Y-130983617D01*
X196912800Y-131052200D01*
X196910400Y-131247000D01*
X196899458Y-131361297D01*
X196874359Y-131416147D01*
X196829488Y-131432602D01*
X196811200Y-131433200D01*
X196759253Y-131424201D01*
X196728773Y-131383168D01*
X196714147Y-131289047D01*
X196709759Y-131120782D01*
X196709600Y-131052200D01*
X196711999Y-130857399D01*
X196722941Y-130743102D01*
X196748040Y-130688252D01*
X196792911Y-130671797D01*
X196811200Y-130671200D01*
X196863146Y-130680198D01*
G37*
X196863146Y-130680198D02*
X196893626Y-130721231D01*
X196908252Y-130815352D01*
X196912640Y-130983617D01*
X196912800Y-131052200D01*
X196910400Y-131247000D01*
X196899458Y-131361297D01*
X196874359Y-131416147D01*
X196829488Y-131432602D01*
X196811200Y-131433200D01*
X196759253Y-131424201D01*
X196728773Y-131383168D01*
X196714147Y-131289047D01*
X196709759Y-131120782D01*
X196709600Y-131052200D01*
X196711999Y-130857399D01*
X196722941Y-130743102D01*
X196748040Y-130688252D01*
X196792911Y-130671797D01*
X196811200Y-130671200D01*
X196863146Y-130680198D01*
G36*
X196258345Y-130682321D02*
G01*
X196289008Y-130731175D01*
X196301332Y-130840998D01*
X196303200Y-130976000D01*
X196303200Y-131280800D01*
X196455600Y-131280800D01*
X196576591Y-131303518D01*
X196608000Y-131357000D01*
X196580808Y-131404919D01*
X196486663Y-131428323D01*
X196354000Y-131433200D01*
X196100000Y-131433200D01*
X196100000Y-131052200D01*
X196102399Y-130857399D01*
X196113341Y-130743102D01*
X196138440Y-130688252D01*
X196183311Y-130671797D01*
X196201600Y-130671200D01*
X196258345Y-130682321D01*
G37*
X196258345Y-130682321D02*
X196289008Y-130731175D01*
X196301332Y-130840998D01*
X196303200Y-130976000D01*
X196303200Y-131280800D01*
X196455600Y-131280800D01*
X196576591Y-131303518D01*
X196608000Y-131357000D01*
X196580808Y-131404919D01*
X196486663Y-131428323D01*
X196354000Y-131433200D01*
X196100000Y-131433200D01*
X196100000Y-131052200D01*
X196102399Y-130857399D01*
X196113341Y-130743102D01*
X196138440Y-130688252D01*
X196183311Y-130671797D01*
X196201600Y-130671200D01*
X196258345Y-130682321D01*
G36*
X195897946Y-130680198D02*
G01*
X195928426Y-130721231D01*
X195943052Y-130815352D01*
X195947440Y-130983617D01*
X195947600Y-131052200D01*
X195945200Y-131247000D01*
X195934258Y-131361297D01*
X195909159Y-131416147D01*
X195864288Y-131432602D01*
X195846000Y-131433200D01*
X195794053Y-131424201D01*
X195763573Y-131383168D01*
X195748947Y-131289047D01*
X195744559Y-131120782D01*
X195744400Y-131052200D01*
X195746799Y-130857399D01*
X195757741Y-130743102D01*
X195782840Y-130688252D01*
X195827711Y-130671797D01*
X195846000Y-130671200D01*
X195897946Y-130680198D01*
G37*
X195897946Y-130680198D02*
X195928426Y-130721231D01*
X195943052Y-130815352D01*
X195947440Y-130983617D01*
X195947600Y-131052200D01*
X195945200Y-131247000D01*
X195934258Y-131361297D01*
X195909159Y-131416147D01*
X195864288Y-131432602D01*
X195846000Y-131433200D01*
X195794053Y-131424201D01*
X195763573Y-131383168D01*
X195748947Y-131289047D01*
X195744559Y-131120782D01*
X195744400Y-131052200D01*
X195746799Y-130857399D01*
X195757741Y-130743102D01*
X195782840Y-130688252D01*
X195827711Y-130671797D01*
X195846000Y-130671200D01*
X195897946Y-130680198D01*
G36*
X195506288Y-130690130D02*
G01*
X195609930Y-130731035D01*
X195659922Y-130790427D01*
X195640745Y-130851475D01*
X195562713Y-130896124D01*
X195485065Y-130871545D01*
X195360918Y-130848304D01*
X195259111Y-130899258D01*
X195196449Y-130997151D01*
X195189735Y-131114730D01*
X195255770Y-131224740D01*
X195263304Y-131231248D01*
X195355697Y-131269748D01*
X195462646Y-131240315D01*
X195569406Y-131211148D01*
X195639850Y-131251889D01*
X195642222Y-131254704D01*
X195660855Y-131326704D01*
X195603003Y-131382841D01*
X195493167Y-131418431D01*
X195355845Y-131428787D01*
X195215537Y-131409226D01*
X195101107Y-131358185D01*
X194988936Y-131225425D01*
X194956437Y-131059456D01*
X195002286Y-130888404D01*
X195125158Y-130740395D01*
X195130397Y-130736315D01*
X195240828Y-130686972D01*
X195374689Y-130673510D01*
X195506288Y-130690130D01*
G37*
X195506288Y-130690130D02*
X195609930Y-130731035D01*
X195659922Y-130790427D01*
X195640745Y-130851475D01*
X195562713Y-130896124D01*
X195485065Y-130871545D01*
X195360918Y-130848304D01*
X195259111Y-130899258D01*
X195196449Y-130997151D01*
X195189735Y-131114730D01*
X195255770Y-131224740D01*
X195263304Y-131231248D01*
X195355697Y-131269748D01*
X195462646Y-131240315D01*
X195569406Y-131211148D01*
X195639850Y-131251889D01*
X195642222Y-131254704D01*
X195660855Y-131326704D01*
X195603003Y-131382841D01*
X195493167Y-131418431D01*
X195355845Y-131428787D01*
X195215537Y-131409226D01*
X195101107Y-131358185D01*
X194988936Y-131225425D01*
X194956437Y-131059456D01*
X195002286Y-130888404D01*
X195125158Y-130740395D01*
X195130397Y-130736315D01*
X195240828Y-130686972D01*
X195374689Y-130673510D01*
X195506288Y-130690130D01*
G36*
X194838869Y-130683847D02*
G01*
X194869387Y-130738100D01*
X194880026Y-130858429D01*
X194880800Y-130939296D01*
X194859215Y-131178477D01*
X194790032Y-131334036D01*
X194666610Y-131415327D01*
X194530192Y-131433200D01*
X194349696Y-131402846D01*
X194253673Y-131340299D01*
X194193701Y-131215097D01*
X194170154Y-131006812D01*
X194169600Y-130959299D01*
X194173893Y-130794501D01*
X194192190Y-130707511D01*
X194232611Y-130674707D01*
X194268664Y-130671200D01*
X194326074Y-130685189D01*
X194359116Y-130742609D01*
X194376876Y-130866640D01*
X194382964Y-130962806D01*
X194397978Y-131134221D01*
X194425899Y-131227970D01*
X194475252Y-131267893D01*
X194493712Y-131272604D01*
X194590377Y-131259919D01*
X194649171Y-131171049D01*
X194674806Y-130996729D01*
X194676822Y-130912500D01*
X194683285Y-130764793D01*
X194708604Y-130692971D01*
X194763554Y-130671641D01*
X194779200Y-130671200D01*
X194838869Y-130683847D01*
G37*
X194838869Y-130683847D02*
X194869387Y-130738100D01*
X194880026Y-130858429D01*
X194880800Y-130939296D01*
X194859215Y-131178477D01*
X194790032Y-131334036D01*
X194666610Y-131415327D01*
X194530192Y-131433200D01*
X194349696Y-131402846D01*
X194253673Y-131340299D01*
X194193701Y-131215097D01*
X194170154Y-131006812D01*
X194169600Y-130959299D01*
X194173893Y-130794501D01*
X194192190Y-130707511D01*
X194232611Y-130674707D01*
X194268664Y-130671200D01*
X194326074Y-130685189D01*
X194359116Y-130742609D01*
X194376876Y-130866640D01*
X194382964Y-130962806D01*
X194397978Y-131134221D01*
X194425899Y-131227970D01*
X194475252Y-131267893D01*
X194493712Y-131272604D01*
X194590377Y-131259919D01*
X194649171Y-131171049D01*
X194674806Y-130996729D01*
X194676822Y-130912500D01*
X194683285Y-130764793D01*
X194708604Y-130692971D01*
X194763554Y-130671641D01*
X194779200Y-130671200D01*
X194838869Y-130683847D01*
G36*
X193940183Y-130677052D02*
G01*
X194035205Y-130697797D01*
X194067398Y-130738218D01*
X194068000Y-130747400D01*
X194034446Y-130800384D01*
X193923218Y-130822217D01*
X193864800Y-130823600D01*
X193723508Y-130836182D01*
X193665287Y-130877893D01*
X193661600Y-130899800D01*
X193700155Y-130956158D01*
X193823206Y-130975862D01*
X193839400Y-130976000D01*
X193970903Y-130992523D01*
X194016878Y-131045260D01*
X194017200Y-131052200D01*
X193978644Y-131108558D01*
X193855593Y-131128262D01*
X193839400Y-131128400D01*
X193707896Y-131144923D01*
X193661921Y-131197660D01*
X193661600Y-131204600D01*
X193695153Y-131257584D01*
X193806381Y-131279417D01*
X193864800Y-131280800D01*
X194006091Y-131293382D01*
X194064312Y-131335093D01*
X194068000Y-131357000D01*
X194044591Y-131401245D01*
X193961611Y-131425001D01*
X193799924Y-131433049D01*
X193763200Y-131433200D01*
X193458400Y-131433200D01*
X193458400Y-130671200D01*
X193763200Y-130671200D01*
X193940183Y-130677052D01*
G37*
X193940183Y-130677052D02*
X194035205Y-130697797D01*
X194067398Y-130738218D01*
X194068000Y-130747400D01*
X194034446Y-130800384D01*
X193923218Y-130822217D01*
X193864800Y-130823600D01*
X193723508Y-130836182D01*
X193665287Y-130877893D01*
X193661600Y-130899800D01*
X193700155Y-130956158D01*
X193823206Y-130975862D01*
X193839400Y-130976000D01*
X193970903Y-130992523D01*
X194016878Y-131045260D01*
X194017200Y-131052200D01*
X193978644Y-131108558D01*
X193855593Y-131128262D01*
X193839400Y-131128400D01*
X193707896Y-131144923D01*
X193661921Y-131197660D01*
X193661600Y-131204600D01*
X193695153Y-131257584D01*
X193806381Y-131279417D01*
X193864800Y-131280800D01*
X194006091Y-131293382D01*
X194064312Y-131335093D01*
X194068000Y-131357000D01*
X194044591Y-131401245D01*
X193961611Y-131425001D01*
X193799924Y-131433049D01*
X193763200Y-131433200D01*
X193458400Y-131433200D01*
X193458400Y-130671200D01*
X193763200Y-130671200D01*
X193940183Y-130677052D01*
G36*
X193007145Y-130682321D02*
G01*
X193037808Y-130731175D01*
X193050132Y-130840998D01*
X193052000Y-130976000D01*
X193052000Y-131280800D01*
X193204400Y-131280800D01*
X193325391Y-131303518D01*
X193356800Y-131357000D01*
X193329608Y-131404919D01*
X193235463Y-131428323D01*
X193102800Y-131433200D01*
X192848800Y-131433200D01*
X192848800Y-131052200D01*
X192851199Y-130857399D01*
X192862141Y-130743102D01*
X192887240Y-130688252D01*
X192932111Y-130671797D01*
X192950400Y-130671200D01*
X193007145Y-130682321D01*
G37*
X193007145Y-130682321D02*
X193037808Y-130731175D01*
X193050132Y-130840998D01*
X193052000Y-130976000D01*
X193052000Y-131280800D01*
X193204400Y-131280800D01*
X193325391Y-131303518D01*
X193356800Y-131357000D01*
X193329608Y-131404919D01*
X193235463Y-131428323D01*
X193102800Y-131433200D01*
X192848800Y-131433200D01*
X192848800Y-131052200D01*
X192851199Y-130857399D01*
X192862141Y-130743102D01*
X192887240Y-130688252D01*
X192932111Y-130671797D01*
X192950400Y-130671200D01*
X193007145Y-130682321D01*
G36*
X192705462Y-130689672D02*
G01*
X192743814Y-130722205D01*
X192747200Y-130744975D01*
X192716385Y-130799054D01*
X192611831Y-130821740D01*
X192544000Y-130823600D01*
X192402708Y-130836182D01*
X192344487Y-130877893D01*
X192340800Y-130899800D01*
X192379355Y-130956158D01*
X192502406Y-130975862D01*
X192518600Y-130976000D01*
X192650103Y-130992523D01*
X192696078Y-131045260D01*
X192696400Y-131052200D01*
X192657844Y-131108558D01*
X192534793Y-131128262D01*
X192518600Y-131128400D01*
X192387096Y-131144923D01*
X192341121Y-131197660D01*
X192340800Y-131204600D01*
X192374353Y-131257584D01*
X192485581Y-131279417D01*
X192544000Y-131280800D01*
X192685291Y-131293382D01*
X192743512Y-131335093D01*
X192747200Y-131357000D01*
X192725263Y-131399618D01*
X192646830Y-131423370D01*
X192492968Y-131432598D01*
X192414774Y-131433200D01*
X192082348Y-131433200D01*
X192112200Y-130696600D01*
X192429700Y-130681475D01*
X192607663Y-130677476D01*
X192705462Y-130689672D01*
G37*
X192705462Y-130689672D02*
X192743814Y-130722205D01*
X192747200Y-130744975D01*
X192716385Y-130799054D01*
X192611831Y-130821740D01*
X192544000Y-130823600D01*
X192402708Y-130836182D01*
X192344487Y-130877893D01*
X192340800Y-130899800D01*
X192379355Y-130956158D01*
X192502406Y-130975862D01*
X192518600Y-130976000D01*
X192650103Y-130992523D01*
X192696078Y-131045260D01*
X192696400Y-131052200D01*
X192657844Y-131108558D01*
X192534793Y-131128262D01*
X192518600Y-131128400D01*
X192387096Y-131144923D01*
X192341121Y-131197660D01*
X192340800Y-131204600D01*
X192374353Y-131257584D01*
X192485581Y-131279417D01*
X192544000Y-131280800D01*
X192685291Y-131293382D01*
X192743512Y-131335093D01*
X192747200Y-131357000D01*
X192725263Y-131399618D01*
X192646830Y-131423370D01*
X192492968Y-131432598D01*
X192414774Y-131433200D01*
X192082348Y-131433200D01*
X192112200Y-130696600D01*
X192429700Y-130681475D01*
X192607663Y-130677476D01*
X192705462Y-130689672D01*
G36*
X191451782Y-130706056D02*
G01*
X191497498Y-130795959D01*
X191540976Y-130940258D01*
X191585182Y-131062659D01*
X191641554Y-131204600D01*
X191728605Y-130950600D01*
X191796418Y-130787523D01*
X191866765Y-130703622D01*
X191931485Y-130679625D01*
X192013236Y-130682438D01*
X192028958Y-130707117D01*
X192003522Y-130774170D01*
X191953982Y-130908478D01*
X191890769Y-131081749D01*
X191886905Y-131092392D01*
X191815962Y-131274177D01*
X191758672Y-131378205D01*
X191700834Y-131424430D01*
X191644348Y-131433200D01*
X191526530Y-131388595D01*
X191481122Y-131318900D01*
X191437355Y-131207282D01*
X191373383Y-131045399D01*
X191330720Y-130937900D01*
X191224682Y-130671200D01*
X191345434Y-130671200D01*
X191451782Y-130706056D01*
G37*
X191451782Y-130706056D02*
X191497498Y-130795959D01*
X191540976Y-130940258D01*
X191585182Y-131062659D01*
X191641554Y-131204600D01*
X191728605Y-130950600D01*
X191796418Y-130787523D01*
X191866765Y-130703622D01*
X191931485Y-130679625D01*
X192013236Y-130682438D01*
X192028958Y-130707117D01*
X192003522Y-130774170D01*
X191953982Y-130908478D01*
X191890769Y-131081749D01*
X191886905Y-131092392D01*
X191815962Y-131274177D01*
X191758672Y-131378205D01*
X191700834Y-131424430D01*
X191644348Y-131433200D01*
X191526530Y-131388595D01*
X191481122Y-131318900D01*
X191437355Y-131207282D01*
X191373383Y-131045399D01*
X191330720Y-130937900D01*
X191224682Y-130671200D01*
X191345434Y-130671200D01*
X191451782Y-130706056D01*
G36*
X190638434Y-130685777D02*
G01*
X190803754Y-130760902D01*
X190844509Y-130795890D01*
X190949250Y-130957557D01*
X190953290Y-131129806D01*
X190863912Y-131299349D01*
X190725481Y-131400630D01*
X190544450Y-131436469D01*
X190358992Y-131403051D01*
X190275107Y-131358185D01*
X190162936Y-131225425D01*
X190130437Y-131059456D01*
X190134626Y-131043827D01*
X190359600Y-131043827D01*
X190394616Y-131182304D01*
X190480359Y-131262126D01*
X190587867Y-131274757D01*
X190688183Y-131211662D01*
X190725424Y-131151646D01*
X190756627Y-131044505D01*
X190718416Y-130959622D01*
X190679724Y-130917946D01*
X190588058Y-130848297D01*
X190502957Y-130854024D01*
X190467389Y-130871087D01*
X190380278Y-130963561D01*
X190359600Y-131043827D01*
X190134626Y-131043827D01*
X190176286Y-130888404D01*
X190299158Y-130740395D01*
X190304397Y-130736315D01*
X190457973Y-130676036D01*
X190638434Y-130685777D01*
G37*
X190638434Y-130685777D02*
X190803754Y-130760902D01*
X190844509Y-130795890D01*
X190949250Y-130957557D01*
X190953290Y-131129806D01*
X190863912Y-131299349D01*
X190725481Y-131400630D01*
X190544450Y-131436469D01*
X190358992Y-131403051D01*
X190275107Y-131358185D01*
X190162936Y-131225425D01*
X190130437Y-131059456D01*
X190134626Y-131043827D01*
X190359600Y-131043827D01*
X190394616Y-131182304D01*
X190480359Y-131262126D01*
X190587867Y-131274757D01*
X190688183Y-131211662D01*
X190725424Y-131151646D01*
X190756627Y-131044505D01*
X190718416Y-130959622D01*
X190679724Y-130917946D01*
X190588058Y-130848297D01*
X190502957Y-130854024D01*
X190467389Y-130871087D01*
X190380278Y-130963561D01*
X190359600Y-131043827D01*
X190134626Y-131043827D01*
X190176286Y-130888404D01*
X190299158Y-130740395D01*
X190304397Y-130736315D01*
X190457973Y-130676036D01*
X190638434Y-130685777D01*
G36*
X189568554Y-130693374D02*
G01*
X189595716Y-130777633D01*
X189597600Y-130833565D01*
X189597600Y-130995930D01*
X189770028Y-130828806D01*
X189893323Y-130730460D01*
X190000511Y-130680688D01*
X190032551Y-130679140D01*
X190082920Y-130699150D01*
X190074259Y-130744345D01*
X190001084Y-130837857D01*
X189992576Y-130847773D01*
X189862506Y-130998946D01*
X190161280Y-131433200D01*
X190033011Y-131433200D01*
X189895427Y-131385509D01*
X189821528Y-131306200D01*
X189748945Y-131215618D01*
X189694325Y-131179200D01*
X189650588Y-131222237D01*
X189618460Y-131306200D01*
X189557570Y-131410020D01*
X189490492Y-131433200D01*
X189441215Y-131422733D01*
X189412290Y-131377441D01*
X189398463Y-131276484D01*
X189394478Y-131099023D01*
X189394400Y-131052200D01*
X189396799Y-130857399D01*
X189407741Y-130743102D01*
X189432840Y-130688252D01*
X189477711Y-130671797D01*
X189496000Y-130671200D01*
X189568554Y-130693374D01*
G37*
X189568554Y-130693374D02*
X189595716Y-130777633D01*
X189597600Y-130833565D01*
X189597600Y-130995930D01*
X189770028Y-130828806D01*
X189893323Y-130730460D01*
X190000511Y-130680688D01*
X190032551Y-130679140D01*
X190082920Y-130699150D01*
X190074259Y-130744345D01*
X190001084Y-130837857D01*
X189992576Y-130847773D01*
X189862506Y-130998946D01*
X190161280Y-131433200D01*
X190033011Y-131433200D01*
X189895427Y-131385509D01*
X189821528Y-131306200D01*
X189748945Y-131215618D01*
X189694325Y-131179200D01*
X189650588Y-131222237D01*
X189618460Y-131306200D01*
X189557570Y-131410020D01*
X189490492Y-131433200D01*
X189441215Y-131422733D01*
X189412290Y-131377441D01*
X189398463Y-131276484D01*
X189394478Y-131099023D01*
X189394400Y-131052200D01*
X189396799Y-130857399D01*
X189407741Y-130743102D01*
X189432840Y-130688252D01*
X189477711Y-130671797D01*
X189496000Y-130671200D01*
X189568554Y-130693374D01*
G36*
X189154216Y-130689197D02*
G01*
X189258946Y-130728614D01*
X189310363Y-130787337D01*
X189290745Y-130851475D01*
X189212713Y-130896124D01*
X189135065Y-130871545D01*
X189010918Y-130848304D01*
X188909111Y-130899258D01*
X188846449Y-130997151D01*
X188839735Y-131114730D01*
X188905770Y-131224740D01*
X188913304Y-131231248D01*
X189005697Y-131269748D01*
X189112646Y-131240315D01*
X189219406Y-131211148D01*
X189289850Y-131251889D01*
X189292222Y-131254704D01*
X189307626Y-131324458D01*
X189247352Y-131381039D01*
X189137042Y-131418784D01*
X189002340Y-131432032D01*
X188868890Y-131415121D01*
X188771396Y-131369700D01*
X188660046Y-131228195D01*
X188624102Y-131052889D01*
X188663454Y-130877948D01*
X188773456Y-130740924D01*
X188886141Y-130689939D01*
X189021504Y-130674501D01*
X189154216Y-130689197D01*
G37*
X189154216Y-130689197D02*
X189258946Y-130728614D01*
X189310363Y-130787337D01*
X189290745Y-130851475D01*
X189212713Y-130896124D01*
X189135065Y-130871545D01*
X189010918Y-130848304D01*
X188909111Y-130899258D01*
X188846449Y-130997151D01*
X188839735Y-131114730D01*
X188905770Y-131224740D01*
X188913304Y-131231248D01*
X189005697Y-131269748D01*
X189112646Y-131240315D01*
X189219406Y-131211148D01*
X189289850Y-131251889D01*
X189292222Y-131254704D01*
X189307626Y-131324458D01*
X189247352Y-131381039D01*
X189137042Y-131418784D01*
X189002340Y-131432032D01*
X188868890Y-131415121D01*
X188771396Y-131369700D01*
X188660046Y-131228195D01*
X188624102Y-131052889D01*
X188663454Y-130877948D01*
X188773456Y-130740924D01*
X188886141Y-130689939D01*
X189021504Y-130674501D01*
X189154216Y-130689197D01*
G36*
X188481146Y-130680198D02*
G01*
X188511626Y-130721231D01*
X188526252Y-130815352D01*
X188530640Y-130983617D01*
X188530800Y-131052200D01*
X188528400Y-131247000D01*
X188517458Y-131361297D01*
X188492359Y-131416147D01*
X188447488Y-131432602D01*
X188429200Y-131433200D01*
X188377253Y-131424201D01*
X188346773Y-131383168D01*
X188332147Y-131289047D01*
X188327759Y-131120782D01*
X188327600Y-131052200D01*
X188329999Y-130857399D01*
X188340941Y-130743102D01*
X188366040Y-130688252D01*
X188410911Y-130671797D01*
X188429200Y-130671200D01*
X188481146Y-130680198D01*
G37*
X188481146Y-130680198D02*
X188511626Y-130721231D01*
X188526252Y-130815352D01*
X188530640Y-130983617D01*
X188530800Y-131052200D01*
X188528400Y-131247000D01*
X188517458Y-131361297D01*
X188492359Y-131416147D01*
X188447488Y-131432602D01*
X188429200Y-131433200D01*
X188377253Y-131424201D01*
X188346773Y-131383168D01*
X188332147Y-131289047D01*
X188327759Y-131120782D01*
X188327600Y-131052200D01*
X188329999Y-130857399D01*
X188340941Y-130743102D01*
X188366040Y-130688252D01*
X188410911Y-130671797D01*
X188429200Y-130671200D01*
X188481146Y-130680198D01*
G36*
X188127047Y-130680940D02*
G01*
X188156698Y-130724129D01*
X188170902Y-130821718D01*
X188175084Y-130994659D01*
X188175200Y-131052200D01*
X188172587Y-131247509D01*
X188161219Y-131362145D01*
X188135801Y-131416972D01*
X188091038Y-131432858D01*
X188078527Y-131433200D01*
X187990907Y-131395991D01*
X187879181Y-131301678D01*
X187826230Y-131242700D01*
X187670606Y-131052200D01*
X187668903Y-131242700D01*
X187657785Y-131370690D01*
X187617860Y-131424863D01*
X187565600Y-131433200D01*
X187513653Y-131424201D01*
X187483173Y-131383168D01*
X187468547Y-131289047D01*
X187464159Y-131120782D01*
X187464000Y-131052200D01*
X187466990Y-130855767D01*
X187479133Y-130740516D01*
X187505183Y-130686126D01*
X187549896Y-130672275D01*
X187552900Y-130672284D01*
X187631399Y-130711832D01*
X187734127Y-130811680D01*
X187794200Y-130888184D01*
X187946600Y-131103000D01*
X187962220Y-130887100D01*
X187981435Y-130747145D01*
X188020878Y-130683658D01*
X188076520Y-130671200D01*
X188127047Y-130680940D01*
G37*
X188127047Y-130680940D02*
X188156698Y-130724129D01*
X188170902Y-130821718D01*
X188175084Y-130994659D01*
X188175200Y-131052200D01*
X188172587Y-131247509D01*
X188161219Y-131362145D01*
X188135801Y-131416972D01*
X188091038Y-131432858D01*
X188078527Y-131433200D01*
X187990907Y-131395991D01*
X187879181Y-131301678D01*
X187826230Y-131242700D01*
X187670606Y-131052200D01*
X187668903Y-131242700D01*
X187657785Y-131370690D01*
X187617860Y-131424863D01*
X187565600Y-131433200D01*
X187513653Y-131424201D01*
X187483173Y-131383168D01*
X187468547Y-131289047D01*
X187464159Y-131120782D01*
X187464000Y-131052200D01*
X187466990Y-130855767D01*
X187479133Y-130740516D01*
X187505183Y-130686126D01*
X187549896Y-130672275D01*
X187552900Y-130672284D01*
X187631399Y-130711832D01*
X187734127Y-130811680D01*
X187794200Y-130888184D01*
X187946600Y-131103000D01*
X187962220Y-130887100D01*
X187981435Y-130747145D01*
X188020878Y-130683658D01*
X188076520Y-130671200D01*
X188127047Y-130680940D01*
G36*
X187261946Y-130680198D02*
G01*
X187292426Y-130721231D01*
X187307052Y-130815352D01*
X187311440Y-130983617D01*
X187311600Y-131052200D01*
X187309057Y-131247330D01*
X187297831Y-131361847D01*
X187272525Y-131416685D01*
X187227741Y-131432777D01*
X187213374Y-131433200D01*
X187131910Y-131397103D01*
X187099074Y-131293500D01*
X187062690Y-131184695D01*
X186966594Y-131140919D01*
X186943300Y-131137725D01*
X186845501Y-131138118D01*
X186808547Y-131190006D01*
X186803600Y-131277425D01*
X186788390Y-131390480D01*
X186731375Y-131431179D01*
X186702000Y-131433200D01*
X186650053Y-131424201D01*
X186619573Y-131383168D01*
X186604947Y-131289047D01*
X186600559Y-131120782D01*
X186600400Y-131052200D01*
X186602799Y-130857399D01*
X186613741Y-130743102D01*
X186638840Y-130688252D01*
X186683711Y-130671797D01*
X186702000Y-130671200D01*
X186776368Y-130695149D01*
X186802551Y-130784259D01*
X186803600Y-130823600D01*
X186816187Y-130931544D01*
X186875563Y-130971331D01*
X186956000Y-130976000D01*
X187063944Y-130963412D01*
X187103731Y-130904036D01*
X187108400Y-130823600D01*
X187124366Y-130712047D01*
X187183773Y-130672772D01*
X187210000Y-130671200D01*
X187261946Y-130680198D01*
G37*
X187261946Y-130680198D02*
X187292426Y-130721231D01*
X187307052Y-130815352D01*
X187311440Y-130983617D01*
X187311600Y-131052200D01*
X187309057Y-131247330D01*
X187297831Y-131361847D01*
X187272525Y-131416685D01*
X187227741Y-131432777D01*
X187213374Y-131433200D01*
X187131910Y-131397103D01*
X187099074Y-131293500D01*
X187062690Y-131184695D01*
X186966594Y-131140919D01*
X186943300Y-131137725D01*
X186845501Y-131138118D01*
X186808547Y-131190006D01*
X186803600Y-131277425D01*
X186788390Y-131390480D01*
X186731375Y-131431179D01*
X186702000Y-131433200D01*
X186650053Y-131424201D01*
X186619573Y-131383168D01*
X186604947Y-131289047D01*
X186600559Y-131120782D01*
X186600400Y-131052200D01*
X186602799Y-130857399D01*
X186613741Y-130743102D01*
X186638840Y-130688252D01*
X186683711Y-130671797D01*
X186702000Y-130671200D01*
X186776368Y-130695149D01*
X186802551Y-130784259D01*
X186803600Y-130823600D01*
X186816187Y-130931544D01*
X186875563Y-130971331D01*
X186956000Y-130976000D01*
X187063944Y-130963412D01*
X187103731Y-130904036D01*
X187108400Y-130823600D01*
X187124366Y-130712047D01*
X187183773Y-130672772D01*
X187210000Y-130671200D01*
X187261946Y-130680198D01*
G36*
X186322220Y-130677535D02*
G01*
X186417908Y-130699362D01*
X186447903Y-130740913D01*
X186448000Y-130744333D01*
X186399922Y-130802872D01*
X186261426Y-130833233D01*
X186114416Y-130862517D01*
X186052834Y-130907153D01*
X186079154Y-130950206D01*
X186195852Y-130974743D01*
X186240566Y-130976000D01*
X186390469Y-130995391D01*
X186454235Y-131040688D01*
X186429379Y-131092574D01*
X186313414Y-131131733D01*
X186261426Y-131138033D01*
X186108357Y-131167974D01*
X186050624Y-131212699D01*
X186087695Y-131255491D01*
X186219040Y-131279636D01*
X186265966Y-131280800D01*
X186418170Y-131290424D01*
X186488424Y-131323263D01*
X186498800Y-131357000D01*
X186476755Y-131399741D01*
X186397986Y-131423497D01*
X186243539Y-131432642D01*
X186168600Y-131433200D01*
X185838400Y-131433200D01*
X185838400Y-130671200D01*
X186143200Y-130671200D01*
X186322220Y-130677535D01*
G37*
X186322220Y-130677535D02*
X186417908Y-130699362D01*
X186447903Y-130740913D01*
X186448000Y-130744333D01*
X186399922Y-130802872D01*
X186261426Y-130833233D01*
X186114416Y-130862517D01*
X186052834Y-130907153D01*
X186079154Y-130950206D01*
X186195852Y-130974743D01*
X186240566Y-130976000D01*
X186390469Y-130995391D01*
X186454235Y-131040688D01*
X186429379Y-131092574D01*
X186313414Y-131131733D01*
X186261426Y-131138033D01*
X186108357Y-131167974D01*
X186050624Y-131212699D01*
X186087695Y-131255491D01*
X186219040Y-131279636D01*
X186265966Y-131280800D01*
X186418170Y-131290424D01*
X186488424Y-131323263D01*
X186498800Y-131357000D01*
X186476755Y-131399741D01*
X186397986Y-131423497D01*
X186243539Y-131432642D01*
X186168600Y-131433200D01*
X185838400Y-131433200D01*
X185838400Y-130671200D01*
X186143200Y-130671200D01*
X186322220Y-130677535D01*
G36*
X185642614Y-130676287D02*
G01*
X185745556Y-130694464D01*
X185785182Y-130730106D01*
X185787600Y-130747400D01*
X185745248Y-130809456D01*
X185686000Y-130823600D01*
X185629254Y-130834721D01*
X185598591Y-130883575D01*
X185586267Y-130993398D01*
X185584400Y-131128400D01*
X185581710Y-131297324D01*
X185567016Y-131388526D01*
X185530377Y-131425863D01*
X185461851Y-131433193D01*
X185457400Y-131433200D01*
X185387014Y-131426746D01*
X185349014Y-131391480D01*
X185333456Y-131303545D01*
X185330402Y-131139083D01*
X185330400Y-131128400D01*
X185326692Y-130958163D01*
X185310408Y-130866175D01*
X185273800Y-130829203D01*
X185228800Y-130823600D01*
X185146057Y-130791836D01*
X185127200Y-130747400D01*
X185149244Y-130704658D01*
X185228013Y-130680902D01*
X185382460Y-130671757D01*
X185457400Y-130671200D01*
X185642614Y-130676287D01*
G37*
X185642614Y-130676287D02*
X185745556Y-130694464D01*
X185785182Y-130730106D01*
X185787600Y-130747400D01*
X185745248Y-130809456D01*
X185686000Y-130823600D01*
X185629254Y-130834721D01*
X185598591Y-130883575D01*
X185586267Y-130993398D01*
X185584400Y-131128400D01*
X185581710Y-131297324D01*
X185567016Y-131388526D01*
X185530377Y-131425863D01*
X185461851Y-131433193D01*
X185457400Y-131433200D01*
X185387014Y-131426746D01*
X185349014Y-131391480D01*
X185333456Y-131303545D01*
X185330402Y-131139083D01*
X185330400Y-131128400D01*
X185326692Y-130958163D01*
X185310408Y-130866175D01*
X185273800Y-130829203D01*
X185228800Y-130823600D01*
X185146057Y-130791836D01*
X185127200Y-130747400D01*
X185149244Y-130704658D01*
X185228013Y-130680902D01*
X185382460Y-130671757D01*
X185457400Y-130671200D01*
X185642614Y-130676287D01*
G36*
X183738995Y-131670514D02*
G01*
X183791664Y-131857672D01*
X183798928Y-131968526D01*
X183747910Y-132023024D01*
X183625731Y-132041115D01*
X183498672Y-132042800D01*
X183190944Y-132042800D01*
X183679400Y-131476028D01*
X183738995Y-131670514D01*
G37*
X183738995Y-131670514D02*
X183791664Y-131857672D01*
X183798928Y-131968526D01*
X183747910Y-132023024D01*
X183625731Y-132041115D01*
X183498672Y-132042800D01*
X183190944Y-132042800D01*
X183679400Y-131476028D01*
X183738995Y-131670514D01*
G36*
X201989343Y-131960147D02*
G01*
X201992800Y-131986814D01*
X201969339Y-132054246D01*
X201909547Y-132175307D01*
X201866411Y-132253514D01*
X201791464Y-132406743D01*
X201745825Y-132542657D01*
X201739411Y-132588900D01*
X201719791Y-132678128D01*
X201688000Y-132703200D01*
X201647492Y-132660409D01*
X201637200Y-132595774D01*
X201617980Y-132506178D01*
X201569195Y-132381301D01*
X201504151Y-132246365D01*
X201436156Y-132126588D01*
X201378517Y-132047189D01*
X201344543Y-132033387D01*
X201342623Y-132037528D01*
X201283045Y-132084353D01*
X201226566Y-132093600D01*
X201172027Y-132105939D01*
X201142555Y-132158279D01*
X201130808Y-132273603D01*
X201129200Y-132398400D01*
X201123347Y-132575383D01*
X201102602Y-132670405D01*
X201062181Y-132702598D01*
X201053000Y-132703200D01*
X201008529Y-132679579D01*
X200984781Y-132595953D01*
X200976910Y-132433172D01*
X200976800Y-132401933D01*
X200973126Y-132232580D01*
X200956075Y-132139601D01*
X200916597Y-132097862D01*
X200862500Y-132084433D01*
X200758496Y-132057859D01*
X200744314Y-132025389D01*
X200808858Y-131992876D01*
X200941030Y-131966175D01*
X201114069Y-131951723D01*
X201304057Y-131945797D01*
X201419226Y-131952809D01*
X201486255Y-131981119D01*
X201531820Y-132039086D01*
X201559874Y-132091423D01*
X201638445Y-132211914D01*
X201707281Y-132233572D01*
X201779712Y-132156511D01*
X201815000Y-132093600D01*
X201885614Y-131988929D01*
X201950668Y-131940277D01*
X201989343Y-131960147D01*
G37*
X201989343Y-131960147D02*
X201992800Y-131986814D01*
X201969339Y-132054246D01*
X201909547Y-132175307D01*
X201866411Y-132253514D01*
X201791464Y-132406743D01*
X201745825Y-132542657D01*
X201739411Y-132588900D01*
X201719791Y-132678128D01*
X201688000Y-132703200D01*
X201647492Y-132660409D01*
X201637200Y-132595774D01*
X201617980Y-132506178D01*
X201569195Y-132381301D01*
X201504151Y-132246365D01*
X201436156Y-132126588D01*
X201378517Y-132047189D01*
X201344543Y-132033387D01*
X201342623Y-132037528D01*
X201283045Y-132084353D01*
X201226566Y-132093600D01*
X201172027Y-132105939D01*
X201142555Y-132158279D01*
X201130808Y-132273603D01*
X201129200Y-132398400D01*
X201123347Y-132575383D01*
X201102602Y-132670405D01*
X201062181Y-132702598D01*
X201053000Y-132703200D01*
X201008529Y-132679579D01*
X200984781Y-132595953D01*
X200976910Y-132433172D01*
X200976800Y-132401933D01*
X200973126Y-132232580D01*
X200956075Y-132139601D01*
X200916597Y-132097862D01*
X200862500Y-132084433D01*
X200758496Y-132057859D01*
X200744314Y-132025389D01*
X200808858Y-131992876D01*
X200941030Y-131966175D01*
X201114069Y-131951723D01*
X201304057Y-131945797D01*
X201419226Y-131952809D01*
X201486255Y-131981119D01*
X201531820Y-132039086D01*
X201559874Y-132091423D01*
X201638445Y-132211914D01*
X201707281Y-132233572D01*
X201779712Y-132156511D01*
X201815000Y-132093600D01*
X201885614Y-131988929D01*
X201950668Y-131940277D01*
X201989343Y-131960147D01*
G36*
X200583100Y-131953900D02*
G01*
X200622844Y-132018881D01*
X200643392Y-132181717D01*
X200646600Y-132322200D01*
X200637136Y-132542624D01*
X200608602Y-132664466D01*
X200583100Y-132690500D01*
X200549062Y-132673369D01*
X200528857Y-132585639D01*
X200520274Y-132414493D01*
X200519600Y-132322200D01*
X200524242Y-132114985D01*
X200539644Y-131996193D01*
X200568015Y-131953007D01*
X200583100Y-131953900D01*
G37*
X200583100Y-131953900D02*
X200622844Y-132018881D01*
X200643392Y-132181717D01*
X200646600Y-132322200D01*
X200637136Y-132542624D01*
X200608602Y-132664466D01*
X200583100Y-132690500D01*
X200549062Y-132673369D01*
X200528857Y-132585639D01*
X200520274Y-132414493D01*
X200519600Y-132322200D01*
X200524242Y-132114985D01*
X200539644Y-131996193D01*
X200568015Y-131953007D01*
X200583100Y-131953900D01*
G36*
X200310208Y-131987098D02*
G01*
X200360239Y-132046849D01*
X200326238Y-132092511D01*
X200225773Y-132109724D01*
X200166236Y-132104764D01*
X200047954Y-132104760D01*
X200015438Y-132143681D01*
X200067011Y-132208722D01*
X200189400Y-132281630D01*
X200323289Y-132381153D01*
X200370569Y-132500415D01*
X200325313Y-132621124D01*
X200306240Y-132642240D01*
X200196262Y-132692055D01*
X200045053Y-132695225D01*
X199902014Y-132651014D01*
X199897300Y-132648330D01*
X199816559Y-132582722D01*
X199829569Y-132541064D01*
X199930054Y-132529472D01*
X200011600Y-132536922D01*
X200158538Y-132539956D01*
X200214375Y-132505592D01*
X200176819Y-132445781D01*
X200043579Y-132372475D01*
X200043161Y-132372300D01*
X199890384Y-132279419D01*
X199833401Y-132171678D01*
X199874885Y-132055006D01*
X199891248Y-132035453D01*
X200018510Y-131960614D01*
X200179685Y-131945205D01*
X200310208Y-131987098D01*
G37*
X200310208Y-131987098D02*
X200360239Y-132046849D01*
X200326238Y-132092511D01*
X200225773Y-132109724D01*
X200166236Y-132104764D01*
X200047954Y-132104760D01*
X200015438Y-132143681D01*
X200067011Y-132208722D01*
X200189400Y-132281630D01*
X200323289Y-132381153D01*
X200370569Y-132500415D01*
X200325313Y-132621124D01*
X200306240Y-132642240D01*
X200196262Y-132692055D01*
X200045053Y-132695225D01*
X199902014Y-132651014D01*
X199897300Y-132648330D01*
X199816559Y-132582722D01*
X199829569Y-132541064D01*
X199930054Y-132529472D01*
X200011600Y-132536922D01*
X200158538Y-132539956D01*
X200214375Y-132505592D01*
X200176819Y-132445781D01*
X200043579Y-132372475D01*
X200043161Y-132372300D01*
X199890384Y-132279419D01*
X199833401Y-132171678D01*
X199874885Y-132055006D01*
X199891248Y-132035453D01*
X200018510Y-131960614D01*
X200179685Y-131945205D01*
X200310208Y-131987098D01*
G36*
X199493065Y-131970960D02*
G01*
X199632462Y-132051286D01*
X199696506Y-132168745D01*
X199674416Y-132309905D01*
X199636306Y-132373786D01*
X199592759Y-132459693D01*
X199616285Y-132544677D01*
X199642148Y-132586696D01*
X199690376Y-132670610D01*
X199677020Y-132700206D01*
X199638229Y-132703200D01*
X199552557Y-132662713D01*
X199503600Y-132601600D01*
X199419795Y-132520210D01*
X199349412Y-132500000D01*
X199265768Y-132536796D01*
X199249600Y-132601600D01*
X199217836Y-132684342D01*
X199173400Y-132703200D01*
X199133206Y-132683241D01*
X199109613Y-132611118D01*
X199098945Y-132468456D01*
X199097200Y-132322200D01*
X199097200Y-132223974D01*
X199249600Y-132223974D01*
X199264241Y-132316863D01*
X199329220Y-132342483D01*
X199389300Y-132338274D01*
X199504170Y-132296181D01*
X199545233Y-132207900D01*
X199541222Y-132127379D01*
X199479254Y-132096946D01*
X199405533Y-132093600D01*
X199295178Y-132106360D01*
X199254002Y-132161925D01*
X199249600Y-132223974D01*
X199097200Y-132223974D01*
X199097200Y-131941200D01*
X199289096Y-131941200D01*
X199493065Y-131970960D01*
G37*
X199493065Y-131970960D02*
X199632462Y-132051286D01*
X199696506Y-132168745D01*
X199674416Y-132309905D01*
X199636306Y-132373786D01*
X199592759Y-132459693D01*
X199616285Y-132544677D01*
X199642148Y-132586696D01*
X199690376Y-132670610D01*
X199677020Y-132700206D01*
X199638229Y-132703200D01*
X199552557Y-132662713D01*
X199503600Y-132601600D01*
X199419795Y-132520210D01*
X199349412Y-132500000D01*
X199265768Y-132536796D01*
X199249600Y-132601600D01*
X199217836Y-132684342D01*
X199173400Y-132703200D01*
X199133206Y-132683241D01*
X199109613Y-132611118D01*
X199098945Y-132468456D01*
X199097200Y-132322200D01*
X199097200Y-132223974D01*
X199249600Y-132223974D01*
X199264241Y-132316863D01*
X199329220Y-132342483D01*
X199389300Y-132338274D01*
X199504170Y-132296181D01*
X199545233Y-132207900D01*
X199541222Y-132127379D01*
X199479254Y-132096946D01*
X199405533Y-132093600D01*
X199295178Y-132106360D01*
X199254002Y-132161925D01*
X199249600Y-132223974D01*
X199097200Y-132223974D01*
X199097200Y-131941200D01*
X199289096Y-131941200D01*
X199493065Y-131970960D01*
G36*
X198833894Y-131948041D02*
G01*
X198920643Y-131972045D01*
X198944800Y-132017400D01*
X198911246Y-132070384D01*
X198800018Y-132092217D01*
X198741600Y-132093600D01*
X198600308Y-132106182D01*
X198542087Y-132147893D01*
X198538400Y-132169800D01*
X198576955Y-132226158D01*
X198700006Y-132245862D01*
X198716200Y-132246000D01*
X198847703Y-132262523D01*
X198893678Y-132315260D01*
X198894000Y-132322200D01*
X198855444Y-132378558D01*
X198732393Y-132398262D01*
X198716200Y-132398400D01*
X198584696Y-132414923D01*
X198538721Y-132467660D01*
X198538400Y-132474600D01*
X198571953Y-132527584D01*
X198683181Y-132549417D01*
X198741600Y-132550800D01*
X198882891Y-132563382D01*
X198941112Y-132605093D01*
X198944800Y-132627000D01*
X198919716Y-132672953D01*
X198831698Y-132696611D01*
X198665400Y-132703200D01*
X198386000Y-132703200D01*
X198386000Y-131941200D01*
X198665400Y-131941200D01*
X198833894Y-131948041D01*
G37*
X198833894Y-131948041D02*
X198920643Y-131972045D01*
X198944800Y-132017400D01*
X198911246Y-132070384D01*
X198800018Y-132092217D01*
X198741600Y-132093600D01*
X198600308Y-132106182D01*
X198542087Y-132147893D01*
X198538400Y-132169800D01*
X198576955Y-132226158D01*
X198700006Y-132245862D01*
X198716200Y-132246000D01*
X198847703Y-132262523D01*
X198893678Y-132315260D01*
X198894000Y-132322200D01*
X198855444Y-132378558D01*
X198732393Y-132398262D01*
X198716200Y-132398400D01*
X198584696Y-132414923D01*
X198538721Y-132467660D01*
X198538400Y-132474600D01*
X198571953Y-132527584D01*
X198683181Y-132549417D01*
X198741600Y-132550800D01*
X198882891Y-132563382D01*
X198941112Y-132605093D01*
X198944800Y-132627000D01*
X198919716Y-132672953D01*
X198831698Y-132696611D01*
X198665400Y-132703200D01*
X198386000Y-132703200D01*
X198386000Y-131941200D01*
X198665400Y-131941200D01*
X198833894Y-131948041D01*
G36*
X197702527Y-131984962D02*
G01*
X197769721Y-132096763D01*
X197805994Y-132182500D01*
X197876838Y-132362079D01*
X197928987Y-132447421D01*
X197973238Y-132441515D01*
X198020388Y-132347348D01*
X198054086Y-132251159D01*
X198131993Y-132054861D01*
X198202571Y-131955575D01*
X198264377Y-131955271D01*
X198267989Y-131958656D01*
X198268686Y-132021597D01*
X198232755Y-132145477D01*
X198172454Y-132302168D01*
X198100037Y-132463543D01*
X198027762Y-132601472D01*
X197967883Y-132687828D01*
X197943582Y-132703200D01*
X197880037Y-132660513D01*
X197812413Y-132554925D01*
X197799207Y-132525400D01*
X197726383Y-132349508D01*
X197651811Y-132169420D01*
X197649400Y-132163596D01*
X197595262Y-132029348D01*
X197579209Y-131964154D01*
X197600770Y-131943071D01*
X197645198Y-131941200D01*
X197702527Y-131984962D01*
G37*
X197702527Y-131984962D02*
X197769721Y-132096763D01*
X197805994Y-132182500D01*
X197876838Y-132362079D01*
X197928987Y-132447421D01*
X197973238Y-132441515D01*
X198020388Y-132347348D01*
X198054086Y-132251159D01*
X198131993Y-132054861D01*
X198202571Y-131955575D01*
X198264377Y-131955271D01*
X198267989Y-131958656D01*
X198268686Y-132021597D01*
X198232755Y-132145477D01*
X198172454Y-132302168D01*
X198100037Y-132463543D01*
X198027762Y-132601472D01*
X197967883Y-132687828D01*
X197943582Y-132703200D01*
X197880037Y-132660513D01*
X197812413Y-132554925D01*
X197799207Y-132525400D01*
X197726383Y-132349508D01*
X197651811Y-132169420D01*
X197649400Y-132163596D01*
X197595262Y-132029348D01*
X197579209Y-131964154D01*
X197600770Y-131943071D01*
X197645198Y-131941200D01*
X197702527Y-131984962D01*
G36*
X197446396Y-131988475D02*
G01*
X197464237Y-132116446D01*
X197471552Y-132304333D01*
X197471600Y-132322200D01*
X197465296Y-132514176D01*
X197448233Y-132647984D01*
X197423182Y-132702843D01*
X197420800Y-132703200D01*
X197395203Y-132655924D01*
X197377362Y-132527953D01*
X197370047Y-132340066D01*
X197370000Y-132322200D01*
X197376303Y-132130223D01*
X197393366Y-131996415D01*
X197418417Y-131941556D01*
X197420800Y-131941200D01*
X197446396Y-131988475D01*
G37*
X197446396Y-131988475D02*
X197464237Y-132116446D01*
X197471552Y-132304333D01*
X197471600Y-132322200D01*
X197465296Y-132514176D01*
X197448233Y-132647984D01*
X197423182Y-132702843D01*
X197420800Y-132703200D01*
X197395203Y-132655924D01*
X197377362Y-132527953D01*
X197370047Y-132340066D01*
X197370000Y-132322200D01*
X197376303Y-132130223D01*
X197393366Y-131996415D01*
X197418417Y-131941556D01*
X197420800Y-131941200D01*
X197446396Y-131988475D01*
G36*
X197132439Y-131963515D02*
G01*
X197155341Y-132042122D01*
X197165460Y-132194513D01*
X197166800Y-132322200D01*
X197158999Y-132544079D01*
X197131555Y-132668012D01*
X197078402Y-132696744D01*
X196993474Y-132633017D01*
X196870705Y-132479574D01*
X196857911Y-132461900D01*
X196684200Y-132220600D01*
X196668716Y-132461900D01*
X196646512Y-132623999D01*
X196604223Y-132696698D01*
X196579816Y-132703200D01*
X196540760Y-132680884D01*
X196517858Y-132602277D01*
X196507739Y-132449886D01*
X196506400Y-132322200D01*
X196514200Y-132100320D01*
X196541644Y-131976387D01*
X196594797Y-131947655D01*
X196679725Y-132011382D01*
X196802494Y-132164825D01*
X196815288Y-132182500D01*
X196989000Y-132423800D01*
X197004483Y-132182500D01*
X197026687Y-132020400D01*
X197068976Y-131947701D01*
X197093383Y-131941200D01*
X197132439Y-131963515D01*
G37*
X197132439Y-131963515D02*
X197155341Y-132042122D01*
X197165460Y-132194513D01*
X197166800Y-132322200D01*
X197158999Y-132544079D01*
X197131555Y-132668012D01*
X197078402Y-132696744D01*
X196993474Y-132633017D01*
X196870705Y-132479574D01*
X196857911Y-132461900D01*
X196684200Y-132220600D01*
X196668716Y-132461900D01*
X196646512Y-132623999D01*
X196604223Y-132696698D01*
X196579816Y-132703200D01*
X196540760Y-132680884D01*
X196517858Y-132602277D01*
X196507739Y-132449886D01*
X196506400Y-132322200D01*
X196514200Y-132100320D01*
X196541644Y-131976387D01*
X196594797Y-131947655D01*
X196679725Y-132011382D01*
X196802494Y-132164825D01*
X196815288Y-132182500D01*
X196989000Y-132423800D01*
X197004483Y-132182500D01*
X197026687Y-132020400D01*
X197068976Y-131947701D01*
X197093383Y-131941200D01*
X197132439Y-131963515D01*
G36*
X196330365Y-131985163D02*
G01*
X196357229Y-132096939D01*
X196359553Y-132246354D01*
X196338497Y-132403237D01*
X196295222Y-132537413D01*
X196252400Y-132601600D01*
X196110851Y-132683831D01*
X195948081Y-132695645D01*
X195805338Y-132636285D01*
X195777673Y-132610299D01*
X195727862Y-132511318D01*
X195698084Y-132366741D01*
X195688700Y-132207189D01*
X195700068Y-132063286D01*
X195732551Y-131965655D01*
X195769800Y-131941200D01*
X195815935Y-131966471D01*
X195839577Y-132055044D01*
X195846000Y-132218075D01*
X195867022Y-132426812D01*
X195928973Y-132546136D01*
X196030183Y-132573991D01*
X196111388Y-132544705D01*
X196167283Y-132488190D01*
X196194971Y-132379113D01*
X196201600Y-132218812D01*
X196208521Y-132050925D01*
X196232788Y-131964775D01*
X196277800Y-131941200D01*
X196330365Y-131985163D01*
G37*
X196330365Y-131985163D02*
X196357229Y-132096939D01*
X196359553Y-132246354D01*
X196338497Y-132403237D01*
X196295222Y-132537413D01*
X196252400Y-132601600D01*
X196110851Y-132683831D01*
X195948081Y-132695645D01*
X195805338Y-132636285D01*
X195777673Y-132610299D01*
X195727862Y-132511318D01*
X195698084Y-132366741D01*
X195688700Y-132207189D01*
X195700068Y-132063286D01*
X195732551Y-131965655D01*
X195769800Y-131941200D01*
X195815935Y-131966471D01*
X195839577Y-132055044D01*
X195846000Y-132218075D01*
X195867022Y-132426812D01*
X195928973Y-132546136D01*
X196030183Y-132573991D01*
X196111388Y-132544705D01*
X196167283Y-132488190D01*
X196194971Y-132379113D01*
X196201600Y-132218812D01*
X196208521Y-132050925D01*
X196232788Y-131964775D01*
X196277800Y-131941200D01*
X196330365Y-131985163D01*
G36*
X195085671Y-131963930D02*
G01*
X195215227Y-132023597D01*
X195276638Y-132107419D01*
X195255305Y-132202612D01*
X195232229Y-132229850D01*
X195206604Y-132306092D01*
X195244558Y-132392586D01*
X195286583Y-132520627D01*
X195234053Y-132615207D01*
X195089026Y-132674300D01*
X194939067Y-132693154D01*
X194677600Y-132708509D01*
X194677600Y-132500000D01*
X194830000Y-132500000D01*
X194839822Y-132575328D01*
X194887610Y-132596914D01*
X195000842Y-132574794D01*
X195020500Y-132569581D01*
X195118767Y-132516615D01*
X195128706Y-132453298D01*
X195056379Y-132406870D01*
X194982400Y-132398400D01*
X194870847Y-132414366D01*
X194831572Y-132473773D01*
X194830000Y-132500000D01*
X194677600Y-132500000D01*
X194677600Y-132173174D01*
X194830000Y-132173174D01*
X194869568Y-132224675D01*
X194959687Y-132238617D01*
X195057476Y-132217356D01*
X195120057Y-132163249D01*
X195122415Y-132157100D01*
X195095892Y-132108759D01*
X194986633Y-132093600D01*
X194866012Y-132113628D01*
X194830000Y-132173174D01*
X194677600Y-132173174D01*
X194677600Y-131941200D01*
X194902571Y-131941200D01*
X195085671Y-131963930D01*
G37*
X195085671Y-131963930D02*
X195215227Y-132023597D01*
X195276638Y-132107419D01*
X195255305Y-132202612D01*
X195232229Y-132229850D01*
X195206604Y-132306092D01*
X195244558Y-132392586D01*
X195286583Y-132520627D01*
X195234053Y-132615207D01*
X195089026Y-132674300D01*
X194939067Y-132693154D01*
X194677600Y-132708509D01*
X194677600Y-132500000D01*
X194830000Y-132500000D01*
X194839822Y-132575328D01*
X194887610Y-132596914D01*
X195000842Y-132574794D01*
X195020500Y-132569581D01*
X195118767Y-132516615D01*
X195128706Y-132453298D01*
X195056379Y-132406870D01*
X194982400Y-132398400D01*
X194870847Y-132414366D01*
X194831572Y-132473773D01*
X194830000Y-132500000D01*
X194677600Y-132500000D01*
X194677600Y-132173174D01*
X194830000Y-132173174D01*
X194869568Y-132224675D01*
X194959687Y-132238617D01*
X195057476Y-132217356D01*
X195120057Y-132163249D01*
X195122415Y-132157100D01*
X195095892Y-132108759D01*
X194986633Y-132093600D01*
X194866012Y-132113628D01*
X194830000Y-132173174D01*
X194677600Y-132173174D01*
X194677600Y-131941200D01*
X194902571Y-131941200D01*
X195085671Y-131963930D01*
G36*
X194430931Y-131949357D02*
G01*
X194508946Y-131977600D01*
X194525200Y-132017400D01*
X194491646Y-132070384D01*
X194380418Y-132092217D01*
X194322000Y-132093600D01*
X194180708Y-132106182D01*
X194122487Y-132147893D01*
X194118800Y-132169800D01*
X194157355Y-132226158D01*
X194280406Y-132245862D01*
X194296600Y-132246000D01*
X194428103Y-132262523D01*
X194474078Y-132315260D01*
X194474400Y-132322200D01*
X194435844Y-132378558D01*
X194312793Y-132398262D01*
X194296600Y-132398400D01*
X194165096Y-132414923D01*
X194119121Y-132467660D01*
X194118800Y-132474600D01*
X194152353Y-132527584D01*
X194263581Y-132549417D01*
X194322000Y-132550800D01*
X194463291Y-132563382D01*
X194521512Y-132605093D01*
X194525200Y-132627000D01*
X194498008Y-132674919D01*
X194403863Y-132698323D01*
X194271200Y-132703200D01*
X194017200Y-132703200D01*
X194017200Y-131941200D01*
X194271200Y-131941200D01*
X194430931Y-131949357D01*
G37*
X194430931Y-131949357D02*
X194508946Y-131977600D01*
X194525200Y-132017400D01*
X194491646Y-132070384D01*
X194380418Y-132092217D01*
X194322000Y-132093600D01*
X194180708Y-132106182D01*
X194122487Y-132147893D01*
X194118800Y-132169800D01*
X194157355Y-132226158D01*
X194280406Y-132245862D01*
X194296600Y-132246000D01*
X194428103Y-132262523D01*
X194474078Y-132315260D01*
X194474400Y-132322200D01*
X194435844Y-132378558D01*
X194312793Y-132398262D01*
X194296600Y-132398400D01*
X194165096Y-132414923D01*
X194119121Y-132467660D01*
X194118800Y-132474600D01*
X194152353Y-132527584D01*
X194263581Y-132549417D01*
X194322000Y-132550800D01*
X194463291Y-132563382D01*
X194521512Y-132605093D01*
X194525200Y-132627000D01*
X194498008Y-132674919D01*
X194403863Y-132698323D01*
X194271200Y-132703200D01*
X194017200Y-132703200D01*
X194017200Y-131941200D01*
X194271200Y-131941200D01*
X194430931Y-131949357D01*
G36*
X193594896Y-131959259D02*
G01*
X193720328Y-131999106D01*
X193731450Y-132006406D01*
X193799608Y-132102509D01*
X193825357Y-132231741D01*
X193804903Y-132348935D01*
X193764305Y-132397716D01*
X193727513Y-132449790D01*
X193758327Y-132541617D01*
X193762070Y-132548690D01*
X193798627Y-132657675D01*
X193770471Y-132696176D01*
X193695991Y-132652162D01*
X193661784Y-132614300D01*
X193557575Y-132527392D01*
X193453118Y-132500423D01*
X193377363Y-132534597D01*
X193356800Y-132601600D01*
X193329254Y-132687042D01*
X193271181Y-132694859D01*
X193225461Y-132634011D01*
X193213527Y-132548038D01*
X193210337Y-132397948D01*
X193214355Y-132265711D01*
X193216684Y-132220600D01*
X193356800Y-132220600D01*
X193368265Y-132311164D01*
X193423263Y-132341966D01*
X193521900Y-132338118D01*
X193641478Y-132310235D01*
X193685117Y-132247110D01*
X193687000Y-132220600D01*
X193660425Y-132144451D01*
X193564684Y-132108365D01*
X193521900Y-132103081D01*
X193408478Y-132101412D01*
X193363805Y-132141555D01*
X193356800Y-132220600D01*
X193216684Y-132220600D01*
X193229800Y-131966600D01*
X193433000Y-131951644D01*
X193594896Y-131959259D01*
G37*
X193594896Y-131959259D02*
X193720328Y-131999106D01*
X193731450Y-132006406D01*
X193799608Y-132102509D01*
X193825357Y-132231741D01*
X193804903Y-132348935D01*
X193764305Y-132397716D01*
X193727513Y-132449790D01*
X193758327Y-132541617D01*
X193762070Y-132548690D01*
X193798627Y-132657675D01*
X193770471Y-132696176D01*
X193695991Y-132652162D01*
X193661784Y-132614300D01*
X193557575Y-132527392D01*
X193453118Y-132500423D01*
X193377363Y-132534597D01*
X193356800Y-132601600D01*
X193329254Y-132687042D01*
X193271181Y-132694859D01*
X193225461Y-132634011D01*
X193213527Y-132548038D01*
X193210337Y-132397948D01*
X193214355Y-132265711D01*
X193216684Y-132220600D01*
X193356800Y-132220600D01*
X193368265Y-132311164D01*
X193423263Y-132341966D01*
X193521900Y-132338118D01*
X193641478Y-132310235D01*
X193685117Y-132247110D01*
X193687000Y-132220600D01*
X193660425Y-132144451D01*
X193564684Y-132108365D01*
X193521900Y-132103081D01*
X193408478Y-132101412D01*
X193363805Y-132141555D01*
X193356800Y-132220600D01*
X193216684Y-132220600D01*
X193229800Y-131966600D01*
X193433000Y-131951644D01*
X193594896Y-131959259D01*
G36*
X192958310Y-132001216D02*
G01*
X192978790Y-132015784D01*
X193035772Y-132069643D01*
X193016206Y-132095641D01*
X192910276Y-132099124D01*
X192833541Y-132094885D01*
X192667477Y-132119927D01*
X192569948Y-132219095D01*
X192544000Y-132355457D01*
X192572648Y-132483156D01*
X192656405Y-132544855D01*
X192803293Y-132569547D01*
X192909858Y-132532293D01*
X192950400Y-132443275D01*
X192972846Y-132363999D01*
X193001200Y-132347600D01*
X193043080Y-132388095D01*
X193052416Y-132481801D01*
X193032999Y-132587050D01*
X192988621Y-132662172D01*
X192971645Y-132672364D01*
X192767312Y-132699795D01*
X192570502Y-132629767D01*
X192525450Y-132597912D01*
X192418084Y-132463828D01*
X192391670Y-132314497D01*
X192431479Y-132168837D01*
X192522778Y-132045762D01*
X192650837Y-131964190D01*
X192800925Y-131943036D01*
X192958310Y-132001216D01*
G37*
X192958310Y-132001216D02*
X192978790Y-132015784D01*
X193035772Y-132069643D01*
X193016206Y-132095641D01*
X192910276Y-132099124D01*
X192833541Y-132094885D01*
X192667477Y-132119927D01*
X192569948Y-132219095D01*
X192544000Y-132355457D01*
X192572648Y-132483156D01*
X192656405Y-132544855D01*
X192803293Y-132569547D01*
X192909858Y-132532293D01*
X192950400Y-132443275D01*
X192972846Y-132363999D01*
X193001200Y-132347600D01*
X193043080Y-132388095D01*
X193052416Y-132481801D01*
X193032999Y-132587050D01*
X192988621Y-132662172D01*
X192971645Y-132672364D01*
X192767312Y-132699795D01*
X192570502Y-132629767D01*
X192525450Y-132597912D01*
X192418084Y-132463828D01*
X192391670Y-132314497D01*
X192431479Y-132168837D01*
X192522778Y-132045762D01*
X192650837Y-131964190D01*
X192800925Y-131943036D01*
X192958310Y-132001216D01*
G36*
X191407827Y-131949350D02*
G01*
X191505097Y-131981915D01*
X191515447Y-132051062D01*
X191443549Y-132168962D01*
X191350200Y-132283031D01*
X191251096Y-132403943D01*
X191186551Y-132492536D01*
X191172400Y-132520775D01*
X191217059Y-132540766D01*
X191326620Y-132550591D01*
X191347201Y-132550800D01*
X191475040Y-132566023D01*
X191553738Y-132603160D01*
X191557358Y-132608004D01*
X191593374Y-132593464D01*
X191657563Y-132501353D01*
X191739141Y-132347936D01*
X191754017Y-132316547D01*
X191886297Y-132316547D01*
X191923224Y-132385392D01*
X191985200Y-132398400D01*
X192067863Y-132386319D01*
X192086800Y-132369660D01*
X192065402Y-132307162D01*
X192030539Y-132235797D01*
X191980623Y-132167417D01*
X191938808Y-132187626D01*
X191929717Y-132201036D01*
X191886297Y-132316547D01*
X191754017Y-132316547D01*
X191762512Y-132298623D01*
X191856128Y-132115062D01*
X191935635Y-131994481D01*
X191990784Y-131952135D01*
X191994811Y-131952870D01*
X192045927Y-132006865D01*
X192115004Y-132124762D01*
X192189707Y-132278456D01*
X192257701Y-132439839D01*
X192306649Y-132580804D01*
X192324216Y-132673246D01*
X192318874Y-132691258D01*
X192264688Y-132686383D01*
X192216746Y-132639620D01*
X192127846Y-132580250D01*
X191996839Y-132552045D01*
X191864026Y-132556627D01*
X191769711Y-132595618D01*
X191751908Y-132620908D01*
X191692789Y-132657870D01*
X191566531Y-132684427D01*
X191401504Y-132699895D01*
X191226076Y-132703590D01*
X191068617Y-132694828D01*
X190957497Y-132672927D01*
X190920565Y-132640937D01*
X190953316Y-132570340D01*
X191035941Y-132453877D01*
X191123969Y-132347600D01*
X191325207Y-132119000D01*
X191138474Y-132093600D01*
X191011085Y-132061370D01*
X190936010Y-132014409D01*
X190930837Y-132004700D01*
X190949928Y-131967197D01*
X191046264Y-131946930D01*
X191218966Y-131941200D01*
X191407827Y-131949350D01*
G37*
X191407827Y-131949350D02*
X191505097Y-131981915D01*
X191515447Y-132051062D01*
X191443549Y-132168962D01*
X191350200Y-132283031D01*
X191251096Y-132403943D01*
X191186551Y-132492536D01*
X191172400Y-132520775D01*
X191217059Y-132540766D01*
X191326620Y-132550591D01*
X191347201Y-132550800D01*
X191475040Y-132566023D01*
X191553738Y-132603160D01*
X191557358Y-132608004D01*
X191593374Y-132593464D01*
X191657563Y-132501353D01*
X191739141Y-132347936D01*
X191754017Y-132316547D01*
X191886297Y-132316547D01*
X191923224Y-132385392D01*
X191985200Y-132398400D01*
X192067863Y-132386319D01*
X192086800Y-132369660D01*
X192065402Y-132307162D01*
X192030539Y-132235797D01*
X191980623Y-132167417D01*
X191938808Y-132187626D01*
X191929717Y-132201036D01*
X191886297Y-132316547D01*
X191754017Y-132316547D01*
X191762512Y-132298623D01*
X191856128Y-132115062D01*
X191935635Y-131994481D01*
X191990784Y-131952135D01*
X191994811Y-131952870D01*
X192045927Y-132006865D01*
X192115004Y-132124762D01*
X192189707Y-132278456D01*
X192257701Y-132439839D01*
X192306649Y-132580804D01*
X192324216Y-132673246D01*
X192318874Y-132691258D01*
X192264688Y-132686383D01*
X192216746Y-132639620D01*
X192127846Y-132580250D01*
X191996839Y-132552045D01*
X191864026Y-132556627D01*
X191769711Y-132595618D01*
X191751908Y-132620908D01*
X191692789Y-132657870D01*
X191566531Y-132684427D01*
X191401504Y-132699895D01*
X191226076Y-132703590D01*
X191068617Y-132694828D01*
X190957497Y-132672927D01*
X190920565Y-132640937D01*
X190953316Y-132570340D01*
X191035941Y-132453877D01*
X191123969Y-132347600D01*
X191325207Y-132119000D01*
X191138474Y-132093600D01*
X191011085Y-132061370D01*
X190936010Y-132014409D01*
X190930837Y-132004700D01*
X190949928Y-131967197D01*
X191046264Y-131946930D01*
X191218966Y-131941200D01*
X191407827Y-131949350D01*
G36*
X190518157Y-131952425D02*
G01*
X190548816Y-132001654D01*
X190561025Y-132112215D01*
X190562800Y-132243119D01*
X190556655Y-132422424D01*
X190532133Y-132531370D01*
X190480100Y-132600775D01*
X190449896Y-132624119D01*
X190276651Y-132694111D01*
X190097056Y-132684448D01*
X189953200Y-132601600D01*
X189887499Y-132503705D01*
X189856835Y-132360660D01*
X189851600Y-132220600D01*
X189856009Y-132059135D01*
X189875076Y-131975021D01*
X189917555Y-131944179D01*
X189953200Y-131941200D01*
X190014731Y-131954924D01*
X190045053Y-132012888D01*
X190054492Y-132140277D01*
X190054800Y-132188979D01*
X190074113Y-132380811D01*
X190127111Y-132500084D01*
X190206380Y-132536711D01*
X190283400Y-132500000D01*
X190337776Y-132396468D01*
X190359397Y-132212214D01*
X190359600Y-132188979D01*
X190365227Y-132038917D01*
X190388995Y-131964969D01*
X190441229Y-131941950D01*
X190461200Y-131941200D01*
X190518157Y-131952425D01*
G37*
X190518157Y-131952425D02*
X190548816Y-132001654D01*
X190561025Y-132112215D01*
X190562800Y-132243119D01*
X190556655Y-132422424D01*
X190532133Y-132531370D01*
X190480100Y-132600775D01*
X190449896Y-132624119D01*
X190276651Y-132694111D01*
X190097056Y-132684448D01*
X189953200Y-132601600D01*
X189887499Y-132503705D01*
X189856835Y-132360660D01*
X189851600Y-132220600D01*
X189856009Y-132059135D01*
X189875076Y-131975021D01*
X189917555Y-131944179D01*
X189953200Y-131941200D01*
X190014731Y-131954924D01*
X190045053Y-132012888D01*
X190054492Y-132140277D01*
X190054800Y-132188979D01*
X190074113Y-132380811D01*
X190127111Y-132500084D01*
X190206380Y-132536711D01*
X190283400Y-132500000D01*
X190337776Y-132396468D01*
X190359397Y-132212214D01*
X190359600Y-132188979D01*
X190365227Y-132038917D01*
X190388995Y-131964969D01*
X190441229Y-131941950D01*
X190461200Y-131941200D01*
X190518157Y-131952425D01*
G36*
X189572004Y-131960899D02*
G01*
X189701833Y-132016685D01*
X189745112Y-132103583D01*
X189716111Y-132186758D01*
X189692279Y-132289580D01*
X189730949Y-132375550D01*
X189772305Y-132468835D01*
X189743744Y-132557017D01*
X189720911Y-132591450D01*
X189654090Y-132659234D01*
X189555491Y-132693037D01*
X189392603Y-132703101D01*
X189366119Y-132703200D01*
X189089600Y-132703200D01*
X189089600Y-132478133D01*
X189292800Y-132478133D01*
X189330392Y-132531788D01*
X189413510Y-132541314D01*
X189497670Y-132509699D01*
X189534354Y-132461900D01*
X189509319Y-132412285D01*
X189424033Y-132398400D01*
X189317512Y-132425023D01*
X189292800Y-132478133D01*
X189089600Y-132478133D01*
X189089600Y-132173333D01*
X189292800Y-132173333D01*
X189330392Y-132226988D01*
X189413510Y-132236514D01*
X189497670Y-132204899D01*
X189534354Y-132157100D01*
X189509319Y-132107485D01*
X189424033Y-132093600D01*
X189317512Y-132120223D01*
X189292800Y-132173333D01*
X189089600Y-132173333D01*
X189089600Y-131941200D01*
X189362779Y-131941200D01*
X189572004Y-131960899D01*
G37*
X189572004Y-131960899D02*
X189701833Y-132016685D01*
X189745112Y-132103583D01*
X189716111Y-132186758D01*
X189692279Y-132289580D01*
X189730949Y-132375550D01*
X189772305Y-132468835D01*
X189743744Y-132557017D01*
X189720911Y-132591450D01*
X189654090Y-132659234D01*
X189555491Y-132693037D01*
X189392603Y-132703101D01*
X189366119Y-132703200D01*
X189089600Y-132703200D01*
X189089600Y-132478133D01*
X189292800Y-132478133D01*
X189330392Y-132531788D01*
X189413510Y-132541314D01*
X189497670Y-132509699D01*
X189534354Y-132461900D01*
X189509319Y-132412285D01*
X189424033Y-132398400D01*
X189317512Y-132425023D01*
X189292800Y-132478133D01*
X189089600Y-132478133D01*
X189089600Y-132173333D01*
X189292800Y-132173333D01*
X189330392Y-132226988D01*
X189413510Y-132236514D01*
X189497670Y-132204899D01*
X189534354Y-132157100D01*
X189509319Y-132107485D01*
X189424033Y-132093600D01*
X189317512Y-132120223D01*
X189292800Y-132173333D01*
X189089600Y-132173333D01*
X189089600Y-131941200D01*
X189362779Y-131941200D01*
X189572004Y-131960899D01*
G36*
X188860183Y-131947052D02*
G01*
X188955205Y-131967797D01*
X188987398Y-132008218D01*
X188988000Y-132017400D01*
X188954446Y-132070384D01*
X188843218Y-132092217D01*
X188784800Y-132093600D01*
X188643508Y-132106182D01*
X188585287Y-132147893D01*
X188581600Y-132169800D01*
X188620155Y-132226158D01*
X188743206Y-132245862D01*
X188759400Y-132246000D01*
X188890903Y-132262523D01*
X188936878Y-132315260D01*
X188937200Y-132322200D01*
X188898644Y-132378558D01*
X188775593Y-132398262D01*
X188759400Y-132398400D01*
X188627896Y-132414923D01*
X188581921Y-132467660D01*
X188581600Y-132474600D01*
X188615153Y-132527584D01*
X188726381Y-132549417D01*
X188784800Y-132550800D01*
X188926091Y-132563382D01*
X188984312Y-132605093D01*
X188988000Y-132627000D01*
X188964591Y-132671245D01*
X188881611Y-132695001D01*
X188719924Y-132703049D01*
X188683200Y-132703200D01*
X188378400Y-132703200D01*
X188378400Y-131941200D01*
X188683200Y-131941200D01*
X188860183Y-131947052D01*
G37*
X188860183Y-131947052D02*
X188955205Y-131967797D01*
X188987398Y-132008218D01*
X188988000Y-132017400D01*
X188954446Y-132070384D01*
X188843218Y-132092217D01*
X188784800Y-132093600D01*
X188643508Y-132106182D01*
X188585287Y-132147893D01*
X188581600Y-132169800D01*
X188620155Y-132226158D01*
X188743206Y-132245862D01*
X188759400Y-132246000D01*
X188890903Y-132262523D01*
X188936878Y-132315260D01*
X188937200Y-132322200D01*
X188898644Y-132378558D01*
X188775593Y-132398262D01*
X188759400Y-132398400D01*
X188627896Y-132414923D01*
X188581921Y-132467660D01*
X188581600Y-132474600D01*
X188615153Y-132527584D01*
X188726381Y-132549417D01*
X188784800Y-132550800D01*
X188926091Y-132563382D01*
X188984312Y-132605093D01*
X188988000Y-132627000D01*
X188964591Y-132671245D01*
X188881611Y-132695001D01*
X188719924Y-132703049D01*
X188683200Y-132703200D01*
X188378400Y-132703200D01*
X188378400Y-131941200D01*
X188683200Y-131941200D01*
X188860183Y-131947052D01*
G36*
X187998856Y-131952092D02*
G01*
X188124255Y-131979960D01*
X188165040Y-132002160D01*
X188215465Y-132110597D01*
X188220666Y-132252328D01*
X188180258Y-132370708D01*
X188167648Y-132385631D01*
X188139870Y-132454178D01*
X188183106Y-132556212D01*
X188194219Y-132573591D01*
X188248146Y-132664058D01*
X188236623Y-132698043D01*
X188154394Y-132703200D01*
X188037344Y-132664514D01*
X187997400Y-132601600D01*
X187930045Y-132519026D01*
X187866976Y-132500000D01*
X187784523Y-132537571D01*
X187768800Y-132601600D01*
X187732878Y-132686502D01*
X187667200Y-132703200D01*
X187615253Y-132694201D01*
X187584773Y-132653168D01*
X187570147Y-132559047D01*
X187565759Y-132390782D01*
X187565600Y-132322200D01*
X187565600Y-132195200D01*
X187768800Y-132195200D01*
X187798565Y-132274870D01*
X187895800Y-132296800D01*
X187995388Y-132272987D01*
X188022800Y-132195200D01*
X187993034Y-132115529D01*
X187895800Y-132093600D01*
X187796211Y-132117412D01*
X187768800Y-132195200D01*
X187565600Y-132195200D01*
X187565600Y-131941200D01*
X187834840Y-131941200D01*
X187998856Y-131952092D01*
G37*
X187998856Y-131952092D02*
X188124255Y-131979960D01*
X188165040Y-132002160D01*
X188215465Y-132110597D01*
X188220666Y-132252328D01*
X188180258Y-132370708D01*
X188167648Y-132385631D01*
X188139870Y-132454178D01*
X188183106Y-132556212D01*
X188194219Y-132573591D01*
X188248146Y-132664058D01*
X188236623Y-132698043D01*
X188154394Y-132703200D01*
X188037344Y-132664514D01*
X187997400Y-132601600D01*
X187930045Y-132519026D01*
X187866976Y-132500000D01*
X187784523Y-132537571D01*
X187768800Y-132601600D01*
X187732878Y-132686502D01*
X187667200Y-132703200D01*
X187615253Y-132694201D01*
X187584773Y-132653168D01*
X187570147Y-132559047D01*
X187565759Y-132390782D01*
X187565600Y-132322200D01*
X187565600Y-132195200D01*
X187768800Y-132195200D01*
X187798565Y-132274870D01*
X187895800Y-132296800D01*
X187995388Y-132272987D01*
X188022800Y-132195200D01*
X187993034Y-132115529D01*
X187895800Y-132093600D01*
X187796211Y-132117412D01*
X187768800Y-132195200D01*
X187565600Y-132195200D01*
X187565600Y-131941200D01*
X187834840Y-131941200D01*
X187998856Y-131952092D01*
G36*
X187151736Y-131951349D02*
G01*
X187305415Y-131971205D01*
X187382630Y-132012006D01*
X187405071Y-132062269D01*
X187402995Y-132127394D01*
X187343112Y-132135889D01*
X187286908Y-132123717D01*
X187116832Y-132112568D01*
X186994569Y-132162171D01*
X186934757Y-132254714D01*
X186952030Y-132372387D01*
X187013744Y-132456144D01*
X187125170Y-132531003D01*
X187208129Y-132512656D01*
X187251633Y-132407120D01*
X187303529Y-132314533D01*
X187365933Y-132296800D01*
X187439491Y-132336259D01*
X187468341Y-132430022D01*
X187452506Y-132541168D01*
X187392003Y-132632776D01*
X187365739Y-132650612D01*
X187188910Y-132699301D01*
X187000043Y-132682734D01*
X186860180Y-132614300D01*
X186746975Y-132461498D01*
X186721193Y-132281680D01*
X186785853Y-132104381D01*
X186805323Y-132077547D01*
X186889287Y-131989279D01*
X186982580Y-131951912D01*
X187127890Y-131949896D01*
X187151736Y-131951349D01*
G37*
X187151736Y-131951349D02*
X187305415Y-131971205D01*
X187382630Y-132012006D01*
X187405071Y-132062269D01*
X187402995Y-132127394D01*
X187343112Y-132135889D01*
X187286908Y-132123717D01*
X187116832Y-132112568D01*
X186994569Y-132162171D01*
X186934757Y-132254714D01*
X186952030Y-132372387D01*
X187013744Y-132456144D01*
X187125170Y-132531003D01*
X187208129Y-132512656D01*
X187251633Y-132407120D01*
X187303529Y-132314533D01*
X187365933Y-132296800D01*
X187439491Y-132336259D01*
X187468341Y-132430022D01*
X187452506Y-132541168D01*
X187392003Y-132632776D01*
X187365739Y-132650612D01*
X187188910Y-132699301D01*
X187000043Y-132682734D01*
X186860180Y-132614300D01*
X186746975Y-132461498D01*
X186721193Y-132281680D01*
X186785853Y-132104381D01*
X186805323Y-132077547D01*
X186889287Y-131989279D01*
X186982580Y-131951912D01*
X187127890Y-131949896D01*
X187151736Y-131951349D01*
G36*
X186382214Y-131958976D02*
G01*
X186443281Y-132023939D01*
X186513478Y-132153539D01*
X186587308Y-132322200D01*
X186746339Y-132703200D01*
X186622569Y-132703200D01*
X186522849Y-132676121D01*
X186498800Y-132627000D01*
X186458942Y-132569822D01*
X186333081Y-132550824D01*
X186326435Y-132550800D01*
X186187685Y-132573161D01*
X186124829Y-132627000D01*
X186071890Y-132675143D01*
X185985261Y-132703785D01*
X185910365Y-132703048D01*
X185889200Y-132678247D01*
X185908505Y-132623197D01*
X185959610Y-132500094D01*
X186016014Y-132370733D01*
X186216782Y-132370733D01*
X186255488Y-132396880D01*
X186293812Y-132398400D01*
X186377031Y-132382678D01*
X186396422Y-132360300D01*
X186371425Y-132288014D01*
X186351082Y-132251836D01*
X186308273Y-132216145D01*
X186261294Y-132266909D01*
X186248472Y-132289936D01*
X186216782Y-132370733D01*
X186016014Y-132370733D01*
X186032297Y-132333390D01*
X186048401Y-132297247D01*
X186139253Y-132107739D01*
X186210622Y-131997158D01*
X186275609Y-131948199D01*
X186317940Y-131941200D01*
X186382214Y-131958976D01*
G37*
X186382214Y-131958976D02*
X186443281Y-132023939D01*
X186513478Y-132153539D01*
X186587308Y-132322200D01*
X186746339Y-132703200D01*
X186622569Y-132703200D01*
X186522849Y-132676121D01*
X186498800Y-132627000D01*
X186458942Y-132569822D01*
X186333081Y-132550824D01*
X186326435Y-132550800D01*
X186187685Y-132573161D01*
X186124829Y-132627000D01*
X186071890Y-132675143D01*
X185985261Y-132703785D01*
X185910365Y-132703048D01*
X185889200Y-132678247D01*
X185908505Y-132623197D01*
X185959610Y-132500094D01*
X186016014Y-132370733D01*
X186216782Y-132370733D01*
X186255488Y-132396880D01*
X186293812Y-132398400D01*
X186377031Y-132382678D01*
X186396422Y-132360300D01*
X186371425Y-132288014D01*
X186351082Y-132251836D01*
X186308273Y-132216145D01*
X186261294Y-132266909D01*
X186248472Y-132289936D01*
X186216782Y-132370733D01*
X186016014Y-132370733D01*
X186032297Y-132333390D01*
X186048401Y-132297247D01*
X186139253Y-132107739D01*
X186210622Y-131997158D01*
X186275609Y-131948199D01*
X186317940Y-131941200D01*
X186382214Y-131958976D01*
G36*
X185701966Y-131947704D02*
G01*
X185805441Y-131975604D01*
X185823037Y-132037476D01*
X185759167Y-132145898D01*
X185632927Y-132296800D01*
X185431787Y-132525400D01*
X185635093Y-132541020D01*
X185785140Y-132569883D01*
X185838269Y-132626212D01*
X185838400Y-132629920D01*
X185814907Y-132670114D01*
X185732672Y-132693077D01*
X185574061Y-132702445D01*
X185482800Y-132703200D01*
X185276678Y-132695422D01*
X185156194Y-132673001D01*
X185127200Y-132646750D01*
X185157784Y-132580841D01*
X185237484Y-132465232D01*
X185335130Y-132341950D01*
X185543060Y-132093600D01*
X185360530Y-132093600D01*
X185227164Y-132077947D01*
X185178707Y-132027569D01*
X185178000Y-132017400D01*
X185200044Y-131974658D01*
X185278813Y-131950902D01*
X185433260Y-131941757D01*
X185508200Y-131941200D01*
X185701966Y-131947704D01*
G37*
X185701966Y-131947704D02*
X185805441Y-131975604D01*
X185823037Y-132037476D01*
X185759167Y-132145898D01*
X185632927Y-132296800D01*
X185431787Y-132525400D01*
X185635093Y-132541020D01*
X185785140Y-132569883D01*
X185838269Y-132626212D01*
X185838400Y-132629920D01*
X185814907Y-132670114D01*
X185732672Y-132693077D01*
X185574061Y-132702445D01*
X185482800Y-132703200D01*
X185276678Y-132695422D01*
X185156194Y-132673001D01*
X185127200Y-132646750D01*
X185157784Y-132580841D01*
X185237484Y-132465232D01*
X185335130Y-132341950D01*
X185543060Y-132093600D01*
X185360530Y-132093600D01*
X185227164Y-132077947D01*
X185178707Y-132027569D01*
X185178000Y-132017400D01*
X185200044Y-131974658D01*
X185278813Y-131950902D01*
X185433260Y-131941757D01*
X185508200Y-131941200D01*
X185701966Y-131947704D01*
G36*
X196823399Y-133176162D02*
G01*
X196923641Y-133218827D01*
X196952266Y-133264709D01*
X196941177Y-133316061D01*
X196865799Y-133329158D01*
X196787600Y-133322651D01*
X196655236Y-133322196D01*
X196614284Y-133357201D01*
X196664257Y-133419796D01*
X196798500Y-133499116D01*
X196951519Y-133601430D01*
X197003384Y-133709198D01*
X196953936Y-133822031D01*
X196937108Y-133840034D01*
X196798067Y-133912090D01*
X196624174Y-133899874D01*
X196517506Y-133854459D01*
X196436123Y-133793042D01*
X196448981Y-133755785D01*
X196550833Y-133746244D01*
X196662003Y-133756552D01*
X196806246Y-133760773D01*
X196859110Y-133728309D01*
X196820128Y-133667827D01*
X196688835Y-133587997D01*
X196671500Y-133579701D01*
X196527893Y-133482724D01*
X196463778Y-133374192D01*
X196484703Y-133271896D01*
X196556629Y-133211505D01*
X196688461Y-133172027D01*
X196823399Y-133176162D01*
G37*
X196823399Y-133176162D02*
X196923641Y-133218827D01*
X196952266Y-133264709D01*
X196941177Y-133316061D01*
X196865799Y-133329158D01*
X196787600Y-133322651D01*
X196655236Y-133322196D01*
X196614284Y-133357201D01*
X196664257Y-133419796D01*
X196798500Y-133499116D01*
X196951519Y-133601430D01*
X197003384Y-133709198D01*
X196953936Y-133822031D01*
X196937108Y-133840034D01*
X196798067Y-133912090D01*
X196624174Y-133899874D01*
X196517506Y-133854459D01*
X196436123Y-133793042D01*
X196448981Y-133755785D01*
X196550833Y-133746244D01*
X196662003Y-133756552D01*
X196806246Y-133760773D01*
X196859110Y-133728309D01*
X196820128Y-133667827D01*
X196688835Y-133587997D01*
X196671500Y-133579701D01*
X196527893Y-133482724D01*
X196463778Y-133374192D01*
X196484703Y-133271896D01*
X196556629Y-133211505D01*
X196688461Y-133172027D01*
X196823399Y-133176162D01*
G36*
X196248586Y-133174253D02*
G01*
X196336818Y-133207834D01*
X196338889Y-133249175D01*
X196250160Y-133286307D01*
X196134173Y-133303166D01*
X195995226Y-133335518D01*
X195941807Y-133387562D01*
X195975084Y-133437748D01*
X196096223Y-133464525D01*
X196125400Y-133465200D01*
X196256903Y-133481723D01*
X196302878Y-133534460D01*
X196303200Y-133541400D01*
X196264644Y-133597758D01*
X196141593Y-133617462D01*
X196125400Y-133617600D01*
X195993896Y-133634123D01*
X195947921Y-133686860D01*
X195947600Y-133693800D01*
X195981153Y-133746784D01*
X196092381Y-133768617D01*
X196150800Y-133770000D01*
X196292091Y-133782582D01*
X196350312Y-133824293D01*
X196354000Y-133846200D01*
X196328916Y-133892153D01*
X196240898Y-133915811D01*
X196074600Y-133922400D01*
X195795200Y-133922400D01*
X195795200Y-133160400D01*
X196078833Y-133160400D01*
X196248586Y-133174253D01*
G37*
X196248586Y-133174253D02*
X196336818Y-133207834D01*
X196338889Y-133249175D01*
X196250160Y-133286307D01*
X196134173Y-133303166D01*
X195995226Y-133335518D01*
X195941807Y-133387562D01*
X195975084Y-133437748D01*
X196096223Y-133464525D01*
X196125400Y-133465200D01*
X196256903Y-133481723D01*
X196302878Y-133534460D01*
X196303200Y-133541400D01*
X196264644Y-133597758D01*
X196141593Y-133617462D01*
X196125400Y-133617600D01*
X195993896Y-133634123D01*
X195947921Y-133686860D01*
X195947600Y-133693800D01*
X195981153Y-133746784D01*
X196092381Y-133768617D01*
X196150800Y-133770000D01*
X196292091Y-133782582D01*
X196350312Y-133824293D01*
X196354000Y-133846200D01*
X196328916Y-133892153D01*
X196240898Y-133915811D01*
X196074600Y-133922400D01*
X195795200Y-133922400D01*
X195795200Y-133160400D01*
X196078833Y-133160400D01*
X196248586Y-133174253D01*
G36*
X195525021Y-133188693D02*
G01*
X195630796Y-133243833D01*
X195640998Y-133293449D01*
X195561572Y-133327939D01*
X195432447Y-133338200D01*
X195250772Y-133364079D01*
X195156271Y-133441076D01*
X195149741Y-133568230D01*
X195177494Y-133645496D01*
X195229406Y-133733275D01*
X195300544Y-133765212D01*
X195429518Y-133757452D01*
X195441445Y-133755875D01*
X195582270Y-133750483D01*
X195639150Y-133777989D01*
X195605604Y-133831230D01*
X195544539Y-133869812D01*
X195359979Y-133918596D01*
X195183603Y-133873584D01*
X195179561Y-133871259D01*
X195102009Y-133791604D01*
X195035270Y-133673399D01*
X195007878Y-133496451D01*
X195062650Y-133340309D01*
X195180166Y-133224196D01*
X195341003Y-133167334D01*
X195525021Y-133188693D01*
G37*
X195525021Y-133188693D02*
X195630796Y-133243833D01*
X195640998Y-133293449D01*
X195561572Y-133327939D01*
X195432447Y-133338200D01*
X195250772Y-133364079D01*
X195156271Y-133441076D01*
X195149741Y-133568230D01*
X195177494Y-133645496D01*
X195229406Y-133733275D01*
X195300544Y-133765212D01*
X195429518Y-133757452D01*
X195441445Y-133755875D01*
X195582270Y-133750483D01*
X195639150Y-133777989D01*
X195605604Y-133831230D01*
X195544539Y-133869812D01*
X195359979Y-133918596D01*
X195183603Y-133873584D01*
X195179561Y-133871259D01*
X195102009Y-133791604D01*
X195035270Y-133673399D01*
X195007878Y-133496451D01*
X195062650Y-133340309D01*
X195180166Y-133224196D01*
X195341003Y-133167334D01*
X195525021Y-133188693D01*
G36*
X194846439Y-133182715D02*
G01*
X194869341Y-133261322D01*
X194879460Y-133413713D01*
X194880800Y-133541400D01*
X194872999Y-133763279D01*
X194845555Y-133887212D01*
X194792402Y-133915944D01*
X194707474Y-133852217D01*
X194584705Y-133698774D01*
X194571911Y-133681100D01*
X194398200Y-133439800D01*
X194382716Y-133681100D01*
X194360512Y-133843199D01*
X194318223Y-133915898D01*
X194293816Y-133922400D01*
X194254760Y-133900084D01*
X194231858Y-133821477D01*
X194221739Y-133669086D01*
X194220400Y-133541400D01*
X194228200Y-133319520D01*
X194255644Y-133195587D01*
X194308797Y-133166855D01*
X194393725Y-133230582D01*
X194516494Y-133384025D01*
X194529288Y-133401700D01*
X194703000Y-133643000D01*
X194718483Y-133401700D01*
X194740687Y-133239600D01*
X194782976Y-133166901D01*
X194807383Y-133160400D01*
X194846439Y-133182715D01*
G37*
X194846439Y-133182715D02*
X194869341Y-133261322D01*
X194879460Y-133413713D01*
X194880800Y-133541400D01*
X194872999Y-133763279D01*
X194845555Y-133887212D01*
X194792402Y-133915944D01*
X194707474Y-133852217D01*
X194584705Y-133698774D01*
X194571911Y-133681100D01*
X194398200Y-133439800D01*
X194382716Y-133681100D01*
X194360512Y-133843199D01*
X194318223Y-133915898D01*
X194293816Y-133922400D01*
X194254760Y-133900084D01*
X194231858Y-133821477D01*
X194221739Y-133669086D01*
X194220400Y-133541400D01*
X194228200Y-133319520D01*
X194255644Y-133195587D01*
X194308797Y-133166855D01*
X194393725Y-133230582D01*
X194516494Y-133384025D01*
X194529288Y-133401700D01*
X194703000Y-133643000D01*
X194718483Y-133401700D01*
X194740687Y-133239600D01*
X194782976Y-133166901D01*
X194807383Y-133160400D01*
X194846439Y-133182715D01*
G36*
X193957094Y-133167241D02*
G01*
X194043843Y-133191245D01*
X194068000Y-133236600D01*
X194034446Y-133289584D01*
X193923218Y-133311417D01*
X193864800Y-133312800D01*
X193723508Y-133325382D01*
X193665287Y-133367093D01*
X193661600Y-133389000D01*
X193700155Y-133445358D01*
X193823206Y-133465062D01*
X193839400Y-133465200D01*
X193970903Y-133481723D01*
X194016878Y-133534460D01*
X194017200Y-133541400D01*
X193978644Y-133597758D01*
X193855593Y-133617462D01*
X193839400Y-133617600D01*
X193707896Y-133634123D01*
X193661921Y-133686860D01*
X193661600Y-133693800D01*
X193695153Y-133746784D01*
X193806381Y-133768617D01*
X193864800Y-133770000D01*
X194006091Y-133782582D01*
X194064312Y-133824293D01*
X194068000Y-133846200D01*
X194039980Y-133894845D01*
X193943491Y-133918112D01*
X193822466Y-133922400D01*
X193671976Y-133915919D01*
X193567174Y-133899457D01*
X193543066Y-133888533D01*
X193526030Y-133824063D01*
X193513867Y-133687518D01*
X193509200Y-133508397D01*
X193509200Y-133160400D01*
X193788600Y-133160400D01*
X193957094Y-133167241D01*
G37*
X193957094Y-133167241D02*
X194043843Y-133191245D01*
X194068000Y-133236600D01*
X194034446Y-133289584D01*
X193923218Y-133311417D01*
X193864800Y-133312800D01*
X193723508Y-133325382D01*
X193665287Y-133367093D01*
X193661600Y-133389000D01*
X193700155Y-133445358D01*
X193823206Y-133465062D01*
X193839400Y-133465200D01*
X193970903Y-133481723D01*
X194016878Y-133534460D01*
X194017200Y-133541400D01*
X193978644Y-133597758D01*
X193855593Y-133617462D01*
X193839400Y-133617600D01*
X193707896Y-133634123D01*
X193661921Y-133686860D01*
X193661600Y-133693800D01*
X193695153Y-133746784D01*
X193806381Y-133768617D01*
X193864800Y-133770000D01*
X194006091Y-133782582D01*
X194064312Y-133824293D01*
X194068000Y-133846200D01*
X194039980Y-133894845D01*
X193943491Y-133918112D01*
X193822466Y-133922400D01*
X193671976Y-133915919D01*
X193567174Y-133899457D01*
X193543066Y-133888533D01*
X193526030Y-133824063D01*
X193513867Y-133687518D01*
X193509200Y-133508397D01*
X193509200Y-133160400D01*
X193788600Y-133160400D01*
X193957094Y-133167241D01*
G36*
X193320793Y-133180358D02*
G01*
X193344386Y-133252481D01*
X193355054Y-133395143D01*
X193356800Y-133541400D01*
X193352808Y-133742367D01*
X193338383Y-133860332D01*
X193309851Y-133913670D01*
X193280600Y-133922400D01*
X193240406Y-133902441D01*
X193216813Y-133830318D01*
X193206145Y-133687656D01*
X193204400Y-133541400D01*
X193208391Y-133340432D01*
X193222816Y-133222467D01*
X193251348Y-133169129D01*
X193280600Y-133160400D01*
X193320793Y-133180358D01*
G37*
X193320793Y-133180358D02*
X193344386Y-133252481D01*
X193355054Y-133395143D01*
X193356800Y-133541400D01*
X193352808Y-133742367D01*
X193338383Y-133860332D01*
X193309851Y-133913670D01*
X193280600Y-133922400D01*
X193240406Y-133902441D01*
X193216813Y-133830318D01*
X193206145Y-133687656D01*
X193204400Y-133541400D01*
X193208391Y-133340432D01*
X193222816Y-133222467D01*
X193251348Y-133169129D01*
X193280600Y-133160400D01*
X193320793Y-133180358D01*
G36*
X192941355Y-133191202D02*
G01*
X193042494Y-133244938D01*
X193050624Y-133292199D01*
X192974177Y-133320796D01*
X192851216Y-133321515D01*
X192679328Y-133340234D01*
X192579150Y-133422728D01*
X192560216Y-133556727D01*
X192591419Y-133655867D01*
X192641760Y-133737040D01*
X192715517Y-133765543D01*
X192850368Y-133755912D01*
X192850636Y-133755876D01*
X192998342Y-133749959D01*
X193075201Y-133774981D01*
X193070170Y-133822899D01*
X193005962Y-133869051D01*
X192818726Y-133919775D01*
X192639686Y-133880032D01*
X192557547Y-133822518D01*
X192438686Y-133666063D01*
X192418403Y-133502461D01*
X192466106Y-133366874D01*
X192590066Y-133225968D01*
X192761630Y-133166605D01*
X192941355Y-133191202D01*
G37*
X192941355Y-133191202D02*
X193042494Y-133244938D01*
X193050624Y-133292199D01*
X192974177Y-133320796D01*
X192851216Y-133321515D01*
X192679328Y-133340234D01*
X192579150Y-133422728D01*
X192560216Y-133556727D01*
X192591419Y-133655867D01*
X192641760Y-133737040D01*
X192715517Y-133765543D01*
X192850368Y-133755912D01*
X192850636Y-133755876D01*
X192998342Y-133749959D01*
X193075201Y-133774981D01*
X193070170Y-133822899D01*
X193005962Y-133869051D01*
X192818726Y-133919775D01*
X192639686Y-133880032D01*
X192557547Y-133822518D01*
X192438686Y-133666063D01*
X192418403Y-133502461D01*
X192466106Y-133366874D01*
X192590066Y-133225968D01*
X192761630Y-133166605D01*
X192941355Y-133191202D01*
G36*
X192199988Y-133177950D02*
G01*
X192212006Y-133180810D01*
X192306209Y-133225471D01*
X192314838Y-133276360D01*
X192250932Y-133315262D01*
X192127534Y-133323958D01*
X192110744Y-133322271D01*
X191979828Y-133319863D01*
X191942855Y-133351757D01*
X191999529Y-133414295D01*
X192124437Y-133490600D01*
X192277316Y-133599544D01*
X192329195Y-133709385D01*
X192280673Y-133821628D01*
X192263508Y-133840034D01*
X192126468Y-133911425D01*
X191960333Y-133905112D01*
X191870900Y-133867530D01*
X191790159Y-133801922D01*
X191803169Y-133760264D01*
X191903654Y-133748672D01*
X191985200Y-133756122D01*
X192132039Y-133759272D01*
X192187848Y-133725144D01*
X192150577Y-133665500D01*
X192018178Y-133592102D01*
X192014073Y-133590377D01*
X191864074Y-133513637D01*
X191798481Y-133434440D01*
X191801783Y-133331916D01*
X191807506Y-133312463D01*
X191885909Y-133218059D01*
X192027413Y-133169746D01*
X192199988Y-133177950D01*
G37*
X192199988Y-133177950D02*
X192212006Y-133180810D01*
X192306209Y-133225471D01*
X192314838Y-133276360D01*
X192250932Y-133315262D01*
X192127534Y-133323958D01*
X192110744Y-133322271D01*
X191979828Y-133319863D01*
X191942855Y-133351757D01*
X191999529Y-133414295D01*
X192124437Y-133490600D01*
X192277316Y-133599544D01*
X192329195Y-133709385D01*
X192280673Y-133821628D01*
X192263508Y-133840034D01*
X192126468Y-133911425D01*
X191960333Y-133905112D01*
X191870900Y-133867530D01*
X191790159Y-133801922D01*
X191803169Y-133760264D01*
X191903654Y-133748672D01*
X191985200Y-133756122D01*
X192132039Y-133759272D01*
X192187848Y-133725144D01*
X192150577Y-133665500D01*
X192018178Y-133592102D01*
X192014073Y-133590377D01*
X191864074Y-133513637D01*
X191798481Y-133434440D01*
X191801783Y-133331916D01*
X191807506Y-133312463D01*
X191885909Y-133218059D01*
X192027413Y-133169746D01*
X192199988Y-133177950D01*
G36*
X191124878Y-133177842D02*
G01*
X191252245Y-133240878D01*
X191301709Y-133285090D01*
X191404325Y-133443131D01*
X191417774Y-133603781D01*
X191352300Y-133748679D01*
X191218146Y-133859467D01*
X191025559Y-133917783D01*
X190946109Y-133922400D01*
X190715200Y-133922400D01*
X190715200Y-133541400D01*
X190867600Y-133541400D01*
X190872319Y-133682094D01*
X190897878Y-133748742D01*
X190961377Y-133768827D01*
X191009840Y-133770000D01*
X191136769Y-133749414D01*
X191213040Y-133709040D01*
X191263935Y-133610001D01*
X191274000Y-133541400D01*
X191233107Y-133402062D01*
X191115120Y-133325775D01*
X191009840Y-133312800D01*
X190922296Y-133320384D01*
X190880826Y-133361461D01*
X190868329Y-133463513D01*
X190867600Y-133541400D01*
X190715200Y-133541400D01*
X190715200Y-133160400D01*
X190946109Y-133160400D01*
X191124878Y-133177842D01*
G37*
X191124878Y-133177842D02*
X191252245Y-133240878D01*
X191301709Y-133285090D01*
X191404325Y-133443131D01*
X191417774Y-133603781D01*
X191352300Y-133748679D01*
X191218146Y-133859467D01*
X191025559Y-133917783D01*
X190946109Y-133922400D01*
X190715200Y-133922400D01*
X190715200Y-133541400D01*
X190867600Y-133541400D01*
X190872319Y-133682094D01*
X190897878Y-133748742D01*
X190961377Y-133768827D01*
X191009840Y-133770000D01*
X191136769Y-133749414D01*
X191213040Y-133709040D01*
X191263935Y-133610001D01*
X191274000Y-133541400D01*
X191233107Y-133402062D01*
X191115120Y-133325775D01*
X191009840Y-133312800D01*
X190922296Y-133320384D01*
X190880826Y-133361461D01*
X190868329Y-133463513D01*
X190867600Y-133541400D01*
X190715200Y-133541400D01*
X190715200Y-133160400D01*
X190946109Y-133160400D01*
X191124878Y-133177842D01*
G36*
X190468531Y-133168557D02*
G01*
X190546546Y-133196800D01*
X190562800Y-133236600D01*
X190529246Y-133289584D01*
X190418018Y-133311417D01*
X190359600Y-133312800D01*
X190218308Y-133325382D01*
X190160087Y-133367093D01*
X190156400Y-133389000D01*
X190194955Y-133445358D01*
X190318006Y-133465062D01*
X190334200Y-133465200D01*
X190465703Y-133481723D01*
X190511678Y-133534460D01*
X190512000Y-133541400D01*
X190473444Y-133597758D01*
X190350393Y-133617462D01*
X190334200Y-133617600D01*
X190202696Y-133634123D01*
X190156721Y-133686860D01*
X190156400Y-133693800D01*
X190189953Y-133746784D01*
X190301181Y-133768617D01*
X190359600Y-133770000D01*
X190500891Y-133782582D01*
X190559112Y-133824293D01*
X190562800Y-133846200D01*
X190535608Y-133894119D01*
X190441463Y-133917523D01*
X190308800Y-133922400D01*
X190054800Y-133922400D01*
X190054800Y-133160400D01*
X190308800Y-133160400D01*
X190468531Y-133168557D01*
G37*
X190468531Y-133168557D02*
X190546546Y-133196800D01*
X190562800Y-133236600D01*
X190529246Y-133289584D01*
X190418018Y-133311417D01*
X190359600Y-133312800D01*
X190218308Y-133325382D01*
X190160087Y-133367093D01*
X190156400Y-133389000D01*
X190194955Y-133445358D01*
X190318006Y-133465062D01*
X190334200Y-133465200D01*
X190465703Y-133481723D01*
X190511678Y-133534460D01*
X190512000Y-133541400D01*
X190473444Y-133597758D01*
X190350393Y-133617462D01*
X190334200Y-133617600D01*
X190202696Y-133634123D01*
X190156721Y-133686860D01*
X190156400Y-133693800D01*
X190189953Y-133746784D01*
X190301181Y-133768617D01*
X190359600Y-133770000D01*
X190500891Y-133782582D01*
X190559112Y-133824293D01*
X190562800Y-133846200D01*
X190535608Y-133894119D01*
X190441463Y-133917523D01*
X190308800Y-133922400D01*
X190054800Y-133922400D01*
X190054800Y-133160400D01*
X190308800Y-133160400D01*
X190468531Y-133168557D01*
G36*
X189815593Y-133180358D02*
G01*
X189839186Y-133252481D01*
X189849854Y-133395143D01*
X189851600Y-133541400D01*
X189847608Y-133742367D01*
X189833183Y-133860332D01*
X189804651Y-133913670D01*
X189775400Y-133922400D01*
X189735206Y-133902441D01*
X189711613Y-133830318D01*
X189700945Y-133687656D01*
X189699200Y-133541400D01*
X189703191Y-133340432D01*
X189717616Y-133222467D01*
X189746148Y-133169129D01*
X189775400Y-133160400D01*
X189815593Y-133180358D01*
G37*
X189815593Y-133180358D02*
X189839186Y-133252481D01*
X189849854Y-133395143D01*
X189851600Y-133541400D01*
X189847608Y-133742367D01*
X189833183Y-133860332D01*
X189804651Y-133913670D01*
X189775400Y-133922400D01*
X189735206Y-133902441D01*
X189711613Y-133830318D01*
X189700945Y-133687656D01*
X189699200Y-133541400D01*
X189703191Y-133340432D01*
X189717616Y-133222467D01*
X189746148Y-133169129D01*
X189775400Y-133160400D01*
X189815593Y-133180358D01*
G36*
X189260845Y-133183808D02*
G01*
X189284601Y-133266788D01*
X189292649Y-133428475D01*
X189292800Y-133465200D01*
X189292800Y-133770000D01*
X189445200Y-133770000D01*
X189566191Y-133792718D01*
X189597600Y-133846200D01*
X189567682Y-133896424D01*
X189465958Y-133919301D01*
X189369000Y-133922400D01*
X189140400Y-133922400D01*
X189140400Y-133541400D01*
X189144391Y-133340432D01*
X189158816Y-133222467D01*
X189187348Y-133169129D01*
X189216600Y-133160400D01*
X189260845Y-133183808D01*
G37*
X189260845Y-133183808D02*
X189284601Y-133266788D01*
X189292649Y-133428475D01*
X189292800Y-133465200D01*
X189292800Y-133770000D01*
X189445200Y-133770000D01*
X189566191Y-133792718D01*
X189597600Y-133846200D01*
X189567682Y-133896424D01*
X189465958Y-133919301D01*
X189369000Y-133922400D01*
X189140400Y-133922400D01*
X189140400Y-133541400D01*
X189144391Y-133340432D01*
X189158816Y-133222467D01*
X189187348Y-133169129D01*
X189216600Y-133160400D01*
X189260845Y-133183808D01*
G36*
X188851542Y-133193041D02*
G01*
X188984849Y-133285299D01*
X189038292Y-133428675D01*
X189038800Y-133446340D01*
X188997718Y-133580373D01*
X188876097Y-133653907D01*
X188749240Y-133668400D01*
X188633444Y-133679304D01*
X188587913Y-133727343D01*
X188581600Y-133795400D01*
X188555103Y-133897543D01*
X188505400Y-133922400D01*
X188465206Y-133902441D01*
X188441613Y-133830318D01*
X188430945Y-133687656D01*
X188429200Y-133541400D01*
X188429200Y-133443174D01*
X188581600Y-133443174D01*
X188596241Y-133536063D01*
X188661220Y-133561683D01*
X188721300Y-133557474D01*
X188836170Y-133515381D01*
X188877233Y-133427100D01*
X188873222Y-133346579D01*
X188811254Y-133316146D01*
X188737533Y-133312800D01*
X188627178Y-133325560D01*
X188586002Y-133381125D01*
X188581600Y-133443174D01*
X188429200Y-133443174D01*
X188429200Y-133160400D01*
X188649926Y-133160400D01*
X188851542Y-133193041D01*
G37*
X188851542Y-133193041D02*
X188984849Y-133285299D01*
X189038292Y-133428675D01*
X189038800Y-133446340D01*
X188997718Y-133580373D01*
X188876097Y-133653907D01*
X188749240Y-133668400D01*
X188633444Y-133679304D01*
X188587913Y-133727343D01*
X188581600Y-133795400D01*
X188555103Y-133897543D01*
X188505400Y-133922400D01*
X188465206Y-133902441D01*
X188441613Y-133830318D01*
X188430945Y-133687656D01*
X188429200Y-133541400D01*
X188429200Y-133443174D01*
X188581600Y-133443174D01*
X188596241Y-133536063D01*
X188661220Y-133561683D01*
X188721300Y-133557474D01*
X188836170Y-133515381D01*
X188877233Y-133427100D01*
X188873222Y-133346579D01*
X188811254Y-133316146D01*
X188737533Y-133312800D01*
X188627178Y-133325560D01*
X188586002Y-133381125D01*
X188581600Y-133443174D01*
X188429200Y-133443174D01*
X188429200Y-133160400D01*
X188649926Y-133160400D01*
X188851542Y-133193041D01*
G36*
X188140342Y-133193041D02*
G01*
X188273649Y-133285299D01*
X188327092Y-133428675D01*
X188327600Y-133446340D01*
X188286518Y-133580373D01*
X188164897Y-133653907D01*
X188038040Y-133668400D01*
X187922244Y-133679304D01*
X187876713Y-133727343D01*
X187870400Y-133795400D01*
X187843903Y-133897543D01*
X187794200Y-133922400D01*
X187754006Y-133902441D01*
X187730413Y-133830318D01*
X187719745Y-133687656D01*
X187718000Y-133541400D01*
X187718000Y-133443174D01*
X187870400Y-133443174D01*
X187885041Y-133536063D01*
X187950020Y-133561683D01*
X188010100Y-133557474D01*
X188124970Y-133515381D01*
X188166033Y-133427100D01*
X188162022Y-133346579D01*
X188100054Y-133316146D01*
X188026333Y-133312800D01*
X187915978Y-133325560D01*
X187874802Y-133381125D01*
X187870400Y-133443174D01*
X187718000Y-133443174D01*
X187718000Y-133160400D01*
X187938726Y-133160400D01*
X188140342Y-133193041D01*
G37*
X188140342Y-133193041D02*
X188273649Y-133285299D01*
X188327092Y-133428675D01*
X188327600Y-133446340D01*
X188286518Y-133580373D01*
X188164897Y-133653907D01*
X188038040Y-133668400D01*
X187922244Y-133679304D01*
X187876713Y-133727343D01*
X187870400Y-133795400D01*
X187843903Y-133897543D01*
X187794200Y-133922400D01*
X187754006Y-133902441D01*
X187730413Y-133830318D01*
X187719745Y-133687656D01*
X187718000Y-133541400D01*
X187718000Y-133443174D01*
X187870400Y-133443174D01*
X187885041Y-133536063D01*
X187950020Y-133561683D01*
X188010100Y-133557474D01*
X188124970Y-133515381D01*
X188166033Y-133427100D01*
X188162022Y-133346579D01*
X188100054Y-133316146D01*
X188026333Y-133312800D01*
X187915978Y-133325560D01*
X187874802Y-133381125D01*
X187870400Y-133443174D01*
X187718000Y-133443174D01*
X187718000Y-133160400D01*
X187938726Y-133160400D01*
X188140342Y-133193041D01*
G36*
X187303880Y-133220717D02*
G01*
X187376771Y-133335272D01*
X187455747Y-133486986D01*
X187527925Y-133648170D01*
X187580421Y-133791135D01*
X187600353Y-133888191D01*
X187594147Y-133910785D01*
X187540210Y-133905648D01*
X187492346Y-133858820D01*
X187401310Y-133797502D01*
X187268986Y-133770045D01*
X187135694Y-133777538D01*
X187041755Y-133821070D01*
X187025170Y-133846200D01*
X186958843Y-133913753D01*
X186920931Y-133922400D01*
X186863852Y-133900894D01*
X186862866Y-133881537D01*
X186988632Y-133586020D01*
X186991593Y-133579661D01*
X187136182Y-133579661D01*
X187164852Y-133613441D01*
X187236489Y-133617600D01*
X187331483Y-133603405D01*
X187362400Y-133576509D01*
X187335326Y-133506362D01*
X187296360Y-133445104D01*
X187245505Y-133389407D01*
X187207770Y-133411770D01*
X187170450Y-133486195D01*
X187136182Y-133579661D01*
X186991593Y-133579661D01*
X187085996Y-133376970D01*
X187160098Y-133244949D01*
X187216080Y-133180522D01*
X187249957Y-133171013D01*
X187303880Y-133220717D01*
G37*
X187303880Y-133220717D02*
X187376771Y-133335272D01*
X187455747Y-133486986D01*
X187527925Y-133648170D01*
X187580421Y-133791135D01*
X187600353Y-133888191D01*
X187594147Y-133910785D01*
X187540210Y-133905648D01*
X187492346Y-133858820D01*
X187401310Y-133797502D01*
X187268986Y-133770045D01*
X187135694Y-133777538D01*
X187041755Y-133821070D01*
X187025170Y-133846200D01*
X186958843Y-133913753D01*
X186920931Y-133922400D01*
X186863852Y-133900894D01*
X186862866Y-133881537D01*
X186988632Y-133586020D01*
X186991593Y-133579661D01*
X187136182Y-133579661D01*
X187164852Y-133613441D01*
X187236489Y-133617600D01*
X187331483Y-133603405D01*
X187362400Y-133576509D01*
X187335326Y-133506362D01*
X187296360Y-133445104D01*
X187245505Y-133389407D01*
X187207770Y-133411770D01*
X187170450Y-133486195D01*
X187136182Y-133579661D01*
X186991593Y-133579661D01*
X187085996Y-133376970D01*
X187160098Y-133244949D01*
X187216080Y-133180522D01*
X187249957Y-133171013D01*
X187303880Y-133220717D01*
G36*
X186465436Y-133198037D02*
G01*
X186548301Y-133227392D01*
X186549728Y-133262830D01*
X186462553Y-133293313D01*
X186384500Y-133303166D01*
X186247244Y-133334759D01*
X186193522Y-133386940D01*
X186226706Y-133439984D01*
X186350167Y-133474164D01*
X186355187Y-133474681D01*
X186488351Y-133506425D01*
X186538912Y-133554106D01*
X186503964Y-133597800D01*
X186380601Y-133617584D01*
X186376033Y-133617600D01*
X186254727Y-133625597D01*
X186204224Y-133666625D01*
X186194003Y-133766235D01*
X186194000Y-133770000D01*
X186174039Y-133881619D01*
X186127706Y-133922845D01*
X186075320Y-133880804D01*
X186062661Y-133853211D01*
X186050727Y-133767238D01*
X186047537Y-133617148D01*
X186051555Y-133484911D01*
X186067000Y-133185800D01*
X186308300Y-133185800D01*
X186465436Y-133198037D01*
G37*
X186465436Y-133198037D02*
X186548301Y-133227392D01*
X186549728Y-133262830D01*
X186462553Y-133293313D01*
X186384500Y-133303166D01*
X186247244Y-133334759D01*
X186193522Y-133386940D01*
X186226706Y-133439984D01*
X186350167Y-133474164D01*
X186355187Y-133474681D01*
X186488351Y-133506425D01*
X186538912Y-133554106D01*
X186503964Y-133597800D01*
X186380601Y-133617584D01*
X186376033Y-133617600D01*
X186254727Y-133625597D01*
X186204224Y-133666625D01*
X186194003Y-133766235D01*
X186194000Y-133770000D01*
X186174039Y-133881619D01*
X186127706Y-133922845D01*
X186075320Y-133880804D01*
X186062661Y-133853211D01*
X186050727Y-133767238D01*
X186047537Y-133617148D01*
X186051555Y-133484911D01*
X186067000Y-133185800D01*
X186308300Y-133185800D01*
X186465436Y-133198037D01*
G36*
X185641929Y-133180933D02*
G01*
X185794922Y-133256458D01*
X185903736Y-133380610D01*
X185940000Y-133521996D01*
X185896399Y-133702246D01*
X185781283Y-133833143D01*
X185618177Y-133901241D01*
X185430611Y-133893094D01*
X185345780Y-133861594D01*
X185226744Y-133754383D01*
X185172853Y-133600250D01*
X185172966Y-133598735D01*
X185302298Y-133598735D01*
X185326960Y-133661974D01*
X185421010Y-133743769D01*
X185557061Y-133771030D01*
X185688113Y-133738222D01*
X185726640Y-133709040D01*
X185777535Y-133610001D01*
X185787600Y-133541400D01*
X185746755Y-133402116D01*
X185628693Y-133325878D01*
X185522350Y-133312800D01*
X185386731Y-133354522D01*
X185307811Y-133459787D01*
X185302298Y-133598735D01*
X185172966Y-133598735D01*
X185185466Y-133431359D01*
X185265944Y-133279873D01*
X185319056Y-133230124D01*
X185473669Y-133167624D01*
X185641929Y-133180933D01*
G37*
X185641929Y-133180933D02*
X185794922Y-133256458D01*
X185903736Y-133380610D01*
X185940000Y-133521996D01*
X185896399Y-133702246D01*
X185781283Y-133833143D01*
X185618177Y-133901241D01*
X185430611Y-133893094D01*
X185345780Y-133861594D01*
X185226744Y-133754383D01*
X185172853Y-133600250D01*
X185172966Y-133598735D01*
X185302298Y-133598735D01*
X185326960Y-133661974D01*
X185421010Y-133743769D01*
X185557061Y-133771030D01*
X185688113Y-133738222D01*
X185726640Y-133709040D01*
X185777535Y-133610001D01*
X185787600Y-133541400D01*
X185746755Y-133402116D01*
X185628693Y-133325878D01*
X185522350Y-133312800D01*
X185386731Y-133354522D01*
X185307811Y-133459787D01*
X185302298Y-133598735D01*
X185172966Y-133598735D01*
X185185466Y-133431359D01*
X185265944Y-133279873D01*
X185319056Y-133230124D01*
X185473669Y-133167624D01*
X185641929Y-133180933D01*
G36*
X181036573Y-129378607D02*
G01*
X181583617Y-129487332D01*
X182094196Y-129689495D01*
X182563315Y-129983218D01*
X182909373Y-130286854D01*
X183075574Y-130461233D01*
X183222903Y-130628024D01*
X183330153Y-130762643D01*
X183364772Y-130814761D01*
X183456544Y-130976000D01*
X182587200Y-130976000D01*
X182587200Y-131331600D01*
X182892000Y-131331600D01*
X183052585Y-131337365D01*
X183162680Y-131352353D01*
X183195916Y-131369700D01*
X183164054Y-131422346D01*
X183079489Y-131531258D01*
X182957500Y-131677192D01*
X182891116Y-131753626D01*
X182727589Y-131950978D01*
X182630628Y-132098488D01*
X182590004Y-132212829D01*
X182587200Y-132248926D01*
X182587200Y-132398400D01*
X183872258Y-132398400D01*
X183840114Y-132792100D01*
X183746158Y-133341602D01*
X183561639Y-133857096D01*
X183294594Y-134329074D01*
X182953060Y-134748030D01*
X182545076Y-135104457D01*
X182078679Y-135388850D01*
X181561907Y-135591702D01*
X181446226Y-135623436D01*
X181114646Y-135680031D01*
X180732362Y-135701310D01*
X180337828Y-135688263D01*
X179969493Y-135641881D01*
X179711070Y-135578729D01*
X179275797Y-135407063D01*
X178891658Y-135184370D01*
X178527394Y-134891082D01*
X178369879Y-134739192D01*
X178003550Y-134307817D01*
X177733627Y-133847207D01*
X177558067Y-133351979D01*
X177474830Y-132816749D01*
X177472417Y-132373000D01*
X177546423Y-131808107D01*
X177708053Y-131292645D01*
X177876988Y-130976000D01*
X179539200Y-130976000D01*
X179539200Y-131153800D01*
X179545351Y-131267639D01*
X179583334Y-131318229D01*
X179682440Y-131331202D01*
X179742400Y-131331600D01*
X179945600Y-131331600D01*
X179945600Y-132398400D01*
X180399245Y-132398400D01*
X180413722Y-131877700D01*
X180428200Y-131357000D01*
X180618700Y-131341233D01*
X180743576Y-131323457D01*
X180797002Y-131278298D01*
X180809089Y-131175645D01*
X180809200Y-131150733D01*
X180809200Y-131026321D01*
X180961600Y-131026321D01*
X180980374Y-131097035D01*
X181035703Y-131257885D01*
X181126093Y-131504799D01*
X181250050Y-131833707D01*
X181406082Y-132240537D01*
X181422909Y-132284100D01*
X181466796Y-132355232D01*
X181546696Y-132389159D01*
X181693823Y-132398319D01*
X181709642Y-132398354D01*
X181952200Y-132398309D01*
X182060757Y-132106254D01*
X182131966Y-131915032D01*
X182221473Y-131675167D01*
X182311925Y-131433154D01*
X182327201Y-131392327D01*
X182485089Y-130970454D01*
X182247841Y-130985927D01*
X182010592Y-131001400D01*
X181900171Y-131363862D01*
X181824605Y-131610229D01*
X181770664Y-131762383D01*
X181728539Y-131822724D01*
X181688421Y-131793653D01*
X181640502Y-131677572D01*
X181574973Y-131476882D01*
X181565033Y-131445900D01*
X181414061Y-130976000D01*
X181187830Y-130976000D01*
X181052321Y-130986093D01*
X180971532Y-131011602D01*
X180961600Y-131026321D01*
X180809200Y-131026321D01*
X180809200Y-130976000D01*
X179539200Y-130976000D01*
X177876988Y-130976000D01*
X177960344Y-130819762D01*
X178306335Y-130382605D01*
X178395937Y-130289937D01*
X178829855Y-129920984D01*
X179301138Y-129646110D01*
X179813891Y-129463472D01*
X180372221Y-129371229D01*
X180458058Y-129365198D01*
X181036573Y-129378607D01*
G37*
X181036573Y-129378607D02*
X181583617Y-129487332D01*
X182094196Y-129689495D01*
X182563315Y-129983218D01*
X182909373Y-130286854D01*
X183075574Y-130461233D01*
X183222903Y-130628024D01*
X183330153Y-130762643D01*
X183364772Y-130814761D01*
X183456544Y-130976000D01*
X182587200Y-130976000D01*
X182587200Y-131331600D01*
X182892000Y-131331600D01*
X183052585Y-131337365D01*
X183162680Y-131352353D01*
X183195916Y-131369700D01*
X183164054Y-131422346D01*
X183079489Y-131531258D01*
X182957500Y-131677192D01*
X182891116Y-131753626D01*
X182727589Y-131950978D01*
X182630628Y-132098488D01*
X182590004Y-132212829D01*
X182587200Y-132248926D01*
X182587200Y-132398400D01*
X183872258Y-132398400D01*
X183840114Y-132792100D01*
X183746158Y-133341602D01*
X183561639Y-133857096D01*
X183294594Y-134329074D01*
X182953060Y-134748030D01*
X182545076Y-135104457D01*
X182078679Y-135388850D01*
X181561907Y-135591702D01*
X181446226Y-135623436D01*
X181114646Y-135680031D01*
X180732362Y-135701310D01*
X180337828Y-135688263D01*
X179969493Y-135641881D01*
X179711070Y-135578729D01*
X179275797Y-135407063D01*
X178891658Y-135184370D01*
X178527394Y-134891082D01*
X178369879Y-134739192D01*
X178003550Y-134307817D01*
X177733627Y-133847207D01*
X177558067Y-133351979D01*
X177474830Y-132816749D01*
X177472417Y-132373000D01*
X177546423Y-131808107D01*
X177708053Y-131292645D01*
X177876988Y-130976000D01*
X179539200Y-130976000D01*
X179539200Y-131153800D01*
X179545351Y-131267639D01*
X179583334Y-131318229D01*
X179682440Y-131331202D01*
X179742400Y-131331600D01*
X179945600Y-131331600D01*
X179945600Y-132398400D01*
X180399245Y-132398400D01*
X180413722Y-131877700D01*
X180428200Y-131357000D01*
X180618700Y-131341233D01*
X180743576Y-131323457D01*
X180797002Y-131278298D01*
X180809089Y-131175645D01*
X180809200Y-131150733D01*
X180809200Y-131026321D01*
X180961600Y-131026321D01*
X180980374Y-131097035D01*
X181035703Y-131257885D01*
X181126093Y-131504799D01*
X181250050Y-131833707D01*
X181406082Y-132240537D01*
X181422909Y-132284100D01*
X181466796Y-132355232D01*
X181546696Y-132389159D01*
X181693823Y-132398319D01*
X181709642Y-132398354D01*
X181952200Y-132398309D01*
X182060757Y-132106254D01*
X182131966Y-131915032D01*
X182221473Y-131675167D01*
X182311925Y-131433154D01*
X182327201Y-131392327D01*
X182485089Y-130970454D01*
X182247841Y-130985927D01*
X182010592Y-131001400D01*
X181900171Y-131363862D01*
X181824605Y-131610229D01*
X181770664Y-131762383D01*
X181728539Y-131822724D01*
X181688421Y-131793653D01*
X181640502Y-131677572D01*
X181574973Y-131476882D01*
X181565033Y-131445900D01*
X181414061Y-130976000D01*
X181187830Y-130976000D01*
X181052321Y-130986093D01*
X180971532Y-131011602D01*
X180961600Y-131026321D01*
X180809200Y-131026321D01*
X180809200Y-130976000D01*
X179539200Y-130976000D01*
X177876988Y-130976000D01*
X177960344Y-130819762D01*
X178306335Y-130382605D01*
X178395937Y-130289937D01*
X178829855Y-129920984D01*
X179301138Y-129646110D01*
X179813891Y-129463472D01*
X180372221Y-129371229D01*
X180458058Y-129365198D01*
X181036573Y-129378607D01*
%TD*%
M02*
