%TF.GenerationSoftware,KiCad,Pcbnew,(5.1.10)-1*%
%TF.CreationDate,2021-09-12T14:26:05+02:00*%
%TF.ProjectId,LED_Cube_5X5X5_PCB2,4c45445f-4375-4626-955f-35583558355f,rev?*%
%TF.SameCoordinates,Original*%
%TF.FileFunction,Legend,Bot*%
%TF.FilePolarity,Positive*%
%FSLAX46Y46*%
G04 Gerber Fmt 4.6, Leading zero omitted, Abs format (unit mm)*
G04 Created by KiCad (PCBNEW (5.1.10)-1) date 2021-09-12 14:26:05*
%MOMM*%
%LPD*%
G01*
G04 APERTURE LIST*
%ADD10C,0.200000*%
%ADD11C,0.010000*%
%ADD12C,0.120000*%
G04 APERTURE END LIST*
D10*
X118928571Y-145178571D02*
X118928571Y-146250000D01*
X119000000Y-146464285D01*
X119142857Y-146607142D01*
X119357142Y-146678571D01*
X119500000Y-146678571D01*
X117500000Y-146678571D02*
X118214285Y-146678571D01*
X118214285Y-145178571D01*
X116142857Y-146535714D02*
X116214285Y-146607142D01*
X116428571Y-146678571D01*
X116571428Y-146678571D01*
X116785714Y-146607142D01*
X116928571Y-146464285D01*
X117000000Y-146321428D01*
X117071428Y-146035714D01*
X117071428Y-145821428D01*
X117000000Y-145535714D01*
X116928571Y-145392857D01*
X116785714Y-145250000D01*
X116571428Y-145178571D01*
X116428571Y-145178571D01*
X116214285Y-145250000D01*
X116142857Y-145321428D01*
X115071428Y-145178571D02*
X115071428Y-146250000D01*
X115142857Y-146464285D01*
X115285714Y-146607142D01*
X115500000Y-146678571D01*
X115642857Y-146678571D01*
X113642857Y-146678571D02*
X114357142Y-146678571D01*
X114357142Y-145178571D01*
X112285714Y-146535714D02*
X112357142Y-146607142D01*
X112571428Y-146678571D01*
X112714285Y-146678571D01*
X112928571Y-146607142D01*
X113071428Y-146464285D01*
X113142857Y-146321428D01*
X113214285Y-146035714D01*
X113214285Y-145821428D01*
X113142857Y-145535714D01*
X113071428Y-145392857D01*
X112928571Y-145250000D01*
X112714285Y-145178571D01*
X112571428Y-145178571D01*
X112357142Y-145250000D01*
X112285714Y-145321428D01*
X111214285Y-145178571D02*
X111214285Y-146250000D01*
X111285714Y-146464285D01*
X111428571Y-146607142D01*
X111642857Y-146678571D01*
X111785714Y-146678571D01*
X109785714Y-146678571D02*
X110500000Y-146678571D01*
X110500000Y-145178571D01*
X108428571Y-146535714D02*
X108500000Y-146607142D01*
X108714285Y-146678571D01*
X108857142Y-146678571D01*
X109071428Y-146607142D01*
X109214285Y-146464285D01*
X109285714Y-146321428D01*
X109357142Y-146035714D01*
X109357142Y-145821428D01*
X109285714Y-145535714D01*
X109214285Y-145392857D01*
X109071428Y-145250000D01*
X108857142Y-145178571D01*
X108714285Y-145178571D01*
X108500000Y-145250000D01*
X108428571Y-145321428D01*
X107357142Y-145178571D02*
X107357142Y-146250000D01*
X107428571Y-146464285D01*
X107571428Y-146607142D01*
X107785714Y-146678571D01*
X107928571Y-146678571D01*
X105928571Y-146678571D02*
X106642857Y-146678571D01*
X106642857Y-145178571D01*
X104571428Y-146535714D02*
X104642857Y-146607142D01*
X104857142Y-146678571D01*
X105000000Y-146678571D01*
X105214285Y-146607142D01*
X105357142Y-146464285D01*
X105428571Y-146321428D01*
X105500000Y-146035714D01*
X105500000Y-145821428D01*
X105428571Y-145535714D01*
X105357142Y-145392857D01*
X105214285Y-145250000D01*
X105000000Y-145178571D01*
X104857142Y-145178571D01*
X104642857Y-145250000D01*
X104571428Y-145321428D01*
D11*
%TO.C,G\u002A\u002A\u002A*%
G36*
X107104847Y-44653026D02*
G01*
X107180185Y-44646665D01*
X107229321Y-44637346D01*
X107321437Y-44603119D01*
X107412698Y-44551765D01*
X107496411Y-44488136D01*
X107565882Y-44417082D01*
X107600933Y-44368057D01*
X107640878Y-44279193D01*
X107662275Y-44179432D01*
X107665188Y-44075156D01*
X107649682Y-43972752D01*
X107615822Y-43878603D01*
X107595605Y-43842200D01*
X107527889Y-43756168D01*
X107441974Y-43681069D01*
X107344331Y-43621784D01*
X107258724Y-43587999D01*
X107201962Y-43575741D01*
X107132243Y-43567515D01*
X107057365Y-43563540D01*
X106985127Y-43564034D01*
X106923328Y-43569217D01*
X106884750Y-43577500D01*
X106769541Y-43623248D01*
X106675126Y-43677546D01*
X106597650Y-43742806D01*
X106567768Y-43775813D01*
X106510169Y-43854458D01*
X106472668Y-43931361D01*
X106452750Y-44014044D01*
X106447896Y-44110028D01*
X106448535Y-44132103D01*
X106452444Y-44193346D01*
X106460065Y-44239779D01*
X106473868Y-44281962D01*
X106493665Y-44325121D01*
X106554254Y-44420116D01*
X106634517Y-44503780D01*
X106729922Y-44572479D01*
X106835937Y-44622579D01*
X106883078Y-44637346D01*
X106945998Y-44648367D01*
X107023353Y-44653594D01*
X107104847Y-44653026D01*
G37*
X107104847Y-44653026D02*
X107180185Y-44646665D01*
X107229321Y-44637346D01*
X107321437Y-44603119D01*
X107412698Y-44551765D01*
X107496411Y-44488136D01*
X107565882Y-44417082D01*
X107600933Y-44368057D01*
X107640878Y-44279193D01*
X107662275Y-44179432D01*
X107665188Y-44075156D01*
X107649682Y-43972752D01*
X107615822Y-43878603D01*
X107595605Y-43842200D01*
X107527889Y-43756168D01*
X107441974Y-43681069D01*
X107344331Y-43621784D01*
X107258724Y-43587999D01*
X107201962Y-43575741D01*
X107132243Y-43567515D01*
X107057365Y-43563540D01*
X106985127Y-43564034D01*
X106923328Y-43569217D01*
X106884750Y-43577500D01*
X106769541Y-43623248D01*
X106675126Y-43677546D01*
X106597650Y-43742806D01*
X106567768Y-43775813D01*
X106510169Y-43854458D01*
X106472668Y-43931361D01*
X106452750Y-44014044D01*
X106447896Y-44110028D01*
X106448535Y-44132103D01*
X106452444Y-44193346D01*
X106460065Y-44239779D01*
X106473868Y-44281962D01*
X106493665Y-44325121D01*
X106554254Y-44420116D01*
X106634517Y-44503780D01*
X106729922Y-44572479D01*
X106835937Y-44622579D01*
X106883078Y-44637346D01*
X106945998Y-44648367D01*
X107023353Y-44653594D01*
X107104847Y-44653026D01*
G36*
X109227774Y-44388118D02*
G01*
X109321328Y-44387511D01*
X109393794Y-44386396D01*
X109447325Y-44384685D01*
X109484076Y-44382292D01*
X109506202Y-44379133D01*
X109515857Y-44375119D01*
X109516503Y-44372106D01*
X109511985Y-44358112D01*
X109500663Y-44322242D01*
X109483279Y-44266873D01*
X109460572Y-44194381D01*
X109433285Y-44107144D01*
X109402158Y-44007538D01*
X109367932Y-43897940D01*
X109331349Y-43780728D01*
X109293149Y-43658279D01*
X109254074Y-43532969D01*
X109214865Y-43407175D01*
X109176262Y-43283275D01*
X109139008Y-43163645D01*
X109103843Y-43050662D01*
X109071507Y-42946704D01*
X109042743Y-42854147D01*
X109018292Y-42775369D01*
X108998894Y-42712745D01*
X108985290Y-42668654D01*
X108979733Y-42650487D01*
X108976445Y-42640022D01*
X108973973Y-42631303D01*
X108973416Y-42625406D01*
X108975871Y-42623410D01*
X108982436Y-42626391D01*
X108994209Y-42635427D01*
X109012289Y-42651597D01*
X109037772Y-42675976D01*
X109071758Y-42709643D01*
X109115343Y-42753676D01*
X109169627Y-42809151D01*
X109235706Y-42877146D01*
X109314680Y-42958739D01*
X109407645Y-43055008D01*
X109515700Y-43167029D01*
X109639943Y-43295880D01*
X109684964Y-43342569D01*
X109907350Y-43573188D01*
X110452996Y-43575500D01*
X110319892Y-43438975D01*
X110258276Y-43375791D01*
X110187444Y-43303175D01*
X110115922Y-43229871D01*
X110052241Y-43164621D01*
X110049147Y-43161452D01*
X109911507Y-43020454D01*
X110053924Y-43011443D01*
X110152025Y-43002310D01*
X110228629Y-42987986D01*
X110287336Y-42967193D01*
X110331746Y-42938653D01*
X110365459Y-42901087D01*
X110365686Y-42900760D01*
X110383438Y-42871648D01*
X110395740Y-42841216D01*
X110402225Y-42806705D01*
X110402524Y-42765356D01*
X110396272Y-42714411D01*
X110383099Y-42651113D01*
X110362639Y-42572702D01*
X110334524Y-42476421D01*
X110298386Y-42359510D01*
X110290028Y-42332983D01*
X110261869Y-42243419D01*
X110236387Y-42161620D01*
X110214548Y-42090747D01*
X110197319Y-42033963D01*
X110185665Y-41994428D01*
X110180552Y-41975305D01*
X110180400Y-41974208D01*
X110192734Y-41971338D01*
X110228275Y-41968782D01*
X110284831Y-41966595D01*
X110360211Y-41964831D01*
X110452223Y-41963543D01*
X110558675Y-41962787D01*
X110650300Y-41962600D01*
X110788296Y-41962255D01*
X110902910Y-41961227D01*
X110993753Y-41959526D01*
X111060437Y-41957163D01*
X111102576Y-41954149D01*
X111119781Y-41950494D01*
X111120200Y-41949762D01*
X111115156Y-41931679D01*
X111102256Y-41899465D01*
X111092030Y-41876737D01*
X111041437Y-41797598D01*
X110969501Y-41727981D01*
X110879183Y-41670036D01*
X110773445Y-41625909D01*
X110727997Y-41612737D01*
X110706070Y-41608020D01*
X110679047Y-41604168D01*
X110644531Y-41601123D01*
X110600125Y-41598828D01*
X110543432Y-41597225D01*
X110472057Y-41596255D01*
X110383601Y-41595861D01*
X110275669Y-41595984D01*
X110145864Y-41596567D01*
X110076571Y-41596984D01*
X109940617Y-41597880D01*
X109827687Y-41598758D01*
X109735406Y-41599738D01*
X109661399Y-41600938D01*
X109603289Y-41602477D01*
X109558701Y-41604475D01*
X109525260Y-41607050D01*
X109500591Y-41610321D01*
X109482318Y-41614407D01*
X109468065Y-41619427D01*
X109455458Y-41625501D01*
X109450150Y-41628358D01*
X109409834Y-41657481D01*
X109374083Y-41694642D01*
X109367952Y-41703112D01*
X109350608Y-41733459D01*
X109341266Y-41764708D01*
X109337885Y-41806192D01*
X109337876Y-41840505D01*
X109339360Y-41871338D01*
X109343476Y-41904831D01*
X109351067Y-41944309D01*
X109362974Y-41993098D01*
X109380038Y-42054525D01*
X109403100Y-42131916D01*
X109433002Y-42228597D01*
X109448648Y-42278442D01*
X109476707Y-42367762D01*
X109502106Y-42449019D01*
X109523886Y-42519114D01*
X109541089Y-42574948D01*
X109552756Y-42613421D01*
X109557928Y-42631433D01*
X109558099Y-42632330D01*
X109549356Y-42625969D01*
X109524946Y-42604579D01*
X109487597Y-42570647D01*
X109440038Y-42526658D01*
X109384998Y-42475098D01*
X109370775Y-42461682D01*
X109309891Y-42404540D01*
X109234967Y-42334802D01*
X109150802Y-42256903D01*
X109062201Y-42175278D01*
X108973965Y-42094363D01*
X108897700Y-42024779D01*
X108793167Y-41929728D01*
X108704847Y-41850213D01*
X108630038Y-41784821D01*
X108566037Y-41732135D01*
X108510143Y-41690740D01*
X108459652Y-41659222D01*
X108411863Y-41636166D01*
X108364074Y-41620155D01*
X108313581Y-41609776D01*
X108257683Y-41603613D01*
X108193677Y-41600251D01*
X108118862Y-41598274D01*
X108081725Y-41597477D01*
X107995558Y-41596176D01*
X107924849Y-41596291D01*
X107872165Y-41597757D01*
X107840073Y-41600507D01*
X107830900Y-41603864D01*
X107834777Y-41621412D01*
X107844848Y-41654983D01*
X107856300Y-41689551D01*
X107869740Y-41730364D01*
X107878947Y-41761668D01*
X107881700Y-41774845D01*
X107872984Y-41773521D01*
X107850236Y-41758758D01*
X107821375Y-41736180D01*
X107757632Y-41688442D01*
X107693159Y-41652865D01*
X107616873Y-41623032D01*
X107593311Y-41616741D01*
X107561461Y-41611616D01*
X107518404Y-41607483D01*
X107461222Y-41604166D01*
X107386997Y-41601491D01*
X107292812Y-41599283D01*
X107193159Y-41597616D01*
X106828468Y-41592270D01*
X106770136Y-41412812D01*
X106715418Y-41260912D01*
X106656377Y-41131189D01*
X106590725Y-41020504D01*
X106516174Y-40925714D01*
X106430435Y-40843680D01*
X106331220Y-40771261D01*
X106280010Y-40740071D01*
X106191182Y-40697084D01*
X106090421Y-40662239D01*
X105983248Y-40636333D01*
X105875183Y-40620165D01*
X105771747Y-40614532D01*
X105678460Y-40620231D01*
X105600841Y-40638060D01*
X105593328Y-40640862D01*
X105501921Y-40685879D01*
X105427144Y-40744526D01*
X105364672Y-40820869D01*
X105320960Y-40896790D01*
X105286266Y-40977842D01*
X105264743Y-41060017D01*
X105254486Y-41152188D01*
X105253438Y-41194250D01*
X105716708Y-41194250D01*
X105717080Y-41135096D01*
X105719405Y-41094448D01*
X105725078Y-41065422D01*
X105735494Y-41041131D01*
X105752051Y-41014689D01*
X105753549Y-41012471D01*
X105778212Y-40980216D01*
X105793947Y-40970075D01*
X105799792Y-40974371D01*
X105806118Y-40990760D01*
X105818941Y-41027778D01*
X105837071Y-41081847D01*
X105859316Y-41149389D01*
X105884483Y-41226824D01*
X105901517Y-41279748D01*
X105927152Y-41360811D01*
X105949503Y-41433642D01*
X105967577Y-41494833D01*
X105980387Y-41540976D01*
X105986941Y-41568664D01*
X105987344Y-41575190D01*
X105970093Y-41576255D01*
X105939249Y-41565092D01*
X105901270Y-41545061D01*
X105862614Y-41519523D01*
X105832727Y-41494744D01*
X105797201Y-41454645D01*
X105763041Y-41406347D01*
X105750482Y-41384750D01*
X105734636Y-41351875D01*
X105724678Y-41321078D01*
X105719265Y-41284797D01*
X105717057Y-41235469D01*
X105716708Y-41194250D01*
X105253438Y-41194250D01*
X105252950Y-41213807D01*
X105260141Y-41340671D01*
X105283375Y-41451354D01*
X105324633Y-41550829D01*
X105385897Y-41644068D01*
X105455718Y-41722677D01*
X105511331Y-41775895D01*
X105561178Y-41815448D01*
X105614576Y-41848109D01*
X105659200Y-41870564D01*
X105774113Y-41916665D01*
X105890629Y-41947785D01*
X106000820Y-41961942D01*
X106027577Y-41962600D01*
X106100738Y-41962600D01*
X106183779Y-42219775D01*
X106211425Y-42305411D01*
X106244635Y-42408309D01*
X106281180Y-42521561D01*
X106318828Y-42638255D01*
X106355352Y-42751479D01*
X106378427Y-42823025D01*
X106490033Y-43169101D01*
X106900116Y-43169100D01*
X106999278Y-43168789D01*
X107089804Y-43167906D01*
X107168701Y-43166528D01*
X107232977Y-43164731D01*
X107279641Y-43162591D01*
X107305699Y-43160184D01*
X107310200Y-43158638D01*
X107306509Y-43144783D01*
X107295927Y-43109085D01*
X107279188Y-43053929D01*
X107257026Y-42981699D01*
X107230177Y-42894780D01*
X107199374Y-42795556D01*
X107165353Y-42686413D01*
X107128848Y-42569736D01*
X107126050Y-42560809D01*
X107089420Y-42443866D01*
X107055214Y-42334453D01*
X107024166Y-42234929D01*
X106997008Y-42147653D01*
X106974471Y-42074982D01*
X106957291Y-42019276D01*
X106946197Y-41982893D01*
X106941925Y-41968192D01*
X106941900Y-41968021D01*
X106954148Y-41966830D01*
X106989085Y-41965729D01*
X107044001Y-41964747D01*
X107116184Y-41963916D01*
X107202924Y-41963263D01*
X107301511Y-41962819D01*
X107409233Y-41962612D01*
X107441547Y-41962600D01*
X107941194Y-41962600D01*
X108320215Y-43175450D01*
X108699235Y-44388300D01*
X109110976Y-44388300D01*
X109227774Y-44388118D01*
G37*
X109227774Y-44388118D02*
X109321328Y-44387511D01*
X109393794Y-44386396D01*
X109447325Y-44384685D01*
X109484076Y-44382292D01*
X109506202Y-44379133D01*
X109515857Y-44375119D01*
X109516503Y-44372106D01*
X109511985Y-44358112D01*
X109500663Y-44322242D01*
X109483279Y-44266873D01*
X109460572Y-44194381D01*
X109433285Y-44107144D01*
X109402158Y-44007538D01*
X109367932Y-43897940D01*
X109331349Y-43780728D01*
X109293149Y-43658279D01*
X109254074Y-43532969D01*
X109214865Y-43407175D01*
X109176262Y-43283275D01*
X109139008Y-43163645D01*
X109103843Y-43050662D01*
X109071507Y-42946704D01*
X109042743Y-42854147D01*
X109018292Y-42775369D01*
X108998894Y-42712745D01*
X108985290Y-42668654D01*
X108979733Y-42650487D01*
X108976445Y-42640022D01*
X108973973Y-42631303D01*
X108973416Y-42625406D01*
X108975871Y-42623410D01*
X108982436Y-42626391D01*
X108994209Y-42635427D01*
X109012289Y-42651597D01*
X109037772Y-42675976D01*
X109071758Y-42709643D01*
X109115343Y-42753676D01*
X109169627Y-42809151D01*
X109235706Y-42877146D01*
X109314680Y-42958739D01*
X109407645Y-43055008D01*
X109515700Y-43167029D01*
X109639943Y-43295880D01*
X109684964Y-43342569D01*
X109907350Y-43573188D01*
X110452996Y-43575500D01*
X110319892Y-43438975D01*
X110258276Y-43375791D01*
X110187444Y-43303175D01*
X110115922Y-43229871D01*
X110052241Y-43164621D01*
X110049147Y-43161452D01*
X109911507Y-43020454D01*
X110053924Y-43011443D01*
X110152025Y-43002310D01*
X110228629Y-42987986D01*
X110287336Y-42967193D01*
X110331746Y-42938653D01*
X110365459Y-42901087D01*
X110365686Y-42900760D01*
X110383438Y-42871648D01*
X110395740Y-42841216D01*
X110402225Y-42806705D01*
X110402524Y-42765356D01*
X110396272Y-42714411D01*
X110383099Y-42651113D01*
X110362639Y-42572702D01*
X110334524Y-42476421D01*
X110298386Y-42359510D01*
X110290028Y-42332983D01*
X110261869Y-42243419D01*
X110236387Y-42161620D01*
X110214548Y-42090747D01*
X110197319Y-42033963D01*
X110185665Y-41994428D01*
X110180552Y-41975305D01*
X110180400Y-41974208D01*
X110192734Y-41971338D01*
X110228275Y-41968782D01*
X110284831Y-41966595D01*
X110360211Y-41964831D01*
X110452223Y-41963543D01*
X110558675Y-41962787D01*
X110650300Y-41962600D01*
X110788296Y-41962255D01*
X110902910Y-41961227D01*
X110993753Y-41959526D01*
X111060437Y-41957163D01*
X111102576Y-41954149D01*
X111119781Y-41950494D01*
X111120200Y-41949762D01*
X111115156Y-41931679D01*
X111102256Y-41899465D01*
X111092030Y-41876737D01*
X111041437Y-41797598D01*
X110969501Y-41727981D01*
X110879183Y-41670036D01*
X110773445Y-41625909D01*
X110727997Y-41612737D01*
X110706070Y-41608020D01*
X110679047Y-41604168D01*
X110644531Y-41601123D01*
X110600125Y-41598828D01*
X110543432Y-41597225D01*
X110472057Y-41596255D01*
X110383601Y-41595861D01*
X110275669Y-41595984D01*
X110145864Y-41596567D01*
X110076571Y-41596984D01*
X109940617Y-41597880D01*
X109827687Y-41598758D01*
X109735406Y-41599738D01*
X109661399Y-41600938D01*
X109603289Y-41602477D01*
X109558701Y-41604475D01*
X109525260Y-41607050D01*
X109500591Y-41610321D01*
X109482318Y-41614407D01*
X109468065Y-41619427D01*
X109455458Y-41625501D01*
X109450150Y-41628358D01*
X109409834Y-41657481D01*
X109374083Y-41694642D01*
X109367952Y-41703112D01*
X109350608Y-41733459D01*
X109341266Y-41764708D01*
X109337885Y-41806192D01*
X109337876Y-41840505D01*
X109339360Y-41871338D01*
X109343476Y-41904831D01*
X109351067Y-41944309D01*
X109362974Y-41993098D01*
X109380038Y-42054525D01*
X109403100Y-42131916D01*
X109433002Y-42228597D01*
X109448648Y-42278442D01*
X109476707Y-42367762D01*
X109502106Y-42449019D01*
X109523886Y-42519114D01*
X109541089Y-42574948D01*
X109552756Y-42613421D01*
X109557928Y-42631433D01*
X109558099Y-42632330D01*
X109549356Y-42625969D01*
X109524946Y-42604579D01*
X109487597Y-42570647D01*
X109440038Y-42526658D01*
X109384998Y-42475098D01*
X109370775Y-42461682D01*
X109309891Y-42404540D01*
X109234967Y-42334802D01*
X109150802Y-42256903D01*
X109062201Y-42175278D01*
X108973965Y-42094363D01*
X108897700Y-42024779D01*
X108793167Y-41929728D01*
X108704847Y-41850213D01*
X108630038Y-41784821D01*
X108566037Y-41732135D01*
X108510143Y-41690740D01*
X108459652Y-41659222D01*
X108411863Y-41636166D01*
X108364074Y-41620155D01*
X108313581Y-41609776D01*
X108257683Y-41603613D01*
X108193677Y-41600251D01*
X108118862Y-41598274D01*
X108081725Y-41597477D01*
X107995558Y-41596176D01*
X107924849Y-41596291D01*
X107872165Y-41597757D01*
X107840073Y-41600507D01*
X107830900Y-41603864D01*
X107834777Y-41621412D01*
X107844848Y-41654983D01*
X107856300Y-41689551D01*
X107869740Y-41730364D01*
X107878947Y-41761668D01*
X107881700Y-41774845D01*
X107872984Y-41773521D01*
X107850236Y-41758758D01*
X107821375Y-41736180D01*
X107757632Y-41688442D01*
X107693159Y-41652865D01*
X107616873Y-41623032D01*
X107593311Y-41616741D01*
X107561461Y-41611616D01*
X107518404Y-41607483D01*
X107461222Y-41604166D01*
X107386997Y-41601491D01*
X107292812Y-41599283D01*
X107193159Y-41597616D01*
X106828468Y-41592270D01*
X106770136Y-41412812D01*
X106715418Y-41260912D01*
X106656377Y-41131189D01*
X106590725Y-41020504D01*
X106516174Y-40925714D01*
X106430435Y-40843680D01*
X106331220Y-40771261D01*
X106280010Y-40740071D01*
X106191182Y-40697084D01*
X106090421Y-40662239D01*
X105983248Y-40636333D01*
X105875183Y-40620165D01*
X105771747Y-40614532D01*
X105678460Y-40620231D01*
X105600841Y-40638060D01*
X105593328Y-40640862D01*
X105501921Y-40685879D01*
X105427144Y-40744526D01*
X105364672Y-40820869D01*
X105320960Y-40896790D01*
X105286266Y-40977842D01*
X105264743Y-41060017D01*
X105254486Y-41152188D01*
X105253438Y-41194250D01*
X105716708Y-41194250D01*
X105717080Y-41135096D01*
X105719405Y-41094448D01*
X105725078Y-41065422D01*
X105735494Y-41041131D01*
X105752051Y-41014689D01*
X105753549Y-41012471D01*
X105778212Y-40980216D01*
X105793947Y-40970075D01*
X105799792Y-40974371D01*
X105806118Y-40990760D01*
X105818941Y-41027778D01*
X105837071Y-41081847D01*
X105859316Y-41149389D01*
X105884483Y-41226824D01*
X105901517Y-41279748D01*
X105927152Y-41360811D01*
X105949503Y-41433642D01*
X105967577Y-41494833D01*
X105980387Y-41540976D01*
X105986941Y-41568664D01*
X105987344Y-41575190D01*
X105970093Y-41576255D01*
X105939249Y-41565092D01*
X105901270Y-41545061D01*
X105862614Y-41519523D01*
X105832727Y-41494744D01*
X105797201Y-41454645D01*
X105763041Y-41406347D01*
X105750482Y-41384750D01*
X105734636Y-41351875D01*
X105724678Y-41321078D01*
X105719265Y-41284797D01*
X105717057Y-41235469D01*
X105716708Y-41194250D01*
X105253438Y-41194250D01*
X105252950Y-41213807D01*
X105260141Y-41340671D01*
X105283375Y-41451354D01*
X105324633Y-41550829D01*
X105385897Y-41644068D01*
X105455718Y-41722677D01*
X105511331Y-41775895D01*
X105561178Y-41815448D01*
X105614576Y-41848109D01*
X105659200Y-41870564D01*
X105774113Y-41916665D01*
X105890629Y-41947785D01*
X106000820Y-41961942D01*
X106027577Y-41962600D01*
X106100738Y-41962600D01*
X106183779Y-42219775D01*
X106211425Y-42305411D01*
X106244635Y-42408309D01*
X106281180Y-42521561D01*
X106318828Y-42638255D01*
X106355352Y-42751479D01*
X106378427Y-42823025D01*
X106490033Y-43169101D01*
X106900116Y-43169100D01*
X106999278Y-43168789D01*
X107089804Y-43167906D01*
X107168701Y-43166528D01*
X107232977Y-43164731D01*
X107279641Y-43162591D01*
X107305699Y-43160184D01*
X107310200Y-43158638D01*
X107306509Y-43144783D01*
X107295927Y-43109085D01*
X107279188Y-43053929D01*
X107257026Y-42981699D01*
X107230177Y-42894780D01*
X107199374Y-42795556D01*
X107165353Y-42686413D01*
X107128848Y-42569736D01*
X107126050Y-42560809D01*
X107089420Y-42443866D01*
X107055214Y-42334453D01*
X107024166Y-42234929D01*
X106997008Y-42147653D01*
X106974471Y-42074982D01*
X106957291Y-42019276D01*
X106946197Y-41982893D01*
X106941925Y-41968192D01*
X106941900Y-41968021D01*
X106954148Y-41966830D01*
X106989085Y-41965729D01*
X107044001Y-41964747D01*
X107116184Y-41963916D01*
X107202924Y-41963263D01*
X107301511Y-41962819D01*
X107409233Y-41962612D01*
X107441547Y-41962600D01*
X107941194Y-41962600D01*
X108320215Y-43175450D01*
X108699235Y-44388300D01*
X109110976Y-44388300D01*
X109227774Y-44388118D01*
D12*
%TO.C,J1*%
X100501000Y-43000000D02*
G75*
G03*
X100501000Y-43000000I-1251000J0D01*
G01*
%TO.C,J2*%
X125501000Y-43000000D02*
G75*
G03*
X125501000Y-43000000I-1251000J0D01*
G01*
%TO.C,J3*%
X150501000Y-43000000D02*
G75*
G03*
X150501000Y-43000000I-1251000J0D01*
G01*
%TO.C,J4*%
X175501000Y-43000000D02*
G75*
G03*
X175501000Y-43000000I-1251000J0D01*
G01*
%TO.C,J5*%
X200501000Y-43000000D02*
G75*
G03*
X200501000Y-43000000I-1251000J0D01*
G01*
%TO.C,J6*%
X100501000Y-68000000D02*
G75*
G03*
X100501000Y-68000000I-1251000J0D01*
G01*
%TO.C,J7*%
X125501000Y-68000000D02*
G75*
G03*
X125501000Y-68000000I-1251000J0D01*
G01*
%TO.C,J8*%
X150501000Y-68000000D02*
G75*
G03*
X150501000Y-68000000I-1251000J0D01*
G01*
%TO.C,J9*%
X175501000Y-68000000D02*
G75*
G03*
X175501000Y-68000000I-1251000J0D01*
G01*
%TO.C,J10*%
X200501000Y-68000000D02*
G75*
G03*
X200501000Y-68000000I-1251000J0D01*
G01*
%TO.C,J11*%
X100501000Y-93000000D02*
G75*
G03*
X100501000Y-93000000I-1251000J0D01*
G01*
%TO.C,J12*%
X125501000Y-93000000D02*
G75*
G03*
X125501000Y-93000000I-1251000J0D01*
G01*
%TO.C,J13*%
X150501000Y-93000000D02*
G75*
G03*
X150501000Y-93000000I-1251000J0D01*
G01*
%TO.C,J14*%
X175501000Y-93000000D02*
G75*
G03*
X175501000Y-93000000I-1251000J0D01*
G01*
%TO.C,J15*%
X200501000Y-93000000D02*
G75*
G03*
X200501000Y-93000000I-1251000J0D01*
G01*
%TO.C,J16*%
X100501000Y-118000000D02*
G75*
G03*
X100501000Y-118000000I-1251000J0D01*
G01*
%TO.C,J17*%
X125501000Y-118000000D02*
G75*
G03*
X125501000Y-118000000I-1251000J0D01*
G01*
%TO.C,J18*%
X150501000Y-118000000D02*
G75*
G03*
X150501000Y-118000000I-1251000J0D01*
G01*
%TO.C,J19*%
X175501000Y-118000000D02*
G75*
G03*
X175501000Y-118000000I-1251000J0D01*
G01*
%TO.C,J20*%
X200501000Y-118000000D02*
G75*
G03*
X200501000Y-118000000I-1251000J0D01*
G01*
%TO.C,J21*%
X100501000Y-143000000D02*
G75*
G03*
X100501000Y-143000000I-1251000J0D01*
G01*
%TO.C,J22*%
X125501000Y-143000000D02*
G75*
G03*
X125501000Y-143000000I-1251000J0D01*
G01*
%TO.C,J23*%
X150501000Y-143000000D02*
G75*
G03*
X150501000Y-143000000I-1251000J0D01*
G01*
%TO.C,J24*%
X175501000Y-142750000D02*
G75*
G03*
X175501000Y-142750000I-1251000J0D01*
G01*
%TO.C,J25*%
X200501000Y-143000000D02*
G75*
G03*
X200501000Y-143000000I-1251000J0D01*
G01*
%TO.C,J26*%
X98001000Y-45500000D02*
G75*
G03*
X98001000Y-45500000I-1251000J0D01*
G01*
%TO.C,J27*%
X98001000Y-65500000D02*
G75*
G03*
X98001000Y-65500000I-1251000J0D01*
G01*
%TO.C,J28*%
X98001000Y-90500000D02*
G75*
G03*
X98001000Y-90500000I-1251000J0D01*
G01*
%TO.C,J29*%
X98001000Y-115500000D02*
G75*
G03*
X98001000Y-115500000I-1251000J0D01*
G01*
%TO.C,J30*%
X98001000Y-140500000D02*
G75*
G03*
X98001000Y-140500000I-1251000J0D01*
G01*
%TO.C,J31*%
X107950000Y-74410000D02*
X113150000Y-74410000D01*
X107950000Y-61590000D02*
X113150000Y-61590000D01*
X106510000Y-73840000D02*
X107950000Y-73840000D01*
X107950000Y-74410000D02*
X107950000Y-73840000D01*
X113150000Y-74410000D02*
X113150000Y-73840000D01*
X107950000Y-62160000D02*
X107950000Y-61590000D01*
X113150000Y-62160000D02*
X113150000Y-61590000D01*
X107950000Y-72320000D02*
X107950000Y-71300000D01*
X113150000Y-72320000D02*
X113150000Y-71300000D01*
X107950000Y-69780000D02*
X107950000Y-68760000D01*
X113150000Y-69780000D02*
X113150000Y-68760000D01*
X107950000Y-67240000D02*
X107950000Y-66220000D01*
X113150000Y-67240000D02*
X113150000Y-66220000D01*
X107950000Y-64700000D02*
X107950000Y-63680000D01*
X113150000Y-64700000D02*
X113150000Y-63680000D01*
%TO.C,J32*%
X113100000Y-89700000D02*
X113100000Y-88680000D01*
X107900000Y-89700000D02*
X107900000Y-88680000D01*
X113100000Y-92240000D02*
X113100000Y-91220000D01*
X107900000Y-92240000D02*
X107900000Y-91220000D01*
X113100000Y-94780000D02*
X113100000Y-93760000D01*
X107900000Y-94780000D02*
X107900000Y-93760000D01*
X113100000Y-97320000D02*
X113100000Y-96300000D01*
X107900000Y-97320000D02*
X107900000Y-96300000D01*
X113100000Y-87160000D02*
X113100000Y-86590000D01*
X107900000Y-87160000D02*
X107900000Y-86590000D01*
X113100000Y-99410000D02*
X113100000Y-98840000D01*
X107900000Y-99410000D02*
X107900000Y-98840000D01*
X106460000Y-98840000D02*
X107900000Y-98840000D01*
X107900000Y-86590000D02*
X113100000Y-86590000D01*
X107900000Y-99410000D02*
X113100000Y-99410000D01*
%TO.C,J33*%
X107900000Y-124410000D02*
X113100000Y-124410000D01*
X107900000Y-111590000D02*
X113100000Y-111590000D01*
X106460000Y-123840000D02*
X107900000Y-123840000D01*
X107900000Y-124410000D02*
X107900000Y-123840000D01*
X113100000Y-124410000D02*
X113100000Y-123840000D01*
X107900000Y-112160000D02*
X107900000Y-111590000D01*
X113100000Y-112160000D02*
X113100000Y-111590000D01*
X107900000Y-122320000D02*
X107900000Y-121300000D01*
X113100000Y-122320000D02*
X113100000Y-121300000D01*
X107900000Y-119780000D02*
X107900000Y-118760000D01*
X113100000Y-119780000D02*
X113100000Y-118760000D01*
X107900000Y-117240000D02*
X107900000Y-116220000D01*
X113100000Y-117240000D02*
X113100000Y-116220000D01*
X107900000Y-114700000D02*
X107900000Y-113680000D01*
X113100000Y-114700000D02*
X113100000Y-113680000D01*
%TD*%
M02*
