%TF.GenerationSoftware,KiCad,Pcbnew,(5.1.10)-1*%
%TF.CreationDate,2021-09-12T14:26:05+02:00*%
%TF.ProjectId,LED_Cube_5X5X5_PCB2,4c45445f-4375-4626-955f-35583558355f,rev?*%
%TF.SameCoordinates,Original*%
%TF.FileFunction,Copper,L1,Top*%
%TF.FilePolarity,Positive*%
%FSLAX46Y46*%
G04 Gerber Fmt 4.6, Leading zero omitted, Abs format (unit mm)*
G04 Created by KiCad (PCBNEW (5.1.10)-1) date 2021-09-12 14:26:05*
%MOMM*%
%LPD*%
G01*
G04 APERTURE LIST*
%TA.AperFunction,ComponentPad*%
%ADD10C,2.000000*%
%TD*%
%TA.AperFunction,ViaPad*%
%ADD11C,0.800000*%
%TD*%
%TA.AperFunction,Conductor*%
%ADD12C,0.508000*%
%TD*%
G04 APERTURE END LIST*
D10*
%TO.P,J1,1*%
%TO.N,Net-(J1-Pad1)*%
X99250000Y-43000000D03*
%TD*%
%TO.P,J2,1*%
%TO.N,Net-(J2-Pad1)*%
X124250000Y-43000000D03*
%TD*%
%TO.P,J3,1*%
%TO.N,Net-(J3-Pad1)*%
X149250000Y-43000000D03*
%TD*%
%TO.P,J4,1*%
%TO.N,Net-(J31-Pad4)*%
X174250000Y-43000000D03*
%TD*%
%TO.P,J5,1*%
%TO.N,Net-(J31-Pad2)*%
X199250000Y-43000000D03*
%TD*%
%TO.P,J6,1*%
%TO.N,Net-(J31-Pad5)*%
X99250000Y-68000000D03*
%TD*%
%TO.P,J7,1*%
%TO.N,Net-(J31-Pad7)*%
X124250000Y-68000000D03*
%TD*%
%TO.P,J8,1*%
%TO.N,Net-(J31-Pad9)*%
X149250000Y-68000000D03*
%TD*%
%TO.P,J9,1*%
%TO.N,Net-(J31-Pad3)*%
X174250000Y-68000000D03*
%TD*%
%TO.P,J10,1*%
%TO.N,Net-(J10-Pad1)*%
X199250000Y-68000000D03*
%TD*%
%TO.P,J11,1*%
%TO.N,Net-(J11-Pad1)*%
X99250000Y-93000000D03*
%TD*%
%TO.P,J12,1*%
%TO.N,Net-(J12-Pad1)*%
X124250000Y-93000000D03*
%TD*%
%TO.P,J13,1*%
%TO.N,Net-(J13-Pad1)*%
X149250000Y-93000000D03*
%TD*%
%TO.P,J14,1*%
%TO.N,Net-(J14-Pad1)*%
X174250000Y-93000000D03*
%TD*%
%TO.P,J15,1*%
%TO.N,Net-(J15-Pad1)*%
X199250000Y-93000000D03*
%TD*%
%TO.P,J16,1*%
%TO.N,Net-(J16-Pad1)*%
X99250000Y-118000000D03*
%TD*%
%TO.P,J17,1*%
%TO.N,Net-(J17-Pad1)*%
X124250000Y-118000000D03*
%TD*%
%TO.P,J18,1*%
%TO.N,Net-(J18-Pad1)*%
X149250000Y-118000000D03*
%TD*%
%TO.P,J19,1*%
%TO.N,Net-(J19-Pad1)*%
X174250000Y-118000000D03*
%TD*%
%TO.P,J20,1*%
%TO.N,Net-(J20-Pad1)*%
X199250000Y-118000000D03*
%TD*%
%TO.P,J21,1*%
%TO.N,Net-(J21-Pad1)*%
X99250000Y-143000000D03*
%TD*%
%TO.P,J22,1*%
%TO.N,Net-(J22-Pad1)*%
X124250000Y-143000000D03*
%TD*%
%TO.P,J23,1*%
%TO.N,Net-(J23-Pad1)*%
X149250000Y-143000000D03*
%TD*%
%TO.P,J24,1*%
%TO.N,Net-(J24-Pad1)*%
X174250000Y-142750000D03*
%TD*%
%TO.P,J25,1*%
%TO.N,Net-(J25-Pad1)*%
X199250000Y-143000000D03*
%TD*%
%TO.P,J26,1*%
%TO.N,Net-(J26-Pad1)*%
X96750000Y-45500000D03*
%TD*%
%TO.P,J27,1*%
%TO.N,Net-(J27-Pad1)*%
X96750000Y-65500000D03*
%TD*%
%TO.P,J28,1*%
%TO.N,Net-(J28-Pad1)*%
X96750000Y-90500000D03*
%TD*%
%TO.P,J29,1*%
%TO.N,Net-(J29-Pad1)*%
X96750000Y-115500000D03*
%TD*%
%TO.P,J30,1*%
%TO.N,Net-(J30-Pad1)*%
X96750000Y-140500000D03*
%TD*%
D11*
%TO.N,Net-(J31-Pad5)*%
X105250000Y-68000000D03*
%TO.N,Net-(J31-Pad3)*%
X105250000Y-70500000D03*
%TO.N,Net-(J31-Pad7)*%
X105250000Y-65500000D03*
%TO.N,Net-(J11-Pad1)*%
X115750000Y-88000000D03*
%TO.N,Net-(J16-Pad1)*%
X105000000Y-88000000D03*
%TO.N,Net-(J18-Pad1)*%
X105250000Y-95500000D03*
%TO.N,Net-(J19-Pad1)*%
X105250000Y-93000000D03*
%TO.N,Net-(J20-Pad1)*%
X105250000Y-90500000D03*
%TO.N,Net-(J21-Pad1)*%
X115750000Y-113000000D03*
%TO.N,Net-(J22-Pad1)*%
X115750000Y-115500000D03*
%TO.N,Net-(J23-Pad1)*%
X115750000Y-118000000D03*
%TO.N,Net-(J31-Pad9)*%
X105250000Y-63000000D03*
%TD*%
D12*
%TO.N,Net-(J31-Pad5)*%
X105250000Y-68000000D02*
X99250000Y-68000000D01*
%TO.N,Net-(J31-Pad3)*%
X171750000Y-70500000D02*
X105250000Y-70500000D01*
X174250000Y-68000000D02*
X171750000Y-70500000D01*
%TO.N,Net-(J31-Pad7)*%
X121750000Y-65500000D02*
X124250000Y-68000000D01*
X105250000Y-65500000D02*
X121750000Y-65500000D01*
%TO.N,Net-(J11-Pad1)*%
X115750000Y-88000000D02*
X115750000Y-86500000D01*
X115750000Y-86500000D02*
X113750000Y-84500000D01*
X113750000Y-84500000D02*
X103000000Y-84500000D01*
X99250000Y-88250000D02*
X99250000Y-93000000D01*
X103000000Y-84500000D02*
X99250000Y-88250000D01*
%TO.N,Net-(J16-Pad1)*%
X105000000Y-88000000D02*
X101750000Y-91250000D01*
X101750000Y-115500000D02*
X99250000Y-118000000D01*
X101750000Y-91250000D02*
X101750000Y-115500000D01*
%TO.N,Net-(J18-Pad1)*%
X127750000Y-118000000D02*
X149250000Y-118000000D01*
X105250000Y-95500000D02*
X127750000Y-118000000D01*
%TO.N,Net-(J19-Pad1)*%
X105250000Y-93000000D02*
X126500000Y-114250000D01*
X170500000Y-114250000D02*
X174250000Y-118000000D01*
X126500000Y-114250000D02*
X170500000Y-114250000D01*
%TO.N,Net-(J20-Pad1)*%
X105250000Y-90500000D02*
X126500000Y-111750000D01*
X193000000Y-111750000D02*
X199250000Y-118000000D01*
X126500000Y-111750000D02*
X193000000Y-111750000D01*
%TO.N,Net-(J21-Pad1)*%
X110750000Y-115250000D02*
X113000000Y-113000000D01*
X110750000Y-140450000D02*
X110750000Y-115250000D01*
X106500000Y-144700000D02*
X110750000Y-140450000D01*
X100950000Y-144700000D02*
X106500000Y-144700000D01*
X113000000Y-113000000D02*
X115750000Y-113000000D01*
X99250000Y-143000000D02*
X100950000Y-144700000D01*
%TO.N,Net-(J22-Pad1)*%
X112750000Y-131500000D02*
X124250000Y-143000000D01*
X112750000Y-116500000D02*
X112750000Y-131500000D01*
X113750000Y-115500000D02*
X112750000Y-116500000D01*
X115750000Y-115500000D02*
X113750000Y-115500000D01*
%TO.N,Net-(J23-Pad1)*%
X140750000Y-143000000D02*
X149250000Y-143000000D01*
X115750000Y-118000000D02*
X140750000Y-143000000D01*
%TO.N,Net-(J31-Pad9)*%
X144250000Y-63000000D02*
X149250000Y-68000000D01*
X105250000Y-63000000D02*
X144250000Y-63000000D01*
%TD*%
M02*
