%TF.GenerationSoftware,KiCad,Pcbnew,(5.1.10)-1*%
%TF.CreationDate,2021-09-10T20:59:56+02:00*%
%TF.ProjectId,LED_Cube_5X5X5,4c45445f-4375-4626-955f-35583558352e,rev?*%
%TF.SameCoordinates,Original*%
%TF.FileFunction,Copper,L1,Top*%
%TF.FilePolarity,Positive*%
%FSLAX46Y46*%
G04 Gerber Fmt 4.6, Leading zero omitted, Abs format (unit mm)*
G04 Created by KiCad (PCBNEW (5.1.10)-1) date 2021-09-10 20:59:56*
%MOMM*%
%LPD*%
G01*
G04 APERTURE LIST*
%TA.AperFunction,ComponentPad*%
%ADD10C,1.700000*%
%TD*%
%TA.AperFunction,ComponentPad*%
%ADD11C,1.600000*%
%TD*%
%TA.AperFunction,ComponentPad*%
%ADD12R,1.600000X1.600000*%
%TD*%
%TA.AperFunction,ComponentPad*%
%ADD13C,6.400000*%
%TD*%
%TA.AperFunction,ComponentPad*%
%ADD14O,4.000000X1.800000*%
%TD*%
%TA.AperFunction,ComponentPad*%
%ADD15O,1.800000X4.000000*%
%TD*%
%TA.AperFunction,ComponentPad*%
%ADD16R,1.800000X4.400000*%
%TD*%
%TA.AperFunction,ComponentPad*%
%ADD17O,1.500000X1.050000*%
%TD*%
%TA.AperFunction,ComponentPad*%
%ADD18R,1.500000X1.050000*%
%TD*%
%TA.AperFunction,ComponentPad*%
%ADD19O,1.600000X1.600000*%
%TD*%
%TA.AperFunction,ComponentPad*%
%ADD20O,1.600000X2.400000*%
%TD*%
%TA.AperFunction,ComponentPad*%
%ADD21R,1.600000X2.400000*%
%TD*%
%TA.AperFunction,ComponentPad*%
%ADD22C,1.500000*%
%TD*%
%TA.AperFunction,ComponentPad*%
%ADD23R,2.400000X1.600000*%
%TD*%
%TA.AperFunction,ComponentPad*%
%ADD24O,2.400000X1.600000*%
%TD*%
%TA.AperFunction,ComponentPad*%
%ADD25C,2.100000*%
%TD*%
%TA.AperFunction,ComponentPad*%
%ADD26C,1.750000*%
%TD*%
%TA.AperFunction,ViaPad*%
%ADD27C,0.800000*%
%TD*%
%TA.AperFunction,Conductor*%
%ADD28C,1.016000*%
%TD*%
%TA.AperFunction,Conductor*%
%ADD29C,0.250000*%
%TD*%
%TA.AperFunction,Conductor*%
%ADD30C,0.762000*%
%TD*%
%TA.AperFunction,Conductor*%
%ADD31C,0.508000*%
%TD*%
G04 APERTURE END LIST*
%TO.P,J5,1*%
%TO.N,Net-(J5-Pad1)*%
%TA.AperFunction,ComponentPad*%
G36*
G01*
X190400000Y-123600000D02*
X190400000Y-122400000D01*
G75*
G02*
X190650000Y-122150000I250000J0D01*
G01*
X191850000Y-122150000D01*
G75*
G02*
X192100000Y-122400000I0J-250000D01*
G01*
X192100000Y-123600000D01*
G75*
G02*
X191850000Y-123850000I-250000J0D01*
G01*
X190650000Y-123850000D01*
G75*
G02*
X190400000Y-123600000I0J250000D01*
G01*
G37*
%TD.AperFunction*%
D10*
%TO.P,J5,3*%
%TO.N,Net-(J5-Pad3)*%
X191250000Y-125540000D03*
%TO.P,J5,5*%
%TO.N,Net-(J5-Pad5)*%
X191250000Y-128080000D03*
%TO.P,J5,7*%
%TO.N,Net-(J5-Pad7)*%
X191250000Y-130620000D03*
%TO.P,J5,9*%
%TO.N,Net-(J5-Pad9)*%
X191250000Y-133160000D03*
%TO.P,J5,2*%
%TO.N,L1*%
X193790000Y-123000000D03*
%TO.P,J5,4*%
%TO.N,L2*%
X193790000Y-125540000D03*
%TO.P,J5,6*%
%TO.N,L3*%
X193790000Y-128080000D03*
%TO.P,J5,8*%
%TO.N,L4*%
X193790000Y-130620000D03*
%TO.P,J5,10*%
%TO.N,L5*%
X193790000Y-133160000D03*
%TD*%
D11*
%TO.P,C1,2*%
%TO.N,GND*%
X108000000Y-105500000D03*
%TO.P,C1,1*%
%TO.N,Net-(C1-Pad1)*%
X110500000Y-105500000D03*
%TD*%
%TO.P,C2,1*%
%TO.N,Net-(C2-Pad1)*%
X110500000Y-100620000D03*
%TO.P,C2,2*%
%TO.N,GND*%
X108000000Y-100620000D03*
%TD*%
%TO.P,C3,2*%
%TO.N,GND*%
X114000000Y-95000000D03*
D12*
%TO.P,C3,1*%
%TO.N,+5V*%
X114000000Y-90000000D03*
%TD*%
%TO.P,C4,1*%
%TO.N,+5V*%
X153750000Y-61450000D03*
D11*
%TO.P,C4,2*%
%TO.N,GND*%
X153750000Y-66450000D03*
%TD*%
D12*
%TO.P,C5,1*%
%TO.N,+5V*%
X153750000Y-87200000D03*
D11*
%TO.P,C5,2*%
%TO.N,GND*%
X153750000Y-92200000D03*
%TD*%
%TO.P,C6,2*%
%TO.N,GND*%
X153750000Y-117950000D03*
D12*
%TO.P,C6,1*%
%TO.N,+5V*%
X153750000Y-112950000D03*
%TD*%
%TO.P,C7,1*%
%TO.N,+5V*%
X153750000Y-138200000D03*
D11*
%TO.P,C7,2*%
%TO.N,GND*%
X153750000Y-143200000D03*
%TD*%
D13*
%TO.P,H1,1*%
%TO.N,N/C*%
X105500000Y-57500000D03*
%TD*%
%TO.P,H2,1*%
%TO.N,N/C*%
X198500000Y-57500000D03*
%TD*%
%TO.P,H3,1*%
%TO.N,N/C*%
X198500000Y-150500000D03*
%TD*%
%TO.P,H4,1*%
%TO.N,N/C*%
X105500000Y-150500000D03*
%TD*%
D14*
%TO.P,J1,3*%
%TO.N,N/C*%
X113000000Y-122050000D03*
D15*
%TO.P,J1,2*%
%TO.N,GND*%
X110200000Y-117250000D03*
D16*
%TO.P,J1,1*%
%TO.N,+5V*%
X116000000Y-117250000D03*
%TD*%
D17*
%TO.P,Q1,2*%
%TO.N,Net-(Q1-Pad2)*%
X112250000Y-141980000D03*
%TO.P,Q1,3*%
%TO.N,+5V*%
X112250000Y-140710000D03*
D18*
%TO.P,Q1,1*%
%TO.N,L1*%
X112250000Y-143250000D03*
%TD*%
%TO.P,Q2,1*%
%TO.N,L2*%
X118750000Y-143250000D03*
D17*
%TO.P,Q2,3*%
%TO.N,+5V*%
X118750000Y-140710000D03*
%TO.P,Q2,2*%
%TO.N,Net-(Q2-Pad2)*%
X118750000Y-141980000D03*
%TD*%
%TO.P,Q3,2*%
%TO.N,Net-(Q3-Pad2)*%
X125250000Y-141980000D03*
%TO.P,Q3,3*%
%TO.N,+5V*%
X125250000Y-140710000D03*
D18*
%TO.P,Q3,1*%
%TO.N,L3*%
X125250000Y-143250000D03*
%TD*%
%TO.P,Q4,1*%
%TO.N,L4*%
X131750000Y-143250000D03*
D17*
%TO.P,Q4,3*%
%TO.N,+5V*%
X131750000Y-140710000D03*
%TO.P,Q4,2*%
%TO.N,Net-(Q4-Pad2)*%
X131750000Y-141980000D03*
%TD*%
%TO.P,Q5,2*%
%TO.N,Net-(Q5-Pad2)*%
X138250000Y-141980000D03*
%TO.P,Q5,3*%
%TO.N,+5V*%
X138250000Y-140710000D03*
D18*
%TO.P,Q5,1*%
%TO.N,L5*%
X138250000Y-143250000D03*
%TD*%
D11*
%TO.P,R1,1*%
%TO.N,+5V*%
X130500000Y-69000000D03*
D19*
%TO.P,R1,2*%
%TO.N,RESET*%
X122880000Y-69000000D03*
%TD*%
D11*
%TO.P,R4,1*%
%TO.N,Net-(R4-Pad1)*%
X148000000Y-60140000D03*
D19*
%TO.P,R4,2*%
%TO.N,GND*%
X148000000Y-67760000D03*
%TD*%
%TO.P,R5,2*%
%TO.N,LAYER1*%
X113972222Y-127880000D03*
D11*
%TO.P,R5,1*%
%TO.N,Net-(Q1-Pad2)*%
X113972222Y-135500000D03*
%TD*%
%TO.P,R6,1*%
%TO.N,Net-(Q2-Pad2)*%
X120416666Y-135500000D03*
D19*
%TO.P,R6,2*%
%TO.N,LAYER2*%
X120416666Y-127880000D03*
%TD*%
%TO.P,R7,2*%
%TO.N,LAYER3*%
X126861110Y-127880000D03*
D11*
%TO.P,R7,1*%
%TO.N,Net-(Q3-Pad2)*%
X126861110Y-135500000D03*
%TD*%
D19*
%TO.P,R8,2*%
%TO.N,LAYER4*%
X133305554Y-127880000D03*
D11*
%TO.P,R8,1*%
%TO.N,Net-(Q4-Pad2)*%
X133305554Y-135500000D03*
%TD*%
D19*
%TO.P,R9,2*%
%TO.N,LAYER5*%
X139750000Y-127880000D03*
D11*
%TO.P,R9,1*%
%TO.N,Net-(Q5-Pad2)*%
X139750000Y-135500000D03*
%TD*%
D19*
%TO.P,R10,2*%
%TO.N,Net-(Q1-Pad2)*%
X110750000Y-135500000D03*
D11*
%TO.P,R10,1*%
%TO.N,GND*%
X110750000Y-127880000D03*
%TD*%
%TO.P,R11,1*%
%TO.N,GND*%
X117194444Y-127880000D03*
D19*
%TO.P,R11,2*%
%TO.N,Net-(Q2-Pad2)*%
X117194444Y-135500000D03*
%TD*%
D11*
%TO.P,R12,1*%
%TO.N,GND*%
X123638888Y-127880000D03*
D19*
%TO.P,R12,2*%
%TO.N,Net-(Q3-Pad2)*%
X123638888Y-135500000D03*
%TD*%
D11*
%TO.P,R13,1*%
%TO.N,GND*%
X130083332Y-127880000D03*
D19*
%TO.P,R13,2*%
%TO.N,Net-(Q4-Pad2)*%
X130083332Y-135500000D03*
%TD*%
D11*
%TO.P,R14,1*%
%TO.N,GND*%
X136527776Y-127880000D03*
D19*
%TO.P,R14,2*%
%TO.N,Net-(Q5-Pad2)*%
X136527776Y-135500000D03*
%TD*%
D11*
%TO.P,R16,1*%
%TO.N,QA1*%
X157500000Y-73000000D03*
D19*
%TO.P,R16,2*%
%TO.N,Net-(J3-Pad1)*%
X157500000Y-80620000D03*
%TD*%
%TO.P,R17,2*%
%TO.N,Net-(J3-Pad3)*%
X160750000Y-80620000D03*
D11*
%TO.P,R17,1*%
%TO.N,QB1*%
X160750000Y-73000000D03*
%TD*%
%TO.P,R18,1*%
%TO.N,QC1*%
X164000000Y-73000000D03*
D19*
%TO.P,R18,2*%
%TO.N,Net-(J3-Pad5)*%
X164000000Y-80620000D03*
%TD*%
%TO.P,R19,2*%
%TO.N,Net-(J3-Pad7)*%
X167250000Y-80620000D03*
D11*
%TO.P,R19,1*%
%TO.N,QD1*%
X167250000Y-73000000D03*
%TD*%
%TO.P,R20,1*%
%TO.N,QE1*%
X170500000Y-73000000D03*
D19*
%TO.P,R20,2*%
%TO.N,Net-(J3-Pad9)*%
X170500000Y-80620000D03*
%TD*%
%TO.P,R21,2*%
%TO.N,Net-(J3-Pad6)*%
X173750000Y-80620000D03*
D11*
%TO.P,R21,1*%
%TO.N,QF1*%
X173750000Y-73000000D03*
%TD*%
%TO.P,R22,1*%
%TO.N,QG1*%
X177000000Y-73000000D03*
D19*
%TO.P,R22,2*%
%TO.N,Net-(J3-Pad4)*%
X177000000Y-80620000D03*
%TD*%
%TO.P,R23,2*%
%TO.N,Net-(J3-Pad2)*%
X180250000Y-80620000D03*
D11*
%TO.P,R23,1*%
%TO.N,QH1*%
X180250000Y-73000000D03*
%TD*%
%TO.P,R24,1*%
%TO.N,Net-(R24-Pad1)*%
X148000000Y-85890000D03*
D19*
%TO.P,R24,2*%
%TO.N,GND*%
X148000000Y-93510000D03*
%TD*%
D11*
%TO.P,R25,1*%
%TO.N,QA2*%
X157500000Y-98750000D03*
D19*
%TO.P,R25,2*%
%TO.N,Net-(J3-Pad8)*%
X157500000Y-106370000D03*
%TD*%
%TO.P,R26,2*%
%TO.N,Net-(J3-Pad10)*%
X160750000Y-106370000D03*
D11*
%TO.P,R26,1*%
%TO.N,QB2*%
X160750000Y-98750000D03*
%TD*%
%TO.P,R27,1*%
%TO.N,QC2*%
X164000000Y-98750000D03*
D19*
%TO.P,R27,2*%
%TO.N,Net-(J4-Pad1)*%
X164000000Y-106370000D03*
%TD*%
%TO.P,R28,2*%
%TO.N,Net-(J4-Pad3)*%
X167250000Y-106370000D03*
D11*
%TO.P,R28,1*%
%TO.N,QD2*%
X167250000Y-98750000D03*
%TD*%
%TO.P,R29,1*%
%TO.N,QE2*%
X170500000Y-98750000D03*
D19*
%TO.P,R29,2*%
%TO.N,Net-(J4-Pad5)*%
X170500000Y-106370000D03*
%TD*%
%TO.P,R30,2*%
%TO.N,Net-(J4-Pad7)*%
X173750000Y-106370000D03*
D11*
%TO.P,R30,1*%
%TO.N,QF2*%
X173750000Y-98750000D03*
%TD*%
%TO.P,R31,1*%
%TO.N,QG2*%
X177000000Y-98750000D03*
D19*
%TO.P,R31,2*%
%TO.N,Net-(J4-Pad9)*%
X177000000Y-106370000D03*
%TD*%
%TO.P,R32,2*%
%TO.N,Net-(J4-Pad2)*%
X180250000Y-106370000D03*
D11*
%TO.P,R32,1*%
%TO.N,QH2*%
X180250000Y-98750000D03*
%TD*%
D19*
%TO.P,R34,2*%
%TO.N,GND*%
X148000000Y-119260000D03*
D11*
%TO.P,R34,1*%
%TO.N,Net-(R34-Pad1)*%
X148000000Y-111640000D03*
%TD*%
%TO.P,R35,1*%
%TO.N,QA3*%
X157500000Y-124250000D03*
D19*
%TO.P,R35,2*%
%TO.N,Net-(J4-Pad10)*%
X157500000Y-131870000D03*
%TD*%
%TO.P,R36,2*%
%TO.N,Net-(J4-Pad8)*%
X160750000Y-131870000D03*
D11*
%TO.P,R36,1*%
%TO.N,QB3*%
X160750000Y-124250000D03*
%TD*%
%TO.P,R37,1*%
%TO.N,QC3*%
X164000000Y-124250000D03*
D19*
%TO.P,R37,2*%
%TO.N,Net-(J4-Pad6)*%
X164000000Y-131870000D03*
%TD*%
%TO.P,R38,2*%
%TO.N,Net-(J4-Pad4)*%
X167250000Y-131870000D03*
D11*
%TO.P,R38,1*%
%TO.N,QD3*%
X167250000Y-124250000D03*
%TD*%
%TO.P,R39,1*%
%TO.N,QE3*%
X170500000Y-124250000D03*
D19*
%TO.P,R39,2*%
%TO.N,Net-(J5-Pad1)*%
X170500000Y-131870000D03*
%TD*%
%TO.P,R40,2*%
%TO.N,Net-(J5-Pad3)*%
X173750000Y-131870000D03*
D11*
%TO.P,R40,1*%
%TO.N,QF3*%
X173750000Y-124250000D03*
%TD*%
%TO.P,R41,1*%
%TO.N,QG3*%
X177000000Y-124250000D03*
D19*
%TO.P,R41,2*%
%TO.N,Net-(J5-Pad5)*%
X177000000Y-131870000D03*
%TD*%
%TO.P,R42,2*%
%TO.N,Net-(J5-Pad7)*%
X180250000Y-131870000D03*
D11*
%TO.P,R42,1*%
%TO.N,QH3*%
X180250000Y-124250000D03*
%TD*%
%TO.P,R43,1*%
%TO.N,QA4*%
X182000000Y-144510000D03*
D19*
%TO.P,R43,2*%
%TO.N,Net-(J5-Pad9)*%
X182000000Y-136890000D03*
%TD*%
D11*
%TO.P,R45,1*%
%TO.N,Net-(R45-Pad1)*%
X148000000Y-136890000D03*
D19*
%TO.P,R45,2*%
%TO.N,GND*%
X148000000Y-144510000D03*
%TD*%
D20*
%TO.P,U2,16*%
%TO.N,+5V*%
X160000000Y-60130000D03*
%TO.P,U2,8*%
%TO.N,GND*%
X177780000Y-67750000D03*
%TO.P,U2,15*%
%TO.N,QA1*%
X162540000Y-60130000D03*
%TO.P,U2,7*%
%TO.N,QH1*%
X175240000Y-67750000D03*
%TO.P,U2,14*%
%TO.N,DATA*%
X165080000Y-60130000D03*
%TO.P,U2,6*%
%TO.N,QG1*%
X172700000Y-67750000D03*
%TO.P,U2,13*%
%TO.N,Net-(R4-Pad1)*%
X167620000Y-60130000D03*
%TO.P,U2,5*%
%TO.N,QF1*%
X170160000Y-67750000D03*
%TO.P,U2,12*%
%TO.N,LATCH*%
X170160000Y-60130000D03*
%TO.P,U2,4*%
%TO.N,QE1*%
X167620000Y-67750000D03*
%TO.P,U2,11*%
%TO.N,CLOCK*%
X172700000Y-60130000D03*
%TO.P,U2,3*%
%TO.N,QD1*%
X165080000Y-67750000D03*
%TO.P,U2,10*%
%TO.N,CLEAR*%
X175240000Y-60130000D03*
%TO.P,U2,2*%
%TO.N,QC1*%
X162540000Y-67750000D03*
%TO.P,U2,9*%
%TO.N,Net-(U2-Pad9)*%
X177780000Y-60130000D03*
D21*
%TO.P,U2,1*%
%TO.N,QB1*%
X160000000Y-67750000D03*
%TD*%
%TO.P,U3,1*%
%TO.N,QB2*%
X160000000Y-93500000D03*
D20*
%TO.P,U3,9*%
%TO.N,Net-(U3-Pad9)*%
X177780000Y-85880000D03*
%TO.P,U3,2*%
%TO.N,QC2*%
X162540000Y-93500000D03*
%TO.P,U3,10*%
%TO.N,CLEAR*%
X175240000Y-85880000D03*
%TO.P,U3,3*%
%TO.N,QD2*%
X165080000Y-93500000D03*
%TO.P,U3,11*%
%TO.N,CLOCK*%
X172700000Y-85880000D03*
%TO.P,U3,4*%
%TO.N,QE2*%
X167620000Y-93500000D03*
%TO.P,U3,12*%
%TO.N,LATCH*%
X170160000Y-85880000D03*
%TO.P,U3,5*%
%TO.N,QF2*%
X170160000Y-93500000D03*
%TO.P,U3,13*%
%TO.N,Net-(R24-Pad1)*%
X167620000Y-85880000D03*
%TO.P,U3,6*%
%TO.N,QG2*%
X172700000Y-93500000D03*
%TO.P,U3,14*%
%TO.N,Net-(U2-Pad9)*%
X165080000Y-85880000D03*
%TO.P,U3,7*%
%TO.N,QH2*%
X175240000Y-93500000D03*
%TO.P,U3,15*%
%TO.N,QA2*%
X162540000Y-85880000D03*
%TO.P,U3,8*%
%TO.N,GND*%
X177780000Y-93500000D03*
%TO.P,U3,16*%
%TO.N,+5V*%
X160000000Y-85880000D03*
%TD*%
%TO.P,U4,16*%
%TO.N,+5V*%
X160000000Y-111630000D03*
%TO.P,U4,8*%
%TO.N,GND*%
X177780000Y-119250000D03*
%TO.P,U4,15*%
%TO.N,QA3*%
X162540000Y-111630000D03*
%TO.P,U4,7*%
%TO.N,QH3*%
X175240000Y-119250000D03*
%TO.P,U4,14*%
%TO.N,Net-(U3-Pad9)*%
X165080000Y-111630000D03*
%TO.P,U4,6*%
%TO.N,QG3*%
X172700000Y-119250000D03*
%TO.P,U4,13*%
%TO.N,Net-(R34-Pad1)*%
X167620000Y-111630000D03*
%TO.P,U4,5*%
%TO.N,QF3*%
X170160000Y-119250000D03*
%TO.P,U4,12*%
%TO.N,LATCH*%
X170160000Y-111630000D03*
%TO.P,U4,4*%
%TO.N,QE3*%
X167620000Y-119250000D03*
%TO.P,U4,11*%
%TO.N,CLOCK*%
X172700000Y-111630000D03*
%TO.P,U4,3*%
%TO.N,QD3*%
X165080000Y-119250000D03*
%TO.P,U4,10*%
%TO.N,CLEAR*%
X175240000Y-111630000D03*
%TO.P,U4,2*%
%TO.N,QC3*%
X162540000Y-119250000D03*
%TO.P,U4,9*%
%TO.N,Net-(U4-Pad9)*%
X177780000Y-111630000D03*
D21*
%TO.P,U4,1*%
%TO.N,QB3*%
X160000000Y-119250000D03*
%TD*%
%TO.P,U5,1*%
%TO.N,Net-(U5-Pad1)*%
X160000000Y-144500000D03*
D20*
%TO.P,U5,9*%
%TO.N,Net-(U5-Pad9)*%
X177780000Y-136880000D03*
%TO.P,U5,2*%
%TO.N,Net-(U5-Pad2)*%
X162540000Y-144500000D03*
%TO.P,U5,10*%
%TO.N,CLEAR*%
X175240000Y-136880000D03*
%TO.P,U5,3*%
%TO.N,Net-(U5-Pad3)*%
X165080000Y-144500000D03*
%TO.P,U5,11*%
%TO.N,CLOCK*%
X172700000Y-136880000D03*
%TO.P,U5,4*%
%TO.N,Net-(U5-Pad4)*%
X167620000Y-144500000D03*
%TO.P,U5,12*%
%TO.N,LATCH*%
X170160000Y-136880000D03*
%TO.P,U5,5*%
%TO.N,Net-(U5-Pad5)*%
X170160000Y-144500000D03*
%TO.P,U5,13*%
%TO.N,Net-(R45-Pad1)*%
X167620000Y-136880000D03*
%TO.P,U5,6*%
%TO.N,Net-(U5-Pad6)*%
X172700000Y-144500000D03*
%TO.P,U5,14*%
%TO.N,Net-(U4-Pad9)*%
X165080000Y-136880000D03*
%TO.P,U5,7*%
%TO.N,Net-(U5-Pad7)*%
X175240000Y-144500000D03*
%TO.P,U5,15*%
%TO.N,QA4*%
X162540000Y-136880000D03*
%TO.P,U5,8*%
%TO.N,GND*%
X177780000Y-144500000D03*
%TO.P,U5,16*%
%TO.N,+5V*%
X160000000Y-136880000D03*
%TD*%
D22*
%TO.P,Y1,1*%
%TO.N,Net-(C1-Pad1)*%
X115500000Y-105500000D03*
%TO.P,Y1,2*%
%TO.N,Net-(C2-Pad1)*%
X115500000Y-100620000D03*
%TD*%
D23*
%TO.P,U1,1*%
%TO.N,Net-(U1-Pad1)*%
X121250000Y-74000000D03*
D24*
%TO.P,U1,21*%
%TO.N,Net-(U1-Pad21)*%
X136490000Y-122260000D03*
%TO.P,U1,2*%
%TO.N,Net-(U1-Pad2)*%
X121250000Y-76540000D03*
%TO.P,U1,22*%
%TO.N,Net-(U1-Pad22)*%
X136490000Y-119720000D03*
%TO.P,U1,3*%
%TO.N,Net-(U1-Pad3)*%
X121250000Y-79080000D03*
%TO.P,U1,23*%
%TO.N,Net-(U1-Pad23)*%
X136490000Y-117180000D03*
%TO.P,U1,4*%
%TO.N,Net-(U1-Pad4)*%
X121250000Y-81620000D03*
%TO.P,U1,24*%
%TO.N,Net-(U1-Pad24)*%
X136490000Y-114640000D03*
%TO.P,U1,5*%
%TO.N,Net-(U1-Pad5)*%
X121250000Y-84160000D03*
%TO.P,U1,25*%
%TO.N,Net-(U1-Pad25)*%
X136490000Y-112100000D03*
%TO.P,U1,6*%
%TO.N,MOSI*%
X121250000Y-86700000D03*
%TO.P,U1,26*%
%TO.N,Net-(U1-Pad26)*%
X136490000Y-109560000D03*
%TO.P,U1,7*%
%TO.N,MISO*%
X121250000Y-89240000D03*
%TO.P,U1,27*%
%TO.N,Net-(U1-Pad27)*%
X136490000Y-107020000D03*
%TO.P,U1,8*%
%TO.N,SCK*%
X121250000Y-91780000D03*
%TO.P,U1,28*%
%TO.N,Net-(U1-Pad28)*%
X136490000Y-104480000D03*
%TO.P,U1,9*%
%TO.N,RESET*%
X121250000Y-94320000D03*
%TO.P,U1,29*%
%TO.N,Net-(U1-Pad29)*%
X136490000Y-101940000D03*
%TO.P,U1,10*%
%TO.N,+5V*%
X121250000Y-96860000D03*
%TO.P,U1,30*%
%TO.N,Net-(U1-Pad30)*%
X136490000Y-99400000D03*
%TO.P,U1,11*%
%TO.N,GND*%
X121250000Y-99400000D03*
%TO.P,U1,31*%
X136490000Y-96860000D03*
%TO.P,U1,12*%
%TO.N,Net-(C2-Pad1)*%
X121250000Y-101940000D03*
%TO.P,U1,32*%
%TO.N,Net-(U1-Pad32)*%
X136490000Y-94320000D03*
%TO.P,U1,13*%
%TO.N,Net-(C1-Pad1)*%
X121250000Y-104480000D03*
%TO.P,U1,33*%
%TO.N,Net-(U1-Pad33)*%
X136490000Y-91780000D03*
%TO.P,U1,14*%
%TO.N,Net-(U1-Pad14)*%
X121250000Y-107020000D03*
%TO.P,U1,34*%
%TO.N,Net-(U1-Pad34)*%
X136490000Y-89240000D03*
%TO.P,U1,15*%
%TO.N,Net-(U1-Pad15)*%
X121250000Y-109560000D03*
%TO.P,U1,35*%
%TO.N,Net-(U1-Pad35)*%
X136490000Y-86700000D03*
%TO.P,U1,16*%
%TO.N,LAYER5*%
X121250000Y-112100000D03*
%TO.P,U1,36*%
%TO.N,CLEAR*%
X136490000Y-84160000D03*
%TO.P,U1,17*%
%TO.N,LAYER4*%
X121250000Y-114640000D03*
%TO.P,U1,37*%
%TO.N,CLOCK*%
X136490000Y-81620000D03*
%TO.P,U1,18*%
%TO.N,LAYER3*%
X121250000Y-117180000D03*
%TO.P,U1,38*%
%TO.N,LATCH*%
X136490000Y-79080000D03*
%TO.P,U1,19*%
%TO.N,LAYER2*%
X121250000Y-119720000D03*
%TO.P,U1,39*%
%TO.N,DATA*%
X136490000Y-76540000D03*
%TO.P,U1,20*%
%TO.N,LAYER1*%
X121250000Y-122260000D03*
%TO.P,U1,40*%
%TO.N,Net-(U1-Pad40)*%
X136490000Y-74000000D03*
%TD*%
%TO.P,J2,1*%
%TO.N,MOSI*%
%TA.AperFunction,ComponentPad*%
G36*
G01*
X116350000Y-83900000D02*
X116350000Y-85100000D01*
G75*
G02*
X116100000Y-85350000I-250000J0D01*
G01*
X114900000Y-85350000D01*
G75*
G02*
X114650000Y-85100000I0J250000D01*
G01*
X114650000Y-83900000D01*
G75*
G02*
X114900000Y-83650000I250000J0D01*
G01*
X116100000Y-83650000D01*
G75*
G02*
X116350000Y-83900000I0J-250000D01*
G01*
G37*
%TD.AperFunction*%
D10*
%TO.P,J2,3*%
%TO.N,Net-(J2-Pad3)*%
X115500000Y-81960000D03*
%TO.P,J2,5*%
%TO.N,RESET*%
X115500000Y-79420000D03*
%TO.P,J2,7*%
%TO.N,SCK*%
X115500000Y-76880000D03*
%TO.P,J2,9*%
%TO.N,MISO*%
X115500000Y-74340000D03*
%TO.P,J2,2*%
%TO.N,Net-(J2-Pad2)*%
X112960000Y-84500000D03*
%TO.P,J2,4*%
%TO.N,Net-(J2-Pad4)*%
X112960000Y-81960000D03*
%TO.P,J2,6*%
%TO.N,Net-(J2-Pad6)*%
X112960000Y-79420000D03*
%TO.P,J2,8*%
%TO.N,Net-(J2-Pad8)*%
X112960000Y-76880000D03*
%TO.P,J2,10*%
%TO.N,GND*%
X112960000Y-74340000D03*
%TD*%
%TO.P,J3,1*%
%TO.N,Net-(J3-Pad1)*%
%TA.AperFunction,ComponentPad*%
G36*
G01*
X190400000Y-80600000D02*
X190400000Y-79400000D01*
G75*
G02*
X190650000Y-79150000I250000J0D01*
G01*
X191850000Y-79150000D01*
G75*
G02*
X192100000Y-79400000I0J-250000D01*
G01*
X192100000Y-80600000D01*
G75*
G02*
X191850000Y-80850000I-250000J0D01*
G01*
X190650000Y-80850000D01*
G75*
G02*
X190400000Y-80600000I0J250000D01*
G01*
G37*
%TD.AperFunction*%
%TO.P,J3,3*%
%TO.N,Net-(J3-Pad3)*%
X191250000Y-82540000D03*
%TO.P,J3,5*%
%TO.N,Net-(J3-Pad5)*%
X191250000Y-85080000D03*
%TO.P,J3,7*%
%TO.N,Net-(J3-Pad7)*%
X191250000Y-87620000D03*
%TO.P,J3,9*%
%TO.N,Net-(J3-Pad9)*%
X191250000Y-90160000D03*
%TO.P,J3,2*%
%TO.N,Net-(J3-Pad2)*%
X193790000Y-80000000D03*
%TO.P,J3,4*%
%TO.N,Net-(J3-Pad4)*%
X193790000Y-82540000D03*
%TO.P,J3,6*%
%TO.N,Net-(J3-Pad6)*%
X193790000Y-85080000D03*
%TO.P,J3,8*%
%TO.N,Net-(J3-Pad8)*%
X193790000Y-87620000D03*
%TO.P,J3,10*%
%TO.N,Net-(J3-Pad10)*%
X193790000Y-90160000D03*
%TD*%
%TO.P,J4,10*%
%TO.N,Net-(J4-Pad10)*%
X193790000Y-111660000D03*
%TO.P,J4,8*%
%TO.N,Net-(J4-Pad8)*%
X193790000Y-109120000D03*
%TO.P,J4,6*%
%TO.N,Net-(J4-Pad6)*%
X193790000Y-106580000D03*
%TO.P,J4,4*%
%TO.N,Net-(J4-Pad4)*%
X193790000Y-104040000D03*
%TO.P,J4,2*%
%TO.N,Net-(J4-Pad2)*%
X193790000Y-101500000D03*
%TO.P,J4,9*%
%TO.N,Net-(J4-Pad9)*%
X191250000Y-111660000D03*
%TO.P,J4,7*%
%TO.N,Net-(J4-Pad7)*%
X191250000Y-109120000D03*
%TO.P,J4,5*%
%TO.N,Net-(J4-Pad5)*%
X191250000Y-106580000D03*
%TO.P,J4,3*%
%TO.N,Net-(J4-Pad3)*%
X191250000Y-104040000D03*
%TO.P,J4,1*%
%TO.N,Net-(J4-Pad1)*%
%TA.AperFunction,ComponentPad*%
G36*
G01*
X190400000Y-102100000D02*
X190400000Y-100900000D01*
G75*
G02*
X190650000Y-100650000I250000J0D01*
G01*
X191850000Y-100650000D01*
G75*
G02*
X192100000Y-100900000I0J-250000D01*
G01*
X192100000Y-102100000D01*
G75*
G02*
X191850000Y-102350000I-250000J0D01*
G01*
X190650000Y-102350000D01*
G75*
G02*
X190400000Y-102100000I0J250000D01*
G01*
G37*
%TD.AperFunction*%
%TD*%
D25*
%TO.P,RES,*%
%TO.N,*%
X130175000Y-59240000D03*
D26*
%TO.P,RES,2*%
%TO.N,RESET*%
X128915000Y-56750000D03*
%TO.P,RES,1*%
%TO.N,GND*%
X124415000Y-56750000D03*
D25*
%TO.P,RES,*%
%TO.N,*%
X123165000Y-59240000D03*
%TD*%
D27*
%TO.N,CLOCK*%
X168870000Y-65940000D03*
X168870000Y-63770000D03*
%TO.N,LATCH*%
X166350000Y-65950000D03*
X166350000Y-62620000D03*
%TO.N,Net-(U2-Pad9)*%
X185400000Y-92900000D03*
X193750000Y-72950000D03*
%TO.N,Net-(U3-Pad9)*%
X176750000Y-108800000D03*
X179550000Y-95900000D03*
X180650000Y-91200000D03*
%TO.N,Net-(U4-Pad9)*%
X184900000Y-118750000D03*
%TO.N,Net-(J3-Pad8)*%
X189650000Y-94550000D03*
%TD*%
D28*
%TO.N,Net-(C1-Pad1)*%
X116520000Y-104480000D02*
X115500000Y-105500000D01*
X121250000Y-104480000D02*
X116520000Y-104480000D01*
X115500000Y-105500000D02*
X110500000Y-105500000D01*
%TO.N,Net-(C2-Pad1)*%
X116820000Y-101940000D02*
X115500000Y-100620000D01*
X121250000Y-101940000D02*
X116820000Y-101940000D01*
D29*
X110620000Y-100620000D02*
X110500000Y-100500000D01*
D28*
X115500000Y-100620000D02*
X110500000Y-100620000D01*
%TO.N,+5V*%
X155070000Y-111630000D02*
X153750000Y-112950000D01*
X160000000Y-111630000D02*
X155070000Y-111630000D01*
X155070000Y-136880000D02*
X153750000Y-138200000D01*
X160000000Y-136880000D02*
X155070000Y-136880000D01*
X155070000Y-85880000D02*
X153750000Y-87200000D01*
X160000000Y-85880000D02*
X155070000Y-85880000D01*
X155070000Y-60130000D02*
X153750000Y-61450000D01*
X160000000Y-60130000D02*
X155070000Y-60130000D01*
X121250000Y-96860000D02*
X118860000Y-96860000D01*
X117000000Y-95000000D02*
X117000000Y-93000000D01*
X118860000Y-96860000D02*
X117000000Y-95000000D01*
X114000000Y-90000000D02*
X117000000Y-93000000D01*
D29*
%TO.N,RESET*%
X126000000Y-91750000D02*
X126000000Y-72750000D01*
X126000000Y-72750000D02*
X125750000Y-72750000D01*
D30*
X123430000Y-94320000D02*
X125875000Y-91875000D01*
X121250000Y-94320000D02*
X123430000Y-94320000D01*
D29*
X125875000Y-91875000D02*
X126000000Y-91750000D01*
D30*
X125875000Y-71995000D02*
X122880000Y-69000000D01*
X125875000Y-91875000D02*
X125875000Y-71995000D01*
X128915000Y-56750000D02*
X126250000Y-59415000D01*
X126250000Y-65630000D02*
X122880000Y-69000000D01*
X126250000Y-59415000D02*
X126250000Y-65630000D01*
D31*
%TO.N,SCK*%
X116880000Y-76880000D02*
X117500000Y-77500000D01*
X115500000Y-76880000D02*
X116880000Y-76880000D01*
X117500000Y-77500000D02*
X117500000Y-89750000D01*
X119530000Y-91780000D02*
X121250000Y-91780000D01*
X117500000Y-89750000D02*
X119530000Y-91780000D01*
%TO.N,MISO*%
X121250000Y-89240000D02*
X120740000Y-89240000D01*
X120740000Y-89240000D02*
X118750000Y-87250000D01*
X118750000Y-76250000D02*
X116840000Y-74340000D01*
X118750000Y-87250000D02*
X118750000Y-76250000D01*
X115500000Y-74340000D02*
X116590000Y-74340000D01*
X116840000Y-74340000D02*
X116590000Y-74340000D01*
%TO.N,Net-(J3-Pad1)*%
X186000000Y-74750000D02*
X191250000Y-80000000D01*
X163370000Y-74750000D02*
X186000000Y-74750000D01*
X157500000Y-80620000D02*
X163370000Y-74750000D01*
D29*
%TO.N,Net-(J4-Pad1)*%
X164000000Y-106370000D02*
X168320000Y-102050000D01*
X187850000Y-102050000D02*
X188400000Y-101500000D01*
X168320000Y-102050000D02*
X187850000Y-102050000D01*
X191250000Y-101500000D02*
X188400000Y-101500000D01*
%TO.N,Net-(J5-Pad1)*%
X170500000Y-131870000D02*
X173370000Y-129000000D01*
X185250000Y-129000000D02*
X186125000Y-128125000D01*
X173370000Y-129000000D02*
X185250000Y-129000000D01*
X191250000Y-123000000D02*
X186125000Y-128125000D01*
D30*
%TO.N,Net-(Q1-Pad2)*%
X110750000Y-135500000D02*
X113972222Y-135500000D01*
X110750000Y-135500000D02*
X110750000Y-137500000D01*
X110480000Y-141980000D02*
X112250000Y-141980000D01*
X110750000Y-137500000D02*
X109500000Y-138750000D01*
X109500000Y-141000000D02*
X110480000Y-141980000D01*
X109500000Y-138750000D02*
X109500000Y-141000000D01*
%TO.N,Net-(Q2-Pad2)*%
X117194444Y-135500000D02*
X120416666Y-135500000D01*
X117194444Y-137555556D02*
X116000000Y-138750000D01*
X117194444Y-135500000D02*
X117194444Y-137555556D01*
X116000000Y-141000000D02*
X116980000Y-141980000D01*
X116980000Y-141980000D02*
X118750000Y-141980000D01*
X116000000Y-138750000D02*
X116000000Y-141000000D01*
%TO.N,Net-(Q3-Pad2)*%
X123638888Y-135500000D02*
X126861110Y-135500000D01*
X123730000Y-141980000D02*
X125250000Y-141980000D01*
X123638888Y-135500000D02*
X123638888Y-137611112D01*
X122625000Y-138625000D02*
X122625000Y-140875000D01*
X122625000Y-140875000D02*
X123730000Y-141980000D01*
X123638888Y-137611112D02*
X122625000Y-138625000D01*
%TO.N,Net-(Q4-Pad2)*%
X130083332Y-135500000D02*
X133305554Y-135500000D01*
X130083332Y-135500000D02*
X130083332Y-137666668D01*
X130083332Y-137666668D02*
X129250000Y-138500000D01*
X130480000Y-141980000D02*
X129250000Y-140750000D01*
X129250000Y-138500000D02*
X129250000Y-140750000D01*
X130480000Y-141980000D02*
X131750000Y-141980000D01*
%TO.N,Net-(Q5-Pad2)*%
X136527776Y-135500000D02*
X139750000Y-135500000D01*
X136527776Y-135500000D02*
X136527776Y-137722224D01*
X136527776Y-137722224D02*
X135750000Y-138500000D01*
X135750000Y-138500000D02*
X135750000Y-141000000D01*
X136730000Y-141980000D02*
X138250000Y-141980000D01*
X135750000Y-141000000D02*
X136730000Y-141980000D01*
D29*
%TO.N,Net-(R4-Pad1)*%
X148250000Y-60250000D02*
X152000000Y-56500000D01*
D30*
X151640000Y-56500000D02*
X152750000Y-56500000D01*
X148000000Y-60140000D02*
X151640000Y-56500000D01*
D29*
X152000000Y-56500000D02*
X152750000Y-56500000D01*
D30*
X166000000Y-56500000D02*
X167620000Y-58120000D01*
X152750000Y-56500000D02*
X166000000Y-56500000D01*
X167620000Y-58120000D02*
X167620000Y-60130000D01*
%TO.N,LAYER1*%
X119592222Y-122260000D02*
X113972222Y-127880000D01*
X121250000Y-122260000D02*
X119592222Y-122260000D01*
%TO.N,LAYER2*%
X120416666Y-127880000D02*
X124000000Y-124296666D01*
X124000000Y-120500000D02*
X123220000Y-119720000D01*
X124000000Y-124296666D02*
X124000000Y-120500000D01*
X121250000Y-119720000D02*
X123220000Y-119720000D01*
%TO.N,LAYER3*%
X126861110Y-120471110D02*
X123570000Y-117180000D01*
X126861110Y-127880000D02*
X126861110Y-120471110D01*
X121250000Y-117180000D02*
X123570000Y-117180000D01*
%TO.N,LAYER4*%
X124640000Y-114640000D02*
X121250000Y-114640000D01*
X129250000Y-119250000D02*
X124640000Y-114640000D01*
X129250000Y-123824446D02*
X129250000Y-119250000D01*
X133305554Y-127880000D02*
X129250000Y-123824446D01*
%TO.N,LAYER5*%
X137120000Y-125250000D02*
X139750000Y-127880000D01*
X134500000Y-125250000D02*
X137120000Y-125250000D01*
X131875000Y-122625000D02*
X134500000Y-125250000D01*
X131875000Y-118125000D02*
X131875000Y-122625000D01*
X125850000Y-112100000D02*
X131875000Y-118125000D01*
X121250000Y-112100000D02*
X125850000Y-112100000D01*
D31*
%TO.N,QA1*%
X162540000Y-61460000D02*
X162540000Y-60130000D01*
X157500000Y-66500000D02*
X162540000Y-61460000D01*
X157500000Y-73000000D02*
X157500000Y-66500000D01*
%TO.N,QB1*%
X160000000Y-72250000D02*
X160750000Y-73000000D01*
X160000000Y-67750000D02*
X160000000Y-72250000D01*
%TO.N,QC1*%
X162540000Y-71540000D02*
X164000000Y-73000000D01*
X162540000Y-67750000D02*
X162540000Y-71540000D01*
%TO.N,QD1*%
X165080000Y-70830000D02*
X167250000Y-73000000D01*
X165080000Y-67750000D02*
X165080000Y-70830000D01*
%TO.N,QE1*%
X167620000Y-70120000D02*
X170500000Y-73000000D01*
X167620000Y-67750000D02*
X167620000Y-70120000D01*
%TO.N,QF1*%
X170160000Y-69410000D02*
X173750000Y-73000000D01*
X170160000Y-67750000D02*
X170160000Y-69410000D01*
%TO.N,QG1*%
X172700000Y-68700000D02*
X177000000Y-73000000D01*
X172700000Y-67750000D02*
X172700000Y-68700000D01*
%TO.N,QH1*%
X175240000Y-67990000D02*
X180250000Y-73000000D01*
X175240000Y-67750000D02*
X175240000Y-67990000D01*
D29*
%TO.N,Net-(R24-Pad1)*%
X148250000Y-85750000D02*
X151000000Y-83000000D01*
X151000000Y-83000000D02*
X166500000Y-83000000D01*
D31*
X167620000Y-84120000D02*
X166500000Y-83000000D01*
X167620000Y-85880000D02*
X167620000Y-84120000D01*
X150890000Y-83000000D02*
X148000000Y-85890000D01*
X166500000Y-83000000D02*
X150890000Y-83000000D01*
%TO.N,QA2*%
X157500000Y-92250000D02*
X157500000Y-98750000D01*
X162540000Y-87210000D02*
X157500000Y-92250000D01*
X162540000Y-85880000D02*
X162540000Y-87210000D01*
%TO.N,QB2*%
X160000000Y-98000000D02*
X160750000Y-98750000D01*
X160000000Y-93500000D02*
X160000000Y-98000000D01*
%TO.N,QC2*%
X162540000Y-97290000D02*
X164000000Y-98750000D01*
X162540000Y-93500000D02*
X162540000Y-97290000D01*
%TO.N,QD2*%
X165080000Y-96580000D02*
X167250000Y-98750000D01*
X165080000Y-93500000D02*
X165080000Y-96580000D01*
%TO.N,QE2*%
X167620000Y-95870000D02*
X170500000Y-98750000D01*
X167620000Y-93500000D02*
X167620000Y-95870000D01*
%TO.N,QF2*%
X170160000Y-95160000D02*
X173750000Y-98750000D01*
X170160000Y-93500000D02*
X170160000Y-95160000D01*
%TO.N,QG2*%
X172700000Y-94450000D02*
X177000000Y-98750000D01*
X172700000Y-93500000D02*
X172700000Y-94450000D01*
%TO.N,QH2*%
X175240000Y-93740000D02*
X180250000Y-98750000D01*
X175240000Y-93500000D02*
X175240000Y-93740000D01*
%TO.N,Net-(R34-Pad1)*%
X150890000Y-108750000D02*
X160000000Y-108750000D01*
X148000000Y-111640000D02*
X150890000Y-108750000D01*
X164740000Y-108750000D02*
X167620000Y-111630000D01*
X160000000Y-108750000D02*
X164740000Y-108750000D01*
%TO.N,QA3*%
X157500000Y-118000000D02*
X157500000Y-124250000D01*
X162540000Y-112960000D02*
X157500000Y-118000000D01*
X162540000Y-111630000D02*
X162540000Y-112960000D01*
D29*
%TO.N,QB3*%
X160000000Y-123250000D02*
X161000000Y-124250000D01*
X160000000Y-119250000D02*
X160000000Y-123250000D01*
D31*
X160000000Y-123500000D02*
X160750000Y-124250000D01*
X160000000Y-119250000D02*
X160000000Y-123500000D01*
D29*
%TO.N,QC3*%
X162540000Y-122290000D02*
X164500000Y-124250000D01*
X162540000Y-119250000D02*
X162540000Y-122290000D01*
D31*
X162540000Y-122790000D02*
X164000000Y-124250000D01*
X162540000Y-119250000D02*
X162540000Y-122790000D01*
D29*
%TO.N,QD3*%
X165080000Y-119250000D02*
X165080000Y-121330000D01*
D31*
X165080000Y-122080000D02*
X167250000Y-124250000D01*
X165080000Y-119250000D02*
X165080000Y-122080000D01*
D29*
%TO.N,QE3*%
X167620000Y-119250000D02*
X167620000Y-120370000D01*
D31*
X167620000Y-121370000D02*
X170500000Y-124250000D01*
X167620000Y-119250000D02*
X167620000Y-121370000D01*
D29*
%TO.N,QF3*%
X170160000Y-119250000D02*
X170160000Y-119410000D01*
D31*
X170160000Y-120660000D02*
X173750000Y-124250000D01*
X170160000Y-119250000D02*
X170160000Y-120660000D01*
%TO.N,QG3*%
X172700000Y-119950000D02*
X177000000Y-124250000D01*
X172700000Y-119250000D02*
X172700000Y-119950000D01*
D29*
%TO.N,QH3*%
X175240000Y-119250000D02*
X178240000Y-122250000D01*
D31*
X175250000Y-119250000D02*
X180250000Y-124250000D01*
X175240000Y-119250000D02*
X175250000Y-119250000D01*
D30*
%TO.N,QA4*%
X162540000Y-139290000D02*
X165000000Y-141750000D01*
X162540000Y-136880000D02*
X162540000Y-139290000D01*
X179240000Y-141750000D02*
X182000000Y-144510000D01*
X165000000Y-141750000D02*
X179240000Y-141750000D01*
D29*
%TO.N,Net-(R45-Pad1)*%
X148000000Y-137250000D02*
X151250000Y-134000000D01*
D30*
X166000000Y-134000000D02*
X151250000Y-134000000D01*
X150890000Y-134000000D02*
X151250000Y-134000000D01*
X148000000Y-136890000D02*
X150890000Y-134000000D01*
X167620000Y-136880000D02*
X167620000Y-134870000D01*
X166750000Y-134000000D02*
X166000000Y-134000000D01*
X167620000Y-134870000D02*
X166750000Y-134000000D01*
D29*
%TO.N,CLOCK*%
X168870000Y-65940000D02*
X168870000Y-63770000D01*
%TO.N,LATCH*%
X166350000Y-65950000D02*
X166350000Y-63500000D01*
X166350000Y-63500000D02*
X166350000Y-62620000D01*
D31*
%TO.N,Net-(U2-Pad9)*%
X190600000Y-72950000D02*
X177780000Y-60130000D01*
X193750000Y-72950000D02*
X190600000Y-72950000D01*
X167400000Y-89900000D02*
X182400000Y-89900000D01*
X182400000Y-89900000D02*
X185400000Y-92900000D01*
X165080000Y-87580000D02*
X167400000Y-89900000D01*
X165080000Y-85880000D02*
X165080000Y-87580000D01*
D29*
%TO.N,Net-(U3-Pad9)*%
X170000000Y-108800000D02*
X176750000Y-108800000D01*
X168850000Y-109950000D02*
X170000000Y-108800000D01*
X168850000Y-113250000D02*
X168850000Y-109950000D01*
X168000000Y-114100000D02*
X168850000Y-113250000D01*
X165930000Y-114100000D02*
X168000000Y-114100000D01*
X165080000Y-113250000D02*
X165930000Y-114100000D01*
X165080000Y-111630000D02*
X165080000Y-113250000D01*
D31*
X180650000Y-94800000D02*
X179550000Y-95900000D01*
X180650000Y-91200000D02*
X180650000Y-94800000D01*
%TO.N,Net-(U4-Pad9)*%
X177780000Y-111630000D02*
X179630000Y-111630000D01*
X184900000Y-116900000D02*
X184900000Y-118750000D01*
X179630000Y-111630000D02*
X184900000Y-116900000D01*
%TO.N,Net-(J3-Pad3)*%
X160750000Y-80620000D02*
X165370000Y-76000000D01*
X184710000Y-76000000D02*
X185230000Y-76520000D01*
X165370000Y-76000000D02*
X184710000Y-76000000D01*
X185230000Y-76520000D02*
X191250000Y-82540000D01*
%TO.N,Net-(J3-Pad5)*%
X164000000Y-80620000D02*
X167370000Y-77250000D01*
X183420000Y-77250000D02*
X184835000Y-78665000D01*
X167370000Y-77250000D02*
X183420000Y-77250000D01*
X184835000Y-78665000D02*
X191250000Y-85080000D01*
%TO.N,Net-(J3-Pad7)*%
X167250000Y-80620000D02*
X169370000Y-78500000D01*
X182130000Y-78500000D02*
X183690000Y-80060000D01*
X169370000Y-78500000D02*
X182130000Y-78500000D01*
X183690000Y-80060000D02*
X191250000Y-87620000D01*
%TO.N,Net-(J3-Pad9)*%
X186660000Y-90160000D02*
X191250000Y-90160000D01*
X179500000Y-83000000D02*
X186660000Y-90160000D01*
X172880000Y-83000000D02*
X179500000Y-83000000D01*
X170500000Y-80620000D02*
X172880000Y-83000000D01*
D29*
%TO.N,Net-(J3-Pad8)*%
X157500000Y-106370000D02*
X163470000Y-100400000D01*
X163470000Y-100400000D02*
X183800000Y-100400000D01*
X183800000Y-100400000D02*
X189650000Y-94550000D01*
%TO.N,Net-(J3-Pad10)*%
X160750000Y-106370000D02*
X165870000Y-101250000D01*
X165870000Y-101250000D02*
X186700000Y-101250000D01*
X193790000Y-94160000D02*
X193790000Y-90160000D01*
X186700000Y-101250000D02*
X193790000Y-94160000D01*
%TO.N,Net-(J4-Pad10)*%
X182750000Y-126000000D02*
X185250000Y-123500000D01*
X163370000Y-126000000D02*
X182750000Y-126000000D01*
X157500000Y-131870000D02*
X163370000Y-126000000D01*
X185250000Y-120200000D02*
X193790000Y-111660000D01*
X185250000Y-123500000D02*
X185250000Y-120200000D01*
%TO.N,Net-(J4-Pad8)*%
X195620000Y-109120000D02*
X193790000Y-109120000D01*
X196500000Y-110000000D02*
X195620000Y-109120000D01*
X196500000Y-115750000D02*
X196500000Y-110000000D01*
X189750000Y-117250000D02*
X195000000Y-117250000D01*
X186500000Y-120500000D02*
X189750000Y-117250000D01*
X186500000Y-123750000D02*
X186500000Y-120500000D01*
X183500000Y-126750000D02*
X186500000Y-123750000D01*
X195000000Y-117250000D02*
X196500000Y-115750000D01*
X165870000Y-126750000D02*
X183500000Y-126750000D01*
X160750000Y-131870000D02*
X165870000Y-126750000D01*
%TO.N,Net-(J4-Pad6)*%
X197080000Y-106580000D02*
X193790000Y-106580000D01*
X197750000Y-115750000D02*
X197750000Y-107250000D01*
X190000000Y-118250000D02*
X195250000Y-118250000D01*
X187500000Y-120750000D02*
X190000000Y-118250000D01*
X187500000Y-124000000D02*
X187500000Y-120750000D01*
X184000000Y-127500000D02*
X187500000Y-124000000D01*
X197750000Y-107250000D02*
X197080000Y-106580000D01*
X195250000Y-118250000D02*
X197750000Y-115750000D01*
X168370000Y-127500000D02*
X184000000Y-127500000D01*
X164000000Y-131870000D02*
X168370000Y-127500000D01*
%TO.N,Net-(J4-Pad4)*%
X199250000Y-115750000D02*
X199250000Y-106250000D01*
X195750000Y-119250000D02*
X199250000Y-115750000D01*
X190750000Y-119250000D02*
X195750000Y-119250000D01*
X199250000Y-106250000D02*
X197040000Y-104040000D01*
X188500000Y-121500000D02*
X190750000Y-119250000D01*
X197040000Y-104040000D02*
X193790000Y-104040000D01*
X188500000Y-124250000D02*
X188500000Y-121500000D01*
X184500000Y-128250000D02*
X188500000Y-124250000D01*
X170870000Y-128250000D02*
X184500000Y-128250000D01*
X167250000Y-131870000D02*
X170870000Y-128250000D01*
D31*
%TO.N,Net-(J4-Pad9)*%
X182290000Y-111660000D02*
X177000000Y-106370000D01*
X191250000Y-111660000D02*
X182290000Y-111660000D01*
D29*
%TO.N,Net-(J4-Pad7)*%
X183450000Y-104700000D02*
X187870000Y-109120000D01*
X187870000Y-109120000D02*
X191250000Y-109120000D01*
X175420000Y-104700000D02*
X183450000Y-104700000D01*
X173750000Y-106370000D02*
X175420000Y-104700000D01*
%TO.N,Net-(J4-Pad5)*%
X187580000Y-106580000D02*
X191250000Y-106580000D01*
X184750000Y-103750000D02*
X187580000Y-106580000D01*
X173120000Y-103750000D02*
X184750000Y-103750000D01*
X170500000Y-106370000D02*
X173120000Y-103750000D01*
%TO.N,Net-(J4-Pad3)*%
X187040000Y-104040000D02*
X191250000Y-104040000D01*
X185850000Y-102850000D02*
X187040000Y-104040000D01*
X170770000Y-102850000D02*
X185850000Y-102850000D01*
X167250000Y-106370000D02*
X170770000Y-102850000D01*
%TO.N,Net-(J5-Pad3)*%
X188020000Y-128770000D02*
X191250000Y-125540000D01*
X187040000Y-129750000D02*
X188020000Y-128770000D01*
X175870000Y-129750000D02*
X187040000Y-129750000D01*
X173750000Y-131870000D02*
X175870000Y-129750000D01*
%TO.N,Net-(J5-Pad5)*%
X191250000Y-128080000D02*
X188830000Y-130500000D01*
X178370000Y-130500000D02*
X178060000Y-130810000D01*
X188830000Y-130500000D02*
X178370000Y-130500000D01*
X178060000Y-130810000D02*
X177000000Y-131870000D01*
D31*
%TO.N,Net-(J5-Pad7)*%
X190000000Y-131870000D02*
X180250000Y-131870000D01*
X191250000Y-130620000D02*
X190000000Y-131870000D01*
D29*
%TO.N,Net-(J5-Pad9)*%
X191120000Y-133290000D02*
X191250000Y-133160000D01*
D30*
X187520000Y-136890000D02*
X191250000Y-133160000D01*
X182000000Y-136890000D02*
X187520000Y-136890000D01*
%TO.N,L1*%
X121750000Y-152750000D02*
X119375000Y-150375000D01*
X187250000Y-152750000D02*
X121750000Y-152750000D01*
X200000000Y-140000000D02*
X187250000Y-152750000D01*
X198250000Y-123000000D02*
X200000000Y-124750000D01*
X193790000Y-123000000D02*
X198250000Y-123000000D01*
X119375000Y-150375000D02*
X121250000Y-152250000D01*
X200000000Y-124750000D02*
X200000000Y-140000000D01*
X112250000Y-143250000D02*
X119375000Y-150375000D01*
%TO.N,L2*%
X118750000Y-143250000D02*
X119000000Y-143250000D01*
X186750000Y-151250000D02*
X126750000Y-151250000D01*
X126750000Y-151250000D02*
X124875000Y-149375000D01*
X198500000Y-139500000D02*
X186750000Y-151250000D01*
X193790000Y-125540000D02*
X195790000Y-125540000D01*
X198500000Y-128250000D02*
X198500000Y-139500000D01*
X124875000Y-149375000D02*
X118750000Y-143250000D01*
X195790000Y-125540000D02*
X198500000Y-128250000D01*
X126250000Y-150750000D02*
X124875000Y-149375000D01*
%TO.N,L3*%
X131500000Y-149500000D02*
X130375000Y-148375000D01*
X195580000Y-128080000D02*
X197000000Y-129500000D01*
X193790000Y-128080000D02*
X195580000Y-128080000D01*
X197000000Y-129500000D02*
X197000000Y-138750000D01*
X197000000Y-138750000D02*
X186000000Y-149750000D01*
X131750000Y-149750000D02*
X130250000Y-148250000D01*
X186000000Y-149750000D02*
X131750000Y-149750000D01*
X130250000Y-148250000D02*
X125250000Y-143250000D01*
X130375000Y-148375000D02*
X130250000Y-148250000D01*
%TO.N,L4*%
X193790000Y-130620000D02*
X194870000Y-130620000D01*
X194870000Y-130620000D02*
X195500000Y-131250000D01*
X195500000Y-131250000D02*
X195500000Y-138000000D01*
X195500000Y-138000000D02*
X185250000Y-148250000D01*
X136750000Y-148250000D02*
X134875000Y-146375000D01*
X185250000Y-148250000D02*
X136750000Y-148250000D01*
X134875000Y-146375000D02*
X131750000Y-143250000D01*
X136500000Y-148000000D02*
X134875000Y-146375000D01*
%TO.N,L5*%
X141750000Y-146750000D02*
X138250000Y-143250000D01*
X184500000Y-146750000D02*
X141750000Y-146750000D01*
X193790000Y-137460000D02*
X184500000Y-146750000D01*
X193790000Y-133160000D02*
X193790000Y-137460000D01*
%TD*%
M02*
