M48
; DRILL file {KiCad (5.1.10)-1} date 09/10/21 20:59:58
; FORMAT={-:-/ absolute / inch / decimal}
; #@! TF.CreationDate,2021-09-10T20:59:58+02:00
; #@! TF.GenerationSoftware,Kicad,Pcbnew,(5.1.10)-1
; #@! TF.FileFunction,Plated,1,2,PTH
FMAT,2
INCH
T1C0.0157
T2C0.0295
T3C0.0315
T4C0.0390
T5C0.0394
T6C0.0512
T7C0.1260
%
G90
G05
T1
X6.5492Y-2.4654
X6.5492Y-2.5965
X6.6484Y-2.5106
X6.6484Y-2.5961
X6.9587Y-4.2835
X7.0689Y-3.7756
X7.1122Y-3.5906
X7.2795Y-4.6752
X7.2992Y-3.6575
X7.4665Y-3.7224
X7.628Y-2.872
T2
X4.4193Y-5.5398
X4.4193Y-5.5898
X4.4193Y-5.6398
X4.6752Y-5.5398
X4.6752Y-5.5898
X4.6752Y-5.6398
X4.9311Y-5.5398
X4.9311Y-5.5898
X4.9311Y-5.6398
X5.187Y-5.5398
X5.187Y-5.5898
X5.187Y-5.6398
X5.4429Y-5.5398
X5.4429Y-5.5898
X5.4429Y-5.6398
T3
X4.252Y-3.9614
X4.252Y-4.1535
X4.3504Y-3.9614
X4.3504Y-4.1535
X4.3602Y-5.0346
X4.3602Y-5.3346
X4.4871Y-5.0346
X4.4871Y-5.3346
X4.4882Y-3.5433
X4.4882Y-3.7402
X4.5472Y-3.9614
X4.5472Y-4.1535
X4.614Y-5.0346
X4.614Y-5.3346
X4.7408Y-5.0346
X4.7408Y-5.3346
X4.7736Y-2.9134
X4.7736Y-3.0134
X4.7736Y-3.1134
X4.7736Y-3.2134
X4.7736Y-3.3134
X4.7736Y-3.4134
X4.7736Y-3.5134
X4.7736Y-3.6134
X4.7736Y-3.7134
X4.7736Y-3.8134
X4.7736Y-3.9134
X4.7736Y-4.0134
X4.7736Y-4.1134
X4.7736Y-4.2134
X4.7736Y-4.3134
X4.7736Y-4.4134
X4.7736Y-4.5134
X4.7736Y-4.6134
X4.7736Y-4.7134
X4.7736Y-4.8134
X4.8378Y-2.7165
X4.8677Y-5.0346
X4.8677Y-5.3346
X4.9945Y-5.0346
X4.9945Y-5.3346
X5.1214Y-5.0346
X5.1214Y-5.3346
X5.1378Y-2.7165
X5.2483Y-5.0346
X5.2483Y-5.3346
X5.3736Y-2.9134
X5.3736Y-3.0134
X5.3736Y-3.1134
X5.3736Y-3.2134
X5.3736Y-3.3134
X5.3736Y-3.4134
X5.3736Y-3.5134
X5.3736Y-3.6134
X5.3736Y-3.7134
X5.3736Y-3.8134
X5.3736Y-3.9134
X5.3736Y-4.0134
X5.3736Y-4.1134
X5.3736Y-4.2134
X5.3736Y-4.3134
X5.3736Y-4.4134
X5.3736Y-4.5134
X5.3736Y-4.6134
X5.3736Y-4.7134
X5.3736Y-4.8134
X5.3751Y-5.0346
X5.3751Y-5.3346
X5.502Y-5.0346
X5.502Y-5.3346
X5.8268Y-2.3677
X5.8268Y-2.6677
X5.8268Y-3.3815
X5.8268Y-3.6815
X5.8268Y-4.3953
X5.8268Y-4.6953
X5.8268Y-5.3894
X5.8268Y-5.6894
X6.0531Y-2.4193
X6.0531Y-2.6161
X6.0531Y-3.4331
X6.0531Y-3.6299
X6.0531Y-4.4469
X6.0531Y-4.6437
X6.0531Y-5.4409
X6.0531Y-5.6378
X6.2008Y-2.874
X6.2008Y-3.174
X6.2008Y-3.8878
X6.2008Y-4.1878
X6.2008Y-4.8917
X6.2008Y-5.1917
X6.2992Y-2.3673
X6.2992Y-2.6673
X6.2992Y-3.3811
X6.2992Y-3.6811
X6.2992Y-4.3949
X6.2992Y-4.6949
X6.2992Y-5.389
X6.2992Y-5.689
X6.3287Y-2.874
X6.3287Y-3.174
X6.3287Y-3.8878
X6.3287Y-4.1878
X6.3287Y-4.8917
X6.3287Y-5.1917
X6.3992Y-2.3673
X6.3992Y-2.6673
X6.3992Y-3.3811
X6.3992Y-3.6811
X6.3992Y-4.3949
X6.3992Y-4.6949
X6.3992Y-5.389
X6.3992Y-5.689
X6.4567Y-2.874
X6.4567Y-3.174
X6.4567Y-3.8878
X6.4567Y-4.1878
X6.4567Y-4.8917
X6.4567Y-5.1917
X6.4992Y-2.3673
X6.4992Y-2.6673
X6.4992Y-3.3811
X6.4992Y-3.6811
X6.4992Y-4.3949
X6.4992Y-4.6949
X6.4992Y-5.389
X6.4992Y-5.689
X6.5846Y-2.874
X6.5846Y-3.174
X6.5846Y-3.8878
X6.5846Y-4.1878
X6.5846Y-4.8917
X6.5846Y-5.1917
X6.5992Y-2.3673
X6.5992Y-2.6673
X6.5992Y-3.3811
X6.5992Y-3.6811
X6.5992Y-4.3949
X6.5992Y-4.6949
X6.5992Y-5.389
X6.5992Y-5.689
X6.6992Y-2.3673
X6.6992Y-2.6673
X6.6992Y-3.3811
X6.6992Y-3.6811
X6.6992Y-4.3949
X6.6992Y-4.6949
X6.6992Y-5.389
X6.6992Y-5.689
X6.7126Y-2.874
X6.7126Y-3.174
X6.7126Y-3.8878
X6.7126Y-4.1878
X6.7126Y-4.8917
X6.7126Y-5.1917
X6.7992Y-2.3673
X6.7992Y-2.6673
X6.7992Y-3.3811
X6.7992Y-3.6811
X6.7992Y-4.3949
X6.7992Y-4.6949
X6.7992Y-5.389
X6.7992Y-5.689
X6.8406Y-2.874
X6.8406Y-3.174
X6.8406Y-3.8878
X6.8406Y-4.1878
X6.8406Y-4.8917
X6.8406Y-5.1917
X6.8992Y-2.3673
X6.8992Y-2.6673
X6.8992Y-3.3811
X6.8992Y-3.6811
X6.8992Y-4.3949
X6.8992Y-4.6949
X6.8992Y-5.389
X6.8992Y-5.689
X6.9685Y-2.874
X6.9685Y-3.174
X6.9685Y-3.8878
X6.9685Y-4.1878
X6.9685Y-4.8917
X6.9685Y-5.1917
X6.9992Y-2.3673
X6.9992Y-2.6673
X6.9992Y-3.3811
X6.9992Y-3.6811
X6.9992Y-4.3949
X6.9992Y-4.6949
X6.9992Y-5.389
X6.9992Y-5.689
X7.0965Y-2.874
X7.0965Y-3.174
X7.0965Y-3.8878
X7.0965Y-4.1878
X7.0965Y-4.8917
X7.0965Y-5.1917
X7.1654Y-5.3894
X7.1654Y-5.6894
T4
X4.8982Y-2.2343
X5.0754Y-2.2343
T5
X4.4472Y-2.9268
X4.4472Y-3.0268
X4.4472Y-3.1268
X4.4472Y-3.2268
X4.4472Y-3.3268
X4.5472Y-2.9268
X4.5472Y-3.0268
X4.5472Y-3.1268
X4.5472Y-3.2268
X4.5472Y-3.3268
X7.5295Y-3.1496
X7.5295Y-3.2496
X7.5295Y-3.3496
X7.5295Y-3.4496
X7.5295Y-3.5496
X7.5295Y-3.9961
X7.5295Y-4.0961
X7.5295Y-4.1961
X7.5295Y-4.2961
X7.5295Y-4.3961
X7.5295Y-4.8425
X7.5295Y-4.9425
X7.5295Y-5.0425
X7.5295Y-5.1425
X7.5295Y-5.2425
X7.6295Y-3.1496
X7.6295Y-3.2496
X7.6295Y-3.3496
X7.6295Y-3.4496
X7.6295Y-3.5496
X7.6295Y-3.9961
X7.6295Y-4.0961
X7.6295Y-4.1961
X7.6295Y-4.2961
X7.6295Y-4.3961
X7.6295Y-4.8425
X7.6295Y-4.9425
X7.6295Y-5.0425
X7.6295Y-5.1425
X7.6295Y-5.2425
T6
X4.849Y-2.3323
X5.125Y-2.3323
T7
X4.1535Y-2.2638
X4.1535Y-5.9252
X7.815Y-2.2638
X7.815Y-5.9252
T3
G00X4.3386Y-4.5728
M15
G01X4.3386Y-4.6594
M16
G05
G00X4.4055Y-4.8051
M15
G01X4.4921Y-4.8051
M16
G05
G00X4.5669Y-4.565
M15
G01X4.5669Y-4.6673
M16
G05
T0
M30
