M48
; DRILL file {KiCad (5.1.10)-1} date 09/12/21 14:26:07
; FORMAT={-:-/ absolute / inch / decimal}
; #@! TF.CreationDate,2021-09-12T14:26:07+02:00
; #@! TF.GenerationSoftware,Kicad,Pcbnew,(5.1.10)-1
; #@! TF.FileFunction,Plated,1,2,PTH
FMAT,2
INCH
T1C0.0157
T2C0.0394
%
G90
G05
T1
X4.1339Y-3.4646
X4.1437Y-2.4803
X4.1437Y-2.5787
X4.1437Y-2.6772
X4.1437Y-2.7756
X4.1437Y-3.563
X4.1437Y-3.6614
X4.1437Y-3.7598
X4.5571Y-3.4646
X4.5571Y-4.4488
X4.5571Y-4.5472
X4.5571Y-4.6457
T2
X3.8091Y-1.7913
X3.8091Y-2.5787
X3.8091Y-3.563
X3.8091Y-4.5472
X3.8091Y-5.5315
X3.9075Y-1.6929
X3.9075Y-2.6772
X3.9075Y-3.6614
X3.9075Y-4.6457
X3.9075Y-5.6299
X4.8917Y-1.6929
X4.8917Y-2.6772
X4.8917Y-3.6614
X4.8917Y-4.6457
X4.8917Y-5.6299
X5.876Y-1.6929
X5.876Y-2.6772
X5.876Y-3.6614
X5.876Y-4.6457
X5.876Y-5.6299
X6.8602Y-1.6929
X6.8602Y-2.6772
X6.8602Y-3.6614
X6.8602Y-4.6457
X6.8602Y-5.6201
X7.8445Y-1.6929
X7.8445Y-2.6772
X7.8445Y-3.6614
X7.8445Y-4.6457
X7.8445Y-5.6299
T0
M30
